<svg width="80" height="85" viewBox="0 0 80 85" fill="none" xmlns="http://www.w3.org/2000/svg">
<g filter="url(#filter0_d_3102_4013)">
<path d="M39.9971 80.5336C62.0885 80.5336 79.9971 62.625 79.9971 40.5336C79.9971 18.4422 62.0885 0.53363 39.9971 0.53363C17.9057 0.53363 -0.00292969 18.4422 -0.00292969 40.5336C-0.00292969 62.625 17.9057 80.5336 39.9971 80.5336Z" fill="#329EE8"/>
</g>
<path d="M40.0015 76.2685C59.7371 76.2685 75.7359 60.2697 75.7359 40.5341C75.7359 20.7985 59.7371 4.79967 40.0015 4.79967C20.2659 4.79967 4.26709 20.7985 4.26709 40.5341C4.26709 60.2697 20.2659 76.2685 40.0015 76.2685Z" stroke="#5FBEFF" stroke-width="8.4"/>
<path d="M55.2134 32.8739L55.2016 32.8856C55.8963 33.7294 56.2521 34.8015 56.1998 35.8932C56.1475 36.9849 55.6908 38.0181 54.9187 38.7916C54.5114 39.2007 54.0274 39.5253 53.4943 39.7468C52.9613 39.9684 52.3897 40.0824 51.8125 40.0824C51.2352 40.0824 50.6636 39.9684 50.1306 39.7468C49.5975 39.5253 49.1135 39.2007 48.7062 38.7916C47.9831 38.0716 47.5337 37.1219 47.4355 36.1062L45.3088 38.234L43.6408 36.5671L45.699 34.5101C44.744 34.3836 43.8576 33.9451 43.1775 33.2629C42.7684 32.8556 42.4438 32.3716 42.2223 31.8385C42.0007 31.3055 41.8867 30.7339 41.8867 30.1566C41.8867 29.5794 42.0007 29.0078 42.2223 28.4748C42.4438 27.9417 42.7684 27.4577 43.1775 27.0504C43.9341 26.294 44.9406 25.8395 46.0084 25.7722C47.0762 25.7049 48.1318 26.0295 48.9774 26.685L49.0009 26.6614C50.7102 24.9403 53.4923 24.9521 55.2134 26.6614C55.6225 27.0687 55.9471 27.5527 56.1686 28.0858C56.3901 28.6188 56.5042 29.1904 56.5042 29.7676C56.5042 30.3449 56.3901 30.9164 56.1686 31.4495C55.9471 31.9826 55.6225 32.4666 55.2134 32.8739Z" fill="#277CB5"/>
<path opacity="0.2" d="M55.2095 32.8739L55.1977 32.8857C55.8127 31.8385 55.2364 29.6568 54.4377 28.8125C53.7502 28.0858 52.6194 27.4375 51.6877 27.4375C50.7561 27.4375 49.5301 28.2533 48.997 28.4748C47.5627 28.125 46.5491 28.393 46.3236 28.4748C46.1781 28.5275 44.7274 29.043 44.3614 30.1567C44.1252 30.875 44.1252 32.25 44.4879 33.2629C44.7196 33.9102 45.6951 35 46.1878 35L44.1253 37.0625L43.6369 36.5672L45.6951 34.5101C44.7401 34.3836 43.8537 33.9451 43.1736 33.2629C42.7645 32.8556 42.4399 32.3716 42.2184 31.8385C41.9968 31.3055 41.8828 30.7339 41.8828 30.1567C41.8828 29.5794 41.9968 29.0078 42.2184 28.4748C42.4399 27.9417 42.7645 27.4577 43.1736 27.0504C43.9302 26.294 44.9367 25.8395 46.0045 25.7722C47.0723 25.7049 48.1279 26.0295 48.9735 26.685L48.997 26.6614C50.7063 24.9403 53.4884 24.9521 55.2095 26.6614C55.6186 27.0687 55.9432 27.5527 56.1647 28.0858C56.3862 28.6188 56.5003 29.1904 56.5003 29.7676C56.5003 30.3449 56.3862 30.9165 56.1647 31.4495C55.9432 31.9826 55.5941 32.5071 55.2095 32.8739Z" fill="#5FBEFF"/>
<path d="M26.615 58.2542L45.1816 52.2422C50.4982 50.5211 52.1132 43.7899 48.1641 39.8409L42.0341 33.7109C38.0851 29.7618 31.3539 31.3886 29.6328 36.6934L23.6208 55.26C23.0196 57.1108 24.7642 58.8554 26.615 58.2542Z" fill="#79C9FF"/>
<path d="M35.7285 45.9C36.3062 45.3224 36.3062 44.3911 35.7285 43.8017L29.3864 37.4595L28.3608 40.6188L33.6302 45.8882C34.2079 46.4776 35.1509 46.4776 35.7285 45.9ZM31.2726 51.2637C30.6949 51.8413 30.6949 52.7726 31.2726 53.362L33.8306 55.9201L36.9899 54.8945L33.3591 51.2637C33.2222 51.1265 33.0596 51.0176 32.8806 50.9433C32.7016 50.869 32.5096 50.8308 32.3158 50.8308C32.122 50.8308 31.9301 50.869 31.7511 50.9433C31.572 51.0176 31.4094 51.1265 31.2726 51.2637ZM40.3024 45.3931C39.7248 44.8037 39.7248 43.8724 40.3024 43.2948C40.8801 42.7171 41.8113 42.7171 42.4007 43.3065L48.8018 49.7076C48.2124 50.4856 47.4579 51.1458 46.562 51.6527L40.3024 45.3931Z" fill="#37AEFF"/>
<path opacity="0.2" d="M26.615 58.2965L31.75 43.25C36.5625 34.3125 42.75 38.0769 43.4375 35L42.0341 33.7532C38.0851 29.8041 31.3539 31.4309 29.6328 36.7356L23.6208 55.3022C23.0196 57.153 24.7642 58.8977 26.615 58.2965Z" fill="#C1E6FF"/>
<path opacity="0.15" d="M80 40.5336C80 18.4423 62.0915 0.53363 40 0.53363C28.9543 0.53363 18.9543 5.01079 11.7158 12.2493L68.2843 68.8178C72.1896 65.3689 80 54.8835 80 40.5336Z" fill="white"/>
<defs>
<filter id="filter0_d_3102_4013" x="-0.00292969" y="0.53363" width="80" height="84" filterUnits="userSpaceOnUse" color-interpolation-filters="sRGB">
<feFlood flood-opacity="0" result="BackgroundImageFix"/>
<feColorMatrix in="SourceAlpha" type="matrix" values="0 0 0 0 0 0 0 0 0 0 0 0 0 0 0 0 0 0 127 0" result="hardAlpha"/>
<feOffset dy="4"/>
<feColorMatrix type="matrix" values="0 0 0 0 0.196078 0 0 0 0 0.619608 0 0 0 0 0.909804 0 0 0 1 0"/>
<feBlend mode="normal" in2="BackgroundImageFix" result="effect1_dropShadow_3102_4013"/>
<feBlend mode="normal" in="SourceGraphic" in2="effect1_dropShadow_3102_4013" result="shape"/>
</filter>
</defs>
</svg>
