<svg width="398" height="475" viewBox="0 0 398 475" fill="none" xmlns="http://www.w3.org/2000/svg">
<path d="M305.709 132.708L303.1 128.796C313.411 121.402 317.351 108.04 312.469 97.0269C305.757 81.8879 294.644 72.4092 279.416 68.8245C263.884 66.4645 249.31 70.9788 236.061 82.2601C226.423 90.4673 223.693 104.063 229.572 114.586L225.353 117.179C218.342 104.629 221.604 88.4129 233.108 78.6175C242.788 70.3747 258.257 61.4404 278.337 63.7361L278.379 63.5672L282.842 64.4297L282.8 64.5987C302.132 69.9207 311.971 83.7453 316.874 94.8066C322.701 107.951 318.005 123.891 305.709 132.708Z" fill="#429FDD"/>
<path d="M220.564 109.297L220.283 110.447L214.713 133.257L214.432 134.407C214.432 134.407 215.185 138.061 220.712 141.15L222.277 134.74L227.847 111.929L229.412 105.519C222.951 106.259 220.564 109.297 220.564 109.297Z" fill="#EE4D4D"/>
<path d="M213.996 133.03L219.962 108.973L217.787 109.027C216.149 109.068 214.588 110.007 213.684 111.496L209.821 117.862C209.351 118.637 209.086 119.516 209.058 120.402L208.816 127.934C208.75 129.991 209.952 131.764 211.806 132.344L213.996 133.03Z" fill="#EE4D4D"/>
<path d="M218.972 109.244L213.52 132.723L214.432 133.03L219.962 109.218L218.972 109.244Z" fill="#A61717"/>
<path d="M221.519 141.409L230.047 106.096C230.388 104.682 231.32 103.465 232.574 102.797L235.868 101.043C237.977 99.919 240.228 101.762 239.653 104.141L229.491 146.223C228.961 148.414 226.409 149.344 224.89 147.9L222.726 145.842C221.58 144.753 221.119 143.062 221.519 141.409Z" fill="#429FDD"/>
<path d="M232.295 102.783C231.068 103.448 230.157 104.661 229.823 106.072L221.474 141.291C221.083 142.94 221.533 144.627 222.653 145.713L223.51 146.544C229.941 132.091 233.115 107.919 233.823 101.954L232.295 102.783Z" fill="#277CB5"/>
<path d="M314.82 129.234L314.539 130.384L308.969 153.194L308.688 154.344C308.688 154.344 306.301 157.382 299.84 158.12L301.405 151.71L306.975 128.9L308.54 122.49C314.066 125.58 314.82 129.234 314.82 129.234Z" fill="#EE4D4D"/>
<path d="M309.549 153.527L315.515 129.47L317.465 130.319C318.935 130.959 319.909 132.387 320.025 134.072L320.523 141.278C320.583 142.156 320.407 143.052 320.013 143.868L316.668 150.802C315.755 152.695 313.823 153.864 311.864 153.709L309.549 153.527Z" fill="#EE4D4D"/>
<path d="M315.965 129.885L310.514 153.364L309.55 153.282L315.079 129.47L315.965 129.885Z" fill="#A61717"/>
<path d="M299.142 157.809L307.665 122.494C308.007 121.08 307.72 119.622 306.889 118.54L304.705 115.697C303.307 113.877 300.413 114.699 299.838 117.078L289.682 159.161C289.153 161.352 291.043 163.165 293.088 162.428L296.003 161.378C297.546 160.823 298.743 159.461 299.142 157.809Z" fill="#429FDD"/>
<path d="M306.962 118.664C307.775 119.743 308.054 121.196 307.719 122.608L299.37 157.827C298.979 159.475 297.807 160.834 296.298 161.388L295.144 161.811C295.841 146.196 303.894 123.012 305.949 117.32L306.962 118.664Z" fill="#277CB5"/>
<path d="M309.837 78.2037C300.916 63.2208 268.141 52.4231 245.078 65.7335C237.7 69.9919 243.957 81.3943 251.438 77.3521C251.47 77.3351 251.502 77.3174 251.534 77.2996C258.497 73.4913 263.865 77.4001 271.724 76.2257C274.912 75.7498 278.076 76.3639 280.749 77.9769C287.338 81.9539 294.054 80.3906 298.59 86.4302C298.645 86.5031 298.7 86.5744 298.755 86.6457C303.765 93.122 314.052 85.2852 309.837 78.2037Z" fill="#EE4D4D"/>
<path d="M304.549 72.9881C293.863 63.1683 273.62 56.9821 255.688 61.7098" stroke="#429FDD" stroke-width="2" stroke-miterlimit="10" stroke-linecap="round" stroke-linejoin="round"/>
<path d="M311.257 81.535C309.219 85.8306 303.271 88.1906 299.818 83.6007C299.763 83.5277 299.708 83.4532 299.652 83.3785C295.091 77.1325 288.331 78.7475 281.703 74.6327C279.014 72.9641 275.829 72.3282 272.622 72.8194C264.713 74.0314 259.314 69.9884 252.305 73.924C252.273 73.9424 252.241 73.9599 252.208 73.9783C247.052 76.8397 242.478 72.2097 242.492 67.5942C239.826 72.7739 245.233 80.3792 251.507 76.8984C251.539 76.8808 251.572 76.8624 251.604 76.8441C258.612 72.9083 264.012 76.9515 271.92 75.7394C275.128 75.2483 278.312 75.8842 281.001 77.5528C287.63 81.6669 294.389 80.0526 298.951 86.2986C299.006 86.374 299.061 86.4477 299.116 86.5208C303.296 92.075 311.122 87.4517 311.257 81.535Z" fill="#A61717"/>
<path d="M119.954 154.233L106.79 160.061C103.919 161.332 102.697 164.662 104.06 167.501L114.096 188.405C115.458 191.243 118.891 192.514 121.761 191.243L134.925 185.415L119.954 154.233Z" fill="#429FDD"/>
<path d="M111.607 183.466L113.957 188.366C115.329 191.226 118.783 192.505 121.672 191.225L134.922 185.353L132.572 180.454L119.322 186.325C116.433 187.605 112.978 186.326 111.607 183.466Z" fill="#277CB5"/>
<path d="M120.271 154.013L130.209 132.037C132.158 127.726 138.432 127.77 140.513 132.109L165.679 184.572C167.761 188.912 163.721 193.525 159.044 192.151L135.203 185.143L120.271 154.013Z" fill="#F7B24D"/>
<path d="M141.873 134.218L161.687 175.849" stroke="#429FDD" stroke-width="2" stroke-miterlimit="10" stroke-linecap="round" stroke-linejoin="round"/>
<path d="M156.334 186.585L132.327 179.535L134.973 185.046L158.98 192.096C163.69 193.479 167.758 188.838 165.662 184.472L163.016 178.962C165.112 183.327 161.044 187.968 156.334 186.585Z" fill="#F48B19"/>
<path d="M160.275 127.147L155.145 141.162C154.567 142.742 155.418 144.513 157.046 145.117C158.673 145.721 160.462 144.93 161.041 143.35L166.171 129.335C166.749 127.756 165.897 125.985 164.27 125.381C162.642 124.777 160.853 125.568 160.275 127.147Z" fill="#429FDD"/>
<path d="M184.335 167.444L169.891 162.083C168.263 161.479 166.474 162.27 165.896 163.85C165.318 165.429 166.169 167.2 167.797 167.804L182.241 173.164C183.869 173.768 185.658 172.977 186.236 171.398C186.813 169.817 185.963 168.048 184.335 167.444Z" fill="#429FDD"/>
<path d="M176.024 144.606L162.096 150.793C160.526 151.491 159.858 153.318 160.603 154.875C161.348 156.432 163.225 157.129 164.794 156.432L178.722 150.244C180.291 149.547 180.96 147.719 180.216 146.162C179.471 144.605 177.593 143.908 176.024 144.606Z" fill="#F7B24D"/>
<path d="M64.9014 121.158L56.2177 108.701C54.5744 106.344 50.9975 106.344 49.3543 108.701L40.6706 121.158C38.8093 123.828 40.781 127.43 44.1018 127.43L61.4692 127.43C64.7919 127.43 66.7627 123.828 64.9014 121.158Z" stroke="#3F568E" stroke-width="2" stroke-miterlimit="10" stroke-linecap="round" stroke-linejoin="round"/>
<path d="M67.6891 160.131L57.0073 144.806C54.9867 141.907 50.5857 141.907 48.5651 144.806L37.8833 160.131C35.5948 163.415 38.0191 167.847 42.1044 167.847L63.468 167.847C67.5542 167.847 69.9786 163.415 67.6891 160.131Z" fill="#F7B24D"/>
<path d="M61.8183 82.6064L55.3439 73.3182C54.119 71.5605 51.4522 71.5605 50.2273 73.3182L43.753 82.6064C42.3658 84.5964 43.8351 87.2827 46.3113 87.2827L59.2591 87.2827C61.7362 87.2827 63.2055 84.5964 61.8183 82.6064Z" fill="#EE4D4D"/>
<path d="M205.159 248.711H167.774V396.712H205.159V248.711Z" fill="#2583C2"/>
<path d="M205.159 396.713C205.159 402.822 196.79 407.774 186.466 407.774C176.142 407.774 167.773 402.822 167.773 396.713H205.159Z" fill="#2583C2"/>
<path d="M205.158 248.711C205.158 254.82 196.789 259.773 186.465 259.773C176.141 259.773 167.772 254.82 167.772 248.711H205.158Z" fill="#18567F"/>
<path d="M197.442 310.036C197.442 310.053 197.434 310.114 197.416 310.217C197.399 310.321 197.382 310.433 197.364 310.554C197.364 310.675 197.356 310.787 197.339 310.891C197.321 311.012 197.313 311.081 197.313 311.098C197.313 311.184 197.295 311.314 197.261 311.487C197.244 311.659 197.149 311.746 196.976 311.746H194.696C194.765 312.039 194.921 312.376 195.162 312.756C195.421 313.136 195.68 313.585 195.94 314.103C196.199 314.621 196.415 315.2 196.587 315.839C196.76 316.478 196.803 317.212 196.717 318.041C196.458 319.319 196.147 320.243 195.784 320.813C195.439 321.383 195.05 321.685 194.618 321.72C194.204 321.755 193.755 321.573 193.271 321.176C192.788 320.796 192.287 320.286 191.769 319.647C191.268 319.008 190.767 318.292 190.266 317.497C189.765 316.72 189.273 315.951 188.789 315.191C188.323 314.449 187.882 313.766 187.468 313.145C187.053 312.523 186.682 312.057 186.354 311.746C186.233 312.022 186.034 312.419 185.758 312.937C185.499 313.473 185.205 314.051 184.877 314.673C184.566 315.312 184.229 315.969 183.867 316.642C183.504 317.333 183.167 317.981 182.856 318.585C182.563 319.19 182.295 319.734 182.053 320.217C181.829 320.701 181.682 321.046 181.613 321.254C181.527 321.426 181.449 321.59 181.38 321.746C181.293 321.867 181.216 321.979 181.147 322.083C181.077 322.204 181.008 322.264 180.939 322.264C180.87 322.264 180.775 322.238 180.654 322.186C180.533 322.152 180.421 322.091 180.318 322.005C180.214 321.919 180.119 321.824 180.033 321.72C179.963 321.634 179.929 321.547 179.929 321.461C179.929 321.426 179.929 321.383 179.929 321.331C179.946 321.297 179.955 321.271 179.955 321.254C179.972 321.219 180.024 321.098 180.11 320.891C180.214 320.701 180.326 320.494 180.447 320.269C180.568 320.062 180.672 319.855 180.758 319.647C180.862 319.457 180.922 319.336 180.939 319.285C181.008 319.095 181.138 318.784 181.328 318.352C181.535 317.938 181.76 317.463 182.001 316.927C182.261 316.409 182.537 315.856 182.831 315.269C183.124 314.682 183.4 314.121 183.66 313.585C183.919 313.067 184.143 312.592 184.333 312.16C184.523 311.746 184.635 311.443 184.67 311.253H176.742V310.088L197.442 310.036ZM192.986 311.746C192.675 311.711 192.313 311.677 191.898 311.642C191.484 311.608 191.052 311.564 190.603 311.513C190.154 311.478 189.705 311.443 189.256 311.409C188.806 311.392 188.392 311.383 188.012 311.383C188.098 311.452 188.245 311.694 188.452 312.108C188.66 312.523 188.919 313.024 189.23 313.611C189.54 314.198 189.886 314.829 190.266 315.502C190.646 316.193 191.034 316.841 191.432 317.445C191.846 318.05 192.252 318.577 192.649 319.026C193.047 319.492 193.409 319.786 193.737 319.906C194.083 320.045 194.394 319.976 194.67 319.699C194.946 319.44 195.162 318.887 195.318 318.041C195.352 317.575 195.326 317.039 195.24 316.435C195.154 315.848 195.007 315.252 194.8 314.647C194.592 314.06 194.333 313.507 194.022 312.989C193.729 312.471 193.383 312.057 192.986 311.746ZM182.001 323.793C181.984 323.706 181.958 323.577 181.924 323.404C181.889 323.231 181.881 323.05 181.898 322.86C181.915 322.67 181.967 322.506 182.053 322.368C182.14 322.212 182.286 322.134 182.494 322.134C182.615 322.134 182.701 322.16 182.753 322.212C182.805 322.264 182.882 322.35 182.986 322.471C183.297 322.851 183.694 323.171 184.178 323.43C184.679 323.706 185.205 323.957 185.758 324.181C186.328 324.406 186.889 324.639 187.442 324.881C188.012 325.14 188.521 325.433 188.971 325.761C189.42 326.09 189.782 326.496 190.059 326.979C190.335 327.463 190.465 328.059 190.447 328.767C190.447 329.06 190.378 329.388 190.24 329.751C190.102 330.114 189.912 330.451 189.67 330.762C189.445 331.072 189.169 331.332 188.841 331.539C188.513 331.746 188.15 331.85 187.753 331.85C187.615 331.936 187.416 331.85 187.157 331.591C186.898 331.349 186.613 331.012 186.302 330.58C186.008 330.148 185.698 329.656 185.369 329.104C185.059 328.568 184.765 328.05 184.489 327.549C184.212 327.048 183.97 326.608 183.763 326.228C183.556 325.848 183.4 325.597 183.297 325.477C183.124 325.39 182.926 325.321 182.701 325.269C182.476 325.217 182.261 325.174 182.053 325.14C181.863 325.122 181.682 325.105 181.509 325.088C181.354 325.088 181.233 325.088 181.147 325.088C180.818 325.088 180.456 325.071 180.058 325.036C179.661 325.019 179.281 325.036 178.919 325.088C178.573 325.157 178.279 325.304 178.038 325.528C177.813 325.753 177.701 326.133 177.701 326.668C177.701 327.238 177.839 327.774 178.115 328.274C178.409 328.775 178.763 329.242 179.178 329.673C179.592 330.105 180.041 330.494 180.525 330.839C181.008 331.202 181.457 331.522 181.872 331.798C182.304 332.091 182.658 332.351 182.934 332.575C183.21 332.8 183.349 332.99 183.349 333.145C183.349 333.318 183.314 333.499 183.245 333.689C183.193 333.896 183.055 334 182.831 334C182.52 334 182.148 333.87 181.716 333.611C181.285 333.37 180.827 333.041 180.343 332.627C179.86 332.23 179.376 331.763 178.893 331.228C178.426 330.71 178.003 330.183 177.623 329.648C177.26 329.112 176.958 328.585 176.716 328.067C176.492 327.549 176.38 327.091 176.38 326.694C176.38 325.917 176.57 325.33 176.95 324.932C177.33 324.535 177.805 324.25 178.374 324.078C178.944 323.922 179.549 323.836 180.188 323.818C180.844 323.818 181.449 323.81 182.001 323.793ZM188.996 328.559C188.996 328.266 188.85 327.955 188.556 327.627C188.28 327.299 187.934 326.988 187.52 326.694C187.122 326.418 186.708 326.185 186.276 325.995C185.862 325.822 185.516 325.736 185.24 325.736C185.24 325.995 185.335 326.366 185.525 326.85C185.732 327.35 185.983 327.843 186.276 328.326C186.57 328.81 186.881 329.233 187.209 329.596C187.537 329.958 187.848 330.14 188.141 330.14C188.297 330.14 188.426 330.079 188.53 329.958C188.634 329.838 188.72 329.691 188.789 329.518C188.858 329.363 188.91 329.199 188.945 329.026C188.979 328.853 188.996 328.698 188.996 328.559ZM177.079 342.653C177.528 342.567 178.064 342.489 178.685 342.42C179.324 342.368 179.963 342.308 180.602 342.238C181.259 342.169 181.872 342.083 182.442 341.979C183.012 341.893 183.478 341.755 183.841 341.565C182.045 340.684 180.628 339.907 179.592 339.233C178.573 338.56 177.839 337.964 177.39 337.446C176.958 336.945 176.751 336.522 176.768 336.176C176.785 335.831 176.941 335.546 177.235 335.321C177.528 335.097 177.9 334.933 178.349 334.829C178.815 334.743 179.247 334.682 179.644 334.648C180.024 334.648 180.559 334.734 181.25 334.907C181.941 335.079 182.692 335.313 183.504 335.606C184.333 335.9 185.171 336.245 186.017 336.643C186.863 337.057 187.632 337.497 188.323 337.964C189.014 338.43 189.584 338.914 190.033 339.415C190.482 339.915 190.706 340.416 190.706 340.917C190.827 341.66 190.663 342.204 190.214 342.549C189.782 342.912 189.048 342.981 188.012 342.757C186.872 342.757 185.896 342.8 185.084 342.886C184.273 342.99 183.495 343.093 182.753 343.197C182.01 343.318 181.233 343.422 180.421 343.508C179.609 343.612 178.634 343.663 177.494 343.663C177.286 343.663 177.105 343.637 176.95 343.586C176.811 343.551 176.742 343.344 176.742 342.964C176.742 342.912 176.785 342.843 176.872 342.757C176.958 342.688 177.027 342.653 177.079 342.653ZM188.66 341.254C188.936 341.064 188.962 340.805 188.737 340.477C188.513 340.149 188.141 339.803 187.623 339.441C187.105 339.078 186.483 338.706 185.758 338.326C185.033 337.947 184.299 337.592 183.556 337.264C182.813 336.936 182.105 336.651 181.432 336.409C180.775 336.168 180.231 336.003 179.799 335.917C179.178 335.917 178.824 336.012 178.737 336.202C178.668 336.392 178.772 336.625 179.048 336.902C179.324 337.178 179.722 337.489 180.24 337.834C180.758 338.197 181.311 338.542 181.898 338.871C182.485 339.216 183.055 339.535 183.608 339.829C184.16 340.14 184.609 340.382 184.955 340.555C185.318 340.71 185.654 340.831 185.965 340.917C186.276 341.004 186.57 341.073 186.846 341.124C187.14 341.194 187.433 341.228 187.727 341.228C188.021 341.245 188.331 341.254 188.66 341.254ZM181.147 350.684C180.749 350.512 180.292 350.287 179.773 350.011C179.255 349.752 178.763 349.441 178.297 349.078C177.83 348.733 177.433 348.327 177.105 347.86C176.777 347.394 176.613 346.876 176.613 346.306C176.613 346.047 176.639 345.84 176.69 345.684C176.76 345.546 176.855 345.416 176.975 345.296C177.096 345.192 177.243 345.088 177.416 344.985C177.589 344.898 177.779 344.786 177.986 344.648C178.832 344.596 179.739 344.561 180.706 344.544C181.691 344.544 182.666 344.596 183.634 344.7C184.618 344.803 185.542 344.976 186.406 345.218C187.269 345.477 188.003 345.831 188.608 346.28C189.212 346.746 189.644 347.325 189.903 348.016C190.162 348.707 190.18 349.544 189.955 350.529C190.439 350.581 191.086 350.589 191.898 350.555C192.71 350.52 193.565 350.468 194.463 350.399C195.361 350.33 196.225 350.261 197.054 350.192C197.9 350.123 198.591 350.08 199.126 350.062C199.282 350.062 199.394 350.132 199.463 350.27C199.549 350.425 199.601 350.589 199.618 350.762C199.636 350.935 199.636 351.099 199.618 351.254C199.601 351.427 199.575 351.539 199.541 351.591C197.416 351.556 195.326 351.548 193.271 351.565C191.233 351.582 189.195 351.6 187.157 351.617C185.136 351.651 183.124 351.686 181.121 351.721C179.117 351.755 177.114 351.772 175.11 351.772C174.92 351.772 174.722 351.755 174.514 351.721C174.29 351.703 174.177 351.556 174.177 351.28C174.177 351.176 174.212 351.073 174.281 350.969C174.333 350.866 174.419 350.797 174.54 350.762L181.147 350.684ZM188.66 349.57C188.694 349.035 188.478 348.534 188.012 348.068C187.563 347.619 186.976 347.221 186.25 346.876C185.525 346.548 184.722 346.28 183.841 346.073C182.977 345.865 182.14 345.736 181.328 345.684C180.533 345.65 179.825 345.701 179.203 345.84C178.582 345.995 178.159 346.263 177.934 346.643C177.934 347.023 178.081 347.377 178.374 347.705C178.685 348.033 179.074 348.335 179.54 348.612C180.007 348.888 180.525 349.13 181.095 349.337C181.682 349.544 182.243 349.717 182.779 349.855C183.314 350.011 183.798 350.123 184.229 350.192C184.679 350.278 185.015 350.322 185.24 350.322C185.413 350.322 185.689 350.33 186.069 350.347C186.449 350.365 186.829 350.356 187.209 350.322C187.589 350.287 187.926 350.209 188.219 350.088C188.513 349.985 188.66 349.812 188.66 349.57ZM133.924 310.088C135.046 310.088 136.229 310.062 137.473 310.01C138.716 309.975 139.969 309.932 141.229 309.88C142.508 309.846 143.76 309.837 144.986 309.854C146.212 309.872 147.361 309.949 148.432 310.088C148.449 310.122 148.458 310.2 148.458 310.321C148.475 310.459 148.484 310.554 148.484 310.606C148.484 310.848 148.44 311.038 148.354 311.176C148.285 311.331 148.121 311.409 147.862 311.409C146.843 311.409 145.729 311.4 144.52 311.383C143.328 311.383 142.11 311.374 140.867 311.357C139.641 311.357 138.423 311.357 137.214 311.357C136.005 311.357 134.908 311.374 133.924 311.409C133.63 311.426 133.44 311.366 133.354 311.228C133.25 311.107 133.198 310.951 133.198 310.761C133.198 310.554 133.25 310.381 133.354 310.243C133.44 310.105 133.63 310.053 133.924 310.088ZM152.473 309.518C152.68 309.518 152.819 309.587 152.888 309.725C152.957 309.863 152.991 310.019 152.991 310.191C152.991 310.537 152.879 310.753 152.655 310.839C152.43 310.925 152.171 310.968 151.877 310.968C151.687 310.865 151.549 310.735 151.463 310.58C151.394 310.424 151.376 310.26 151.411 310.088C151.463 309.932 151.575 309.794 151.748 309.673C151.921 309.569 152.162 309.518 152.473 309.518ZM133.742 314.285C136.074 314.095 138.406 313.922 140.737 313.766C143.086 313.628 145.521 313.473 148.043 313.3C148.458 313.3 148.665 313.525 148.665 313.974V314.181C148.665 314.233 148.596 314.293 148.458 314.362C148.319 314.431 148.06 314.5 147.68 314.57C147.318 314.656 146.756 314.742 145.996 314.829C145.254 314.932 144.278 315.053 143.069 315.191C141.86 315.33 140.349 315.485 138.535 315.658C139.71 316.02 140.85 316.305 141.955 316.513C143.06 316.72 144.062 316.988 144.96 317.316C145.876 317.644 146.679 318.102 147.37 318.689C148.06 319.293 148.57 320.157 148.898 321.28C148.794 321.901 148.414 322.402 147.758 322.782C147.119 323.162 146.325 323.464 145.375 323.689C144.425 323.913 143.388 324.069 142.266 324.155C141.16 324.242 140.098 324.293 139.079 324.311C138.06 324.328 137.145 324.337 136.333 324.337C135.539 324.337 134.969 324.354 134.623 324.388C134.485 324.337 134.364 324.259 134.26 324.155C134.157 324.052 134.079 323.931 134.027 323.793C133.993 323.672 133.984 323.551 134.001 323.43C134.036 323.309 134.131 323.197 134.286 323.093C134.476 323.093 134.865 323.076 135.452 323.041C136.039 323.007 136.722 322.964 137.499 322.912C138.293 322.86 139.131 322.799 140.012 322.73C140.91 322.679 141.748 322.627 142.525 322.575C143.319 322.54 144.01 322.506 144.597 322.471C145.185 322.437 145.573 322.411 145.763 322.394C146.402 322.031 146.765 321.668 146.851 321.305C146.938 320.96 146.825 320.606 146.515 320.243C146.204 319.898 145.729 319.561 145.09 319.233C144.451 318.905 143.725 318.594 142.913 318.3C142.119 318.007 141.281 317.73 140.4 317.471C139.52 317.212 138.665 316.988 137.836 316.798C137.024 316.608 136.281 316.444 135.608 316.305C134.951 316.184 134.442 316.107 134.079 316.072C133.958 316.02 133.837 315.908 133.716 315.735C133.613 315.58 133.535 315.407 133.483 315.217C133.431 315.045 133.414 314.863 133.431 314.673C133.466 314.5 133.57 314.371 133.742 314.285ZM123.276 327.808C123.362 329.328 123.759 330.52 124.468 331.383C125.176 332.264 126.091 332.921 127.214 333.352C128.336 333.784 129.623 334.043 131.074 334.13C132.507 334.216 133.993 334.225 135.53 334.155C137.067 334.086 138.604 333.983 140.141 333.845C141.696 333.724 143.138 333.672 144.468 333.689C142.292 332.946 140.53 332.247 139.183 331.591C137.853 330.934 136.843 330.321 136.152 329.751C135.478 329.199 135.064 328.689 134.908 328.223C134.77 327.774 134.796 327.376 134.986 327.031C135.193 326.686 135.513 326.401 135.944 326.176C136.393 325.969 136.851 325.822 137.318 325.736C138.112 325.77 138.984 325.926 139.934 326.202C140.901 326.496 141.843 326.867 142.758 327.316C143.691 327.782 144.554 328.318 145.349 328.922C146.161 329.527 146.791 330.166 147.24 330.839C147.706 331.513 147.948 332.212 147.965 332.938C148 333.663 147.724 334.363 147.136 335.036C147.119 335.054 146.886 335.079 146.437 335.114C146.005 335.166 145.426 335.218 144.701 335.269C143.993 335.339 143.19 335.408 142.292 335.477C141.411 335.563 140.513 335.641 139.597 335.71C138.699 335.779 137.836 335.839 137.007 335.891C136.178 335.943 135.461 335.995 134.856 336.047C133.872 336.116 132.827 336.073 131.722 335.917C130.616 335.779 129.545 335.554 128.509 335.244C127.455 334.933 126.471 334.535 125.556 334.052C124.64 333.585 123.889 333.041 123.302 332.42C122.714 331.815 122.343 331.133 122.188 330.373C122.015 329.63 122.145 328.836 122.576 327.99C122.576 327.938 122.585 327.86 122.602 327.756C122.602 327.653 122.628 327.566 122.68 327.497C122.732 327.445 122.801 327.437 122.887 327.471C122.974 327.506 123.103 327.618 123.276 327.808ZM137.499 327.083C136.963 327.255 136.687 327.48 136.67 327.756C136.67 328.05 136.851 328.361 137.214 328.689C137.594 329.017 138.121 329.371 138.794 329.751C139.468 330.148 140.202 330.537 140.996 330.917C141.791 331.297 142.603 331.668 143.432 332.031C144.278 332.411 145.064 332.765 145.789 333.093C145.979 333.093 146.152 333.05 146.307 332.964C146.48 332.877 146.532 332.687 146.463 332.394C146.359 331.91 146.126 331.435 145.763 330.969C145.401 330.52 144.952 330.097 144.416 329.699C143.898 329.319 143.319 328.965 142.68 328.637C142.059 328.326 141.428 328.05 140.789 327.808C140.167 327.584 139.571 327.402 139.001 327.264C138.432 327.143 137.931 327.083 137.499 327.083Z" fill="white"/>
<path d="M195.082 381.095H190.31L193.684 377.821L192.722 376.887L189.348 380.161V375.531H187.987V380.161L184.613 376.887L183.65 377.821L187.025 381.095H182.252V382.415H187.025L183.65 385.69L184.613 386.623L187.987 383.349V387.98H189.348V383.349L192.722 386.623L193.684 385.69L190.31 382.415H195.082V381.095Z" fill="white"/>
<path d="M195.082 274.144H190.31L193.684 270.869L192.722 269.936L189.348 273.211V268.58H187.987V273.211L184.613 269.936L183.65 270.869L187.025 274.144H182.252V275.465H187.025L183.65 278.739L184.613 279.672L187.987 276.398V281.029H189.348V276.398L192.722 279.672L193.684 278.739L190.31 275.465H195.082V274.144Z" fill="white"/>
<path d="M167.771 248.711V396.712L57.9603 371.029C55.0502 370.348 53 367.822 53 364.918V229.849C53 225.782 56.9209 222.785 60.9964 223.738L167.771 248.711Z" fill="#2583C2"/>
<mask id="mask0_4967_1432" style="mask-type:luminance" maskUnits="userSpaceOnUse" x="53" y="223" width="115" height="174">
<path d="M167.771 248.711V396.712L57.9603 371.029C55.0502 370.348 53 367.822 53 364.918V229.849C53 225.782 56.9209 222.785 60.9964 223.738L167.771 248.711Z" fill="white"/>
</mask>
<g mask="url(#mask0_4967_1432)">
<path d="M182.47 305.597V249.471L174.524 247.707V308.085L153.777 303.479V243.102L145.831 241.337V297.463L50.2534 225.501V234.29L67.9615 247.623L137.286 299.818L119.86 295.949L50.2534 243.541V252.33L103.305 292.274L50.2534 280.496V288.206L134.383 306.883L151.809 310.752L153.777 311.189L174.524 315.795L176.493 316.232L193.918 320.101L278.048 338.779V331.068L224.996 319.29L278.048 302.902V294.114L208.441 315.615L191.016 311.746L278.048 284.862V276.073L182.47 305.597Z" fill="white"/>
<path d="M193.919 342.457L176.493 338.589L174.524 338.151L153.777 333.546L151.809 333.108L134.383 329.24L50.2537 310.562V318.273L103.306 330.051L50.2537 346.438V355.227L119.86 333.726L137.285 337.594L50.2537 364.478V373.267L145.832 343.743V399.869L153.777 401.634V341.256L174.524 345.861V406.239L182.471 408.004V351.878L278.048 423.84V415.05L240.977 387.14L191.016 349.523L208.441 353.391L261.747 393.526L278.048 405.799V397.011L224.997 357.067L278.048 368.845V361.134L193.919 342.457Z" fill="white"/>
<path d="M50.2534 234.291V243.541L119.86 295.95L137.286 299.818L50.2534 234.291Z" fill="#EE4D4D"/>
<path d="M119.86 333.726L50.2534 355.227V364.479L137.285 337.595L119.86 333.726Z" fill="#EE4D4D"/>
<path d="M278.048 338.779V361.135L174.524 338.152V406.239L153.777 401.634V333.546L50.2534 310.563V288.206L153.777 311.189V243.102L174.524 247.707V315.795L278.048 338.779Z" fill="#EE4D4D"/>
</g>
<path d="M162.498 247.479V395.48L167.771 396.713V248.712L162.498 247.479Z" fill="#D51E1E"/>
<path d="M205.158 248.711V396.712L314.969 371.029C317.879 370.348 319.929 367.822 319.929 364.918V229.849C319.929 225.782 316.008 222.785 311.933 223.738L205.158 248.711Z" fill="#2583C2"/>
<path d="M217.374 382.059C217.283 382.059 217.194 382.029 217.121 381.973C217.023 381.899 216.966 381.784 216.966 381.664V258.049C216.966 257.865 217.095 257.707 217.277 257.664L307.616 236.535C307.738 236.505 307.865 236.535 307.963 236.609C308.061 236.684 308.119 236.799 308.119 236.919V360.534C308.119 360.717 307.99 360.876 307.807 360.919L217.468 382.047C217.437 382.055 217.405 382.059 217.374 382.059ZM217.781 258.359V381.162L307.305 360.224V237.42L217.781 258.359Z" fill="#FAFCFF"/>
<path d="M210.025 247.573L205.157 248.711V396.713L210.025 395.574V247.573Z" fill="#18567F"/>
<path d="M286.151 276.091C283.724 274.345 280.801 273.718 278.032 274.113C275.263 274.508 272.65 275.925 270.849 278.274L269.405 280.165L267.455 278.758C265.034 277.011 262.111 276.385 259.342 276.78C256.573 277.175 253.96 278.591 252.159 280.941C248.558 285.645 249.565 292.289 254.409 295.789L256.352 297.191L273.904 309.855L286.957 292.83L288.401 290.939C292.001 286.234 290.995 279.591 286.151 276.091Z" fill="#EE4D4D"/>
<path d="M228.579 339.003C228.579 338.836 228.63 338.709 228.731 338.622C228.853 338.509 228.984 338.436 229.126 338.402C229.288 338.342 229.45 338.302 229.612 338.284C229.794 338.261 229.946 338.234 230.068 338.205C230.169 338.43 230.25 338.911 230.311 339.646C230.392 340.356 230.462 341.234 230.523 342.282C230.604 343.304 230.655 344.448 230.675 345.714C230.715 346.975 230.746 348.259 230.766 349.567C230.807 350.849 230.827 352.115 230.827 353.365C230.847 354.61 230.857 355.753 230.857 356.795C230.877 357.811 230.888 358.683 230.888 359.412V360.819C230.867 361.24 230.776 361.512 230.614 361.635C230.473 361.732 230.128 361.763 229.582 361.729C229.521 361.723 229.47 361.422 229.43 360.828C229.389 360.234 229.359 359.449 229.339 358.475C229.318 357.48 229.298 356.349 229.278 355.084C229.258 353.797 229.237 352.479 229.217 351.13C229.197 349.78 229.167 348.433 229.126 347.089C229.106 345.74 229.075 344.518 229.035 343.424C228.994 342.308 228.934 341.365 228.853 340.593C228.792 339.795 228.701 339.265 228.579 339.003ZM233.955 360.232C233.955 358.545 233.965 356.886 233.986 355.256C234.006 353.626 233.996 352.014 233.955 350.42C233.915 348.825 233.834 347.241 233.712 345.666C233.591 344.07 233.408 342.469 233.166 340.861C233.166 340.819 233.135 340.743 233.074 340.633C233.034 340.518 232.993 340.402 232.953 340.287C232.912 340.151 232.872 340.036 232.831 339.942C232.791 339.847 232.771 339.779 232.771 339.738C232.771 339.633 232.801 339.501 232.862 339.341C232.943 339.175 233.034 339.018 233.135 338.868C233.257 338.693 233.388 338.546 233.53 338.429C233.672 338.311 233.813 338.246 233.955 338.232C234.198 338.236 234.391 338.345 234.532 338.561C234.694 338.772 234.816 339.024 234.897 339.316C234.978 339.589 235.028 339.868 235.049 340.155C235.089 340.437 235.109 340.64 235.109 340.765C235.717 340.285 236.395 339.766 237.144 339.21C237.914 338.627 238.693 338.085 239.483 337.581C240.293 337.051 241.093 336.587 241.882 336.187C242.692 335.762 243.451 335.463 244.16 335.292C244.16 335.479 244.12 335.656 244.039 335.821C243.978 335.982 243.846 336.139 243.644 336.292L235.109 342.765V343.984C235.13 344.208 235.15 344.599 235.17 345.157C235.211 345.709 235.251 346.304 235.292 346.94C235.332 347.555 235.362 348.152 235.383 348.73C235.423 349.283 235.454 349.661 235.474 349.864L241.73 344.755L241.882 344.531C241.983 344.381 242.115 344.235 242.277 344.092C242.439 343.948 242.601 343.857 242.763 343.818C242.945 343.753 243.117 343.815 243.279 344.005C243.279 344.38 243.097 344.789 242.733 345.231C242.368 345.674 241.913 346.138 241.366 346.625C240.819 347.111 240.222 347.6 239.574 348.09C238.946 348.575 238.359 349.04 237.812 349.485C237.266 349.93 236.81 350.353 236.446 350.754C236.081 351.155 235.899 351.49 235.899 351.761V357.792C236.162 357.833 236.527 357.703 236.992 357.403C237.478 357.077 238.015 356.665 238.602 356.169C239.189 355.673 239.797 355.119 240.424 354.509C241.052 353.878 241.66 353.283 242.247 352.724C242.854 352.16 243.411 351.65 243.917 351.194C244.444 350.733 244.879 350.43 245.223 350.284C245.426 350.235 245.608 350.233 245.77 350.277C245.932 350.321 246.013 350.468 246.013 350.718C246.013 350.968 245.871 351.2 245.588 351.415C244.879 352.024 244.059 352.775 243.127 353.667C242.216 354.533 241.285 355.415 240.333 356.312C239.382 357.189 238.44 358.01 237.509 358.778C236.598 359.519 235.808 360.054 235.14 360.383C234.876 360.446 234.664 360.477 234.502 360.475C234.34 360.472 234.158 360.391 233.955 360.232ZM248.017 356.42C247.977 353.784 247.926 351.536 247.866 349.676C247.825 347.79 247.785 346.206 247.744 344.924C247.704 343.642 247.653 342.633 247.592 341.898C247.552 341.137 247.521 340.53 247.501 340.076C247.481 339.623 247.461 339.305 247.44 339.122C247.42 338.919 247.41 338.723 247.41 338.536C247.41 338.182 247.511 337.938 247.714 337.806C247.916 337.653 248.169 337.539 248.473 337.466C248.817 337.383 249.08 337.392 249.263 337.493C249.465 337.569 249.566 337.889 249.566 338.451L250.143 355.124C250.164 355.119 250.265 355.074 250.447 354.988C250.629 354.902 250.842 354.788 251.085 354.646C251.328 354.504 251.581 354.359 251.844 354.212C252.107 354.044 252.32 353.899 252.482 353.776C252.725 353.613 253.089 353.358 253.575 353.011C254.061 352.665 254.608 352.272 255.216 351.833C255.823 351.394 256.461 350.938 257.129 350.463C257.817 349.963 258.465 349.504 259.073 349.086C259.7 348.643 260.247 348.25 260.713 347.908C261.199 347.54 261.563 347.275 261.806 347.112L262.171 347.023C262.292 346.994 262.414 346.975 262.535 346.966C262.657 346.958 262.758 346.985 262.839 347.049C262.92 347.113 262.97 347.226 262.991 347.387C262.991 347.596 262.95 347.783 262.869 347.948C262.809 348.109 262.717 348.297 262.596 348.514C261.401 349.033 260.227 349.734 259.073 350.618C257.939 351.496 256.805 352.396 255.671 353.316C254.557 354.232 253.424 355.079 252.269 355.859C251.136 356.634 249.971 357.166 248.777 357.455C248.27 357.577 248.017 357.233 248.017 356.42ZM272.376 332.146C271.728 332.303 271.07 332.524 270.401 332.811C269.754 333.093 269.106 333.396 268.458 333.72C267.81 334.022 267.162 334.315 266.514 334.597C265.866 334.878 265.208 335.1 264.54 335.262C264.337 335.311 264.125 335.342 263.902 335.354C263.699 335.341 263.598 335.178 263.598 334.865C263.598 334.657 263.679 334.429 263.841 334.181C264.023 333.908 264.216 333.736 264.418 333.667L272.558 330.477C272.578 330.388 272.609 330.256 272.649 330.079C272.69 329.882 272.74 329.693 272.801 329.511C272.882 329.304 272.983 329.124 273.105 328.969C273.226 328.794 273.368 328.687 273.53 328.647C273.773 328.589 273.965 328.604 274.107 328.695C274.249 328.786 274.37 328.902 274.471 329.044C274.573 329.166 274.664 329.279 274.745 329.384C274.826 329.49 274.927 329.528 275.048 329.498L275.291 329.439C275.494 329.37 275.818 329.26 276.263 329.11C276.709 328.94 277.215 328.755 277.782 328.555C278.369 328.35 278.987 328.138 279.635 327.919C280.282 327.679 280.9 327.467 281.487 327.283C282.074 327.078 282.591 326.901 283.036 326.751C283.482 326.581 283.806 326.45 284.008 326.36C284.069 326.345 284.211 326.311 284.433 326.257C284.676 326.177 284.848 326.125 284.95 326.1C284.95 326.496 284.737 326.881 284.312 327.255C283.907 327.603 283.38 327.949 282.732 328.294C282.105 328.612 281.396 328.919 280.606 329.215C279.837 329.484 279.078 329.741 278.329 329.985C277.6 330.224 276.921 330.441 276.294 330.634C275.686 330.823 275.221 330.988 274.897 331.129C274.816 332.628 274.846 334.162 274.988 335.732C275.15 337.297 275.342 338.865 275.565 340.436C275.808 342.002 276.03 343.563 276.233 345.118C276.435 346.673 276.537 348.18 276.537 349.638C276.618 349.91 276.648 350.132 276.628 350.303C276.628 350.47 276.577 350.597 276.476 350.684C276.375 350.771 276.223 350.839 276.02 350.888C275.818 350.937 275.575 350.985 275.291 351.033C275.089 350.332 274.907 349.501 274.745 348.541C274.603 347.554 274.471 346.503 274.35 345.386C274.228 344.249 274.107 343.081 273.985 341.881C273.884 340.676 273.783 339.482 273.682 338.298C273.58 337.114 273.469 335.985 273.348 334.91C273.226 333.836 273.084 332.87 272.922 332.013L272.376 332.146ZM285.436 347.108C285.476 346.89 285.729 346.63 286.195 346.33C286.661 346.03 287.238 345.692 287.926 345.317C288.615 344.942 289.374 344.529 290.204 344.078C291.034 343.627 291.834 343.152 292.603 342.653C293.373 342.154 294.071 341.631 294.699 341.083C295.347 340.53 295.823 339.957 296.127 339.362C296.127 339.05 295.924 338.859 295.519 338.791C295.134 338.717 294.608 338.709 293.94 338.767C293.292 338.799 292.543 338.886 291.692 339.03C290.862 339.148 290.002 339.252 289.111 339.343C288.24 339.408 287.379 339.449 286.529 339.468C285.699 339.461 284.95 339.361 284.281 339.168C283.634 338.95 283.107 338.609 282.702 338.145C282.317 337.675 282.125 337.034 282.125 336.222C282.125 335.409 282.297 334.566 282.641 333.691C282.986 332.795 283.441 331.903 284.008 331.016C284.595 330.124 285.253 329.266 285.982 328.444C286.731 327.617 287.511 326.865 288.321 326.19C289.131 325.515 289.931 324.946 290.72 324.484C291.53 324.017 292.279 323.7 292.968 323.533C293.15 323.489 293.342 323.443 293.545 323.394C293.747 323.324 293.919 323.293 294.061 323.3C294.223 323.281 294.355 323.322 294.456 323.423C294.557 323.523 294.608 323.699 294.608 323.949C294.608 324.553 294.416 325.037 294.031 325.401C293.646 325.744 293.18 325.982 292.634 326.114L291.449 325.526C290.984 325.639 290.467 325.899 289.9 326.308C289.354 326.711 288.787 327.213 288.199 327.813C287.633 328.388 287.076 329.033 286.529 329.749C285.982 330.465 285.496 331.187 285.071 331.915C284.666 332.638 284.332 333.344 284.069 334.032C283.826 334.716 283.704 335.308 283.704 335.808C283.704 336.537 283.897 337.085 284.281 337.45C284.686 337.789 285.213 338.016 285.861 338.13C286.529 338.218 287.288 338.221 288.139 338.14C288.989 338.06 289.85 337.955 290.72 337.828C291.591 337.7 292.452 337.575 293.302 337.452C294.152 337.309 294.902 337.253 295.549 337.283C296.218 337.309 296.744 337.431 297.129 337.651C297.534 337.865 297.736 338.243 297.736 338.785C297.959 339.064 297.908 339.462 297.584 339.978C297.281 340.468 296.795 341.013 296.127 341.612C295.479 342.186 294.699 342.802 293.788 343.46C292.897 344.092 291.976 344.701 291.024 345.285C290.072 345.849 289.151 346.364 288.26 346.83C287.369 347.275 286.61 347.604 285.982 347.819C285.8 347.863 285.638 347.84 285.496 347.749C285.375 347.654 285.355 347.44 285.436 347.108Z" fill="white"/>
<path d="M233.727 292.692C233.727 292.51 233.783 292.371 233.894 292.276C234.026 292.152 234.17 292.072 234.325 292.034C234.503 291.969 234.68 291.926 234.857 291.906C235.056 291.88 235.222 291.851 235.355 291.819C235.466 292.066 235.554 292.591 235.621 293.396C235.709 294.172 235.787 295.133 235.853 296.279C235.942 297.397 235.997 298.648 236.02 300.032C236.064 301.412 236.097 302.816 236.119 304.247C236.163 305.649 236.186 307.033 236.186 308.4C236.208 309.762 236.219 311.013 236.219 312.152C236.241 313.263 236.252 314.218 236.252 315.015V316.553C236.23 317.014 236.13 317.312 235.953 317.446C235.798 317.552 235.422 317.586 234.824 317.549C234.757 317.542 234.702 317.213 234.658 316.563C234.613 315.913 234.58 315.055 234.558 313.99C234.536 312.901 234.514 311.665 234.491 310.28C234.469 308.873 234.447 307.431 234.425 305.956C234.403 304.48 234.37 303.007 234.325 301.536C234.303 300.061 234.27 298.724 234.226 297.527C234.181 296.308 234.115 295.276 234.026 294.431C233.96 293.559 233.86 292.979 233.727 292.692Z" fill="white"/>
<path d="M319.928 329.593L275.064 380.363L314.968 371.03C317.878 370.349 319.928 367.823 319.928 364.919V329.593Z" fill="#18567F"/>
<path d="M322.36 372.513L295.903 363.807L293.02 373.726C292.058 377.037 294.01 380.619 297.381 381.728L311.633 386.418C315.003 387.527 318.515 385.743 319.478 382.432L322.36 372.513Z" fill="#EE4D4D"/>
<path d="M311.603 386.261L303.793 383.689C307.171 384.801 310.69 383.012 311.654 379.693L314.543 369.748L322.353 372.32L319.464 382.265C318.5 385.584 314.98 387.373 311.603 386.261Z" fill="#D51E1E"/>
<path d="M323.402 275.042L296.008 363.606L323.725 372.199L351.118 283.635L323.402 275.042Z" fill="#F7B24D"/>
<path d="M342.555 280.63L314.548 369.588L323.111 372.199L351.118 283.24L342.555 280.63Z" fill="#F17D53"/>
<path d="M298.26 356.59L296.007 363.886L322.759 372.194L325.012 364.898L298.26 356.59Z" fill="white"/>
<path d="M351.271 283.511L347.763 248.32C347.734 248.032 347.532 247.782 347.253 247.691C346.975 247.599 346.675 247.684 346.499 247.904L324.937 274.844L351.271 283.511Z" fill="#4A5972"/>
<path d="M349.298 264.466L351.195 283.494L324.771 274.8L336.435 260.234L349.298 264.466Z" fill="#F8E8C4"/>
<path d="M351.237 283.219L349.365 264.357L345.41 263.05L343.351 280.613L351.237 283.219Z" fill="#EACC8F"/>
<path d="M349.76 264.405L348.17 248.312C348.14 248.025 347.941 247.779 347.666 247.688L345.83 263.102L349.76 264.405Z" fill="#414141"/>
<path d="M325.005 406.335L327.023 411.638C327.101 411.841 327.266 412 327.474 412.075L332.939 414.034C333.604 414.272 333.604 415.185 332.939 415.423L327.474 417.381C327.266 417.456 327.101 417.616 327.023 417.819L325.005 423.121C324.76 423.767 323.82 423.767 323.574 423.121L321.555 417.819C321.478 417.616 321.313 417.456 321.104 417.381L315.639 415.423C314.974 415.185 314.974 414.272 315.639 414.034L321.104 412.075C321.313 412 321.478 411.84 321.555 411.638L323.574 406.335C323.82 405.69 324.76 405.69 325.005 406.335Z" stroke="#277CB5" stroke-width="2" stroke-miterlimit="10" stroke-linecap="round" stroke-linejoin="round"/>
<path d="M334.805 425.901L335.894 428.763C335.936 428.873 336.025 428.959 336.138 428.999L339.088 430.056C339.446 430.185 339.446 430.678 339.088 430.806L336.138 431.863C336.025 431.903 335.936 431.99 335.894 432.099L334.805 434.962C334.673 435.31 334.165 435.31 334.032 434.962L332.943 432.099C332.901 431.99 332.812 431.903 332.699 431.863L329.75 430.806C329.391 430.678 329.391 430.185 329.75 430.056L332.699 428.999C332.813 428.959 332.901 428.873 332.943 428.763L334.032 425.901C334.165 425.553 334.673 425.553 334.805 425.901Z" fill="#EE4D4D"/>
<path d="M313.016 427.395L315.337 433.494C315.426 433.727 315.615 433.911 315.856 433.997L322.141 436.25C322.905 436.524 322.905 437.572 322.141 437.846L315.856 440.099C315.615 440.185 315.426 440.369 315.337 440.602L313.016 446.701C312.733 447.442 311.652 447.442 311.37 446.701L309.049 440.602C308.96 440.369 308.77 440.185 308.53 440.099L302.245 437.846C301.48 437.572 301.48 436.524 302.245 436.25L308.53 433.997C308.77 433.911 308.96 433.727 309.049 433.494L311.37 427.395C311.652 426.653 312.733 426.653 313.016 427.395Z" fill="#F7B24D"/>
</svg>
