<svg width="398" height="475" viewBox="0 0 398 475" fill="none" xmlns="http://www.w3.org/2000/svg">
<g clip-path="url(#clip0_4967_8013)">
<path d="M340.39 142.25H71.33V286.27H340.39V142.25Z" fill="#FFD56D"/>
<path d="M180.2 259.46H165.01V266.4H180.2V259.46Z" fill="#E3AF58"/>
<path d="M145.51 266.42H130.32V273.36H145.51V266.42Z" fill="#E3AF58"/>
<path d="M161.55 227.91H146.36V234.85H161.55V227.91Z" fill="#E3AF58"/>
<path d="M310.71 209.72H295.52V216.66H310.71V209.72Z" fill="#E3AF58"/>
<path d="M105.81 238.67H90.62V245.61H105.81V238.67Z" fill="#E3AF58"/>
<path d="M113.95 229.75H98.76V236.69H113.95V229.75Z" fill="#E3AF58"/>
<path d="M94.42 261.8H79.23V268.74H94.42V261.8Z" fill="#E3AF58"/>
<path d="M102.62 269.89H87.4301V276.83H102.62V269.89Z" fill="#E3AF58"/>
<path d="M153.96 198.16H138.76V205.1H153.96V198.16Z" fill="#E3AF58"/>
<path d="M304.6 253.6H289.4V260.54H304.6V253.6Z" fill="#E3AF58"/>
<path d="M258.87 258.33H243.68V265.27H258.87V258.33Z" fill="#E3AF58"/>
<path d="M266.1 266.42H250.91V273.36H266.1V266.42Z" fill="#E3AF58"/>
<path d="M244.75 227.91H229.56V234.85H244.75V227.91Z" fill="#E3AF58"/>
<path d="M260.95 227.91H245.76V234.85H260.95V227.91Z" fill="#E3AF58"/>
<path d="M223.34 268.49H208.15V275.43H223.34V268.49Z" fill="#E3AF58"/>
<path d="M200.39 210.79H185.2V217.73H200.39V210.79Z" fill="#E3AF58"/>
<path d="M207.99 202.78H192.8V209.72H207.99V202.78Z" fill="#E3AF58"/>
<path d="M234.73 250.32H219.54V257.26H234.73V250.32Z" fill="#E3AF58"/>
<path d="M257.65 198.16H242.46V205.1H257.65V198.16Z" fill="#E3AF58"/>
<path d="M264.88 206.25H249.69V213.19H264.88V206.25Z" fill="#E3AF58"/>
<path d="M274.54 198.16H259.35V205.1H274.54V198.16Z" fill="#E3AF58"/>
<path d="M202.31 212.7H170.38V266.07H202.31V212.7Z" fill="#5A8DB9"/>
<path d="M198.62 215.6H174.05V263.15H198.62V215.6Z" fill="#7AAEDD"/>
<path d="M148.17 212.7H116.24V266.07H148.17V212.7Z" fill="#5A8DB9"/>
<path d="M144.49 215.6H119.92V263.15H144.49V215.6Z" fill="#7AAEDD"/>
<path d="M320.27 212.7H288.34V266.07H320.27V212.7Z" fill="#5A8DB9"/>
<path d="M316.58 215.6H292.01V263.15H316.58V215.6Z" fill="#7AAEDD"/>
<path d="M268.94 198.16H224.21V285.74H268.94V198.16Z" fill="#5A8DB9"/>
<path d="M263.8 202.46H229.34V281.43H263.8V202.46Z" fill="#7AAEDD"/>
<path d="M340.39 132.17H71.33L87.77 71.7002H317.96L340.39 132.17Z" fill="#BD362B"/>
<path d="M340.39 132.17H71.33V142.24H340.39V132.17Z" fill="#D94129"/>
<path d="M317.97 67H87.77V71.7H317.97V67Z" fill="#D94129"/>
<path d="M107.64 167.17H83.1L110.3 142.25H129.75L107.64 167.17Z" fill="#BD362B"/>
<path d="M156.75 167.17H132.2L149.2 142.25H168.66L156.75 167.17Z" fill="#BD362B"/>
<path d="M205.86 167.17H181.31L188.11 142.25H205.86V167.17Z" fill="#BD362B"/>
<path d="M254.96 167.17H230.41L225.31 142.25H244.76L254.96 167.17Z" fill="#BD362B"/>
<path d="M304.07 167.17H279.52L264.21 142.25H283.67L304.07 167.17Z" fill="#BD362B"/>
<path d="M132.2 167.17H107.64L129.75 142.25H149.2L132.2 167.17Z" fill="#D7D6D6"/>
<path d="M181.31 167.17H156.75L168.66 142.25H188.11L181.31 167.17Z" fill="#D7D6D6"/>
<path d="M230.41 167.17H205.86V142.25H225.31L230.41 167.17Z" fill="#D7D6D6"/>
<path d="M279.52 167.17H254.96L244.76 142.25H264.21L279.52 167.17Z" fill="#D7D6D6"/>
<path d="M328.62 167.17H304.07L283.66 142.25H303.11L328.62 167.17Z" fill="#D7D6D6"/>
<path d="M95.37 189.52C102.15 189.52 107.64 184.09 107.64 177.39H83.09C83.09 184.09 88.58 189.52 95.37 189.52Z" fill="#D94129"/>
<path d="M119.93 189.52C126.71 189.52 132.21 184.09 132.21 177.39H107.65C107.65 184.09 113.15 189.52 119.93 189.52Z" fill="white"/>
<path d="M144.48 189.52C151.26 189.52 156.76 184.09 156.76 177.39H132.21C132.21 184.09 137.71 189.52 144.48 189.52Z" fill="#D94129"/>
<path d="M169.03 189.52C175.81 189.52 181.31 184.09 181.31 177.39H156.76C156.76 184.09 162.25 189.52 169.03 189.52Z" fill="white"/>
<path d="M193.58 189.52C200.36 189.52 205.85 184.09 205.85 177.39H181.3C181.3 184.09 186.8 189.52 193.58 189.52Z" fill="#D94129"/>
<path d="M218.13 189.52C224.91 189.52 230.4 184.09 230.4 177.39H205.85C205.85 184.09 211.35 189.52 218.13 189.52Z" fill="white"/>
<path d="M242.69 189.52C249.47 189.52 254.96 184.09 254.96 177.39H230.41C230.41 184.09 235.91 189.52 242.69 189.52Z" fill="#D94129"/>
<path d="M267.24 189.52C274.02 189.52 279.52 184.09 279.52 177.39H254.96C254.96 184.09 260.46 189.52 267.24 189.52Z" fill="white"/>
<path d="M291.8 189.52C298.57 189.52 304.07 184.09 304.07 177.39H279.52C279.52 184.09 285.02 189.52 291.8 189.52Z" fill="#D94129"/>
<path d="M316.34 189.52C323.12 189.52 328.62 184.09 328.62 177.39H304.07C304.07 184.09 309.57 189.52 316.34 189.52Z" fill="white"/>
<path d="M107.65 167.17H83.1V177.67H107.65V167.17Z" fill="#D94129"/>
<path d="M156.75 167.17H132.2V177.67H156.75V167.17Z" fill="#D94129"/>
<path d="M205.85 167.17H181.3V177.67H205.85V167.17Z" fill="#D94129"/>
<path d="M254.95 167.17H230.4V177.67H254.95V167.17Z" fill="#D94129"/>
<path d="M304.06 167.17H279.51V177.67H304.06V167.17Z" fill="#D94129"/>
<path d="M132.19 167.17H107.64V177.67H132.19V167.17Z" fill="white"/>
<path d="M58.55 167.17H34L71.46 142.25H90.91L58.55 167.17Z" fill="#BD362B"/>
<path d="M83.1 167.17H58.55L90.91 142.25H110.36L83.1 167.17Z" fill="#D7D6D6"/>
<path d="M46.28 189.52C53.06 189.52 58.56 184.09 58.56 177.39H34C34 184.09 39.49 189.52 46.28 189.52Z" fill="#D94129"/>
<path d="M70.8301 189.52C77.6101 189.52 83.1101 184.09 83.1101 177.39H58.5601C58.5601 184.09 64.0601 189.52 70.8401 189.52H70.8301Z" fill="white"/>
<path d="M58.55 167.17H34V177.67H58.55V167.17Z" fill="#D94129"/>
<path d="M83.1 167.17H58.55V177.67H83.1V167.17Z" fill="white"/>
<path d="M181.3 167.17H156.75V177.67H181.3V167.17Z" fill="white"/>
<path d="M230.41 167.17H205.86V177.67H230.41V167.17Z" fill="white"/>
<path d="M279.52 167.17H254.96V177.67H279.52V167.17Z" fill="white"/>
<path d="M328.61 167.17H304.06V177.67H328.61V167.17Z" fill="white"/>
<path d="M353.16 167.17H328.61L303.11 142.25H322.57L353.16 167.17Z" fill="#BD362B"/>
<path d="M377.71 167.17H353.16L322.56 142.25H342.02L377.71 167.17Z" fill="#D7D6D6"/>
<path d="M340.88 189.52C347.66 189.52 353.16 184.09 353.16 177.39H328.61C328.61 184.09 334.11 189.52 340.89 189.52H340.88Z" fill="#D94129"/>
<path d="M365.43 189.52C372.21 189.52 377.7 184.09 377.7 177.39H353.15C353.15 184.09 358.65 189.52 365.42 189.52H365.43Z" fill="white"/>
<path d="M353.15 167.17H328.6V177.67H353.15V167.17Z" fill="#D94129"/>
<path d="M377.7 167.17H353.15V177.67H377.7V167.17Z" fill="white"/>
<path d="M285.56 116.95C285.56 130.91 274.24 142.22 260.29 142.22H151.43C137.47 142.22 126.16 130.9 126.16 116.95C126.16 102.99 137.48 91.6802 151.43 91.6802H260.28C274.24 91.6802 285.56 103 285.56 116.95Z" fill="#FFD56D"/>
<path d="M281.73 116.95C281.73 128.77 270.96 138.35 257.67 138.35H154.04C140.75 138.35 129.98 128.77 129.98 116.95C129.98 105.13 140.75 95.5498 154.04 95.5498H257.67C270.96 95.5498 281.73 105.13 281.73 116.95Z" stroke="#DC9C3C" stroke-width="1.09" stroke-miterlimit="10"/>
<path d="M174.415 113.65C174.355 112.892 174.071 112.301 173.563 111.877C173.063 111.453 172.302 111.241 171.279 111.241C170.628 111.241 170.093 111.32 169.677 111.479C169.268 111.631 168.965 111.839 168.768 112.104C168.571 112.37 168.468 112.673 168.461 113.014C168.446 113.294 168.495 113.548 168.609 113.775C168.73 113.995 168.919 114.195 169.177 114.377C169.434 114.551 169.764 114.711 170.165 114.854C170.567 114.998 171.044 115.127 171.597 115.241L173.506 115.65C174.794 115.923 175.897 116.282 176.813 116.729C177.73 117.176 178.48 117.703 179.063 118.309C179.647 118.907 180.075 119.582 180.347 120.332C180.628 121.082 180.772 121.9 180.779 122.786C180.772 124.317 180.389 125.612 179.631 126.673C178.874 127.733 177.79 128.54 176.381 129.093C174.98 129.646 173.294 129.923 171.325 129.923C169.302 129.923 167.537 129.623 166.029 129.025C164.529 128.426 163.362 127.506 162.529 126.264C161.703 125.014 161.287 123.415 161.279 121.468H167.279C167.317 122.18 167.495 122.779 167.813 123.264C168.131 123.748 168.578 124.116 169.154 124.366C169.737 124.616 170.431 124.741 171.234 124.741C171.908 124.741 172.472 124.657 172.927 124.491C173.381 124.324 173.726 124.093 173.961 123.798C174.196 123.502 174.317 123.165 174.325 122.786C174.317 122.43 174.2 122.12 173.972 121.854C173.753 121.582 173.389 121.339 172.881 121.127C172.374 120.907 171.688 120.703 170.825 120.514L168.506 120.014C166.446 119.567 164.821 118.82 163.631 117.775C162.45 116.722 161.862 115.286 161.87 113.468C161.862 111.991 162.256 110.699 163.052 109.593C163.855 108.479 164.965 107.612 166.381 106.991C167.806 106.37 169.438 106.059 171.279 106.059C173.158 106.059 174.783 106.373 176.154 107.002C177.525 107.631 178.582 108.517 179.325 109.661C180.075 110.798 180.453 112.127 180.461 113.65H174.415ZM183.182 129.65V106.377H189.501V115.468H197.864V106.377H204.182V129.65H197.864V120.559H189.501V129.65H183.182ZM229.728 118.014C229.728 120.604 229.224 122.79 228.217 124.57C227.209 126.343 225.849 127.688 224.137 128.604C222.425 129.514 220.516 129.968 218.41 129.968C216.289 129.968 214.372 129.51 212.66 128.593C210.955 127.669 209.599 126.32 208.592 124.548C207.592 122.767 207.092 120.589 207.092 118.014C207.092 115.423 207.592 113.241 208.592 111.468C209.599 109.688 210.955 108.343 212.66 107.434C214.372 106.517 216.289 106.059 218.41 106.059C220.516 106.059 222.425 106.517 224.137 107.434C225.849 108.343 227.209 109.688 228.217 111.468C229.224 113.241 229.728 115.423 229.728 118.014ZM223.228 118.014C223.228 116.62 223.042 115.445 222.671 114.491C222.307 113.529 221.766 112.801 221.046 112.309C220.334 111.809 219.455 111.559 218.41 111.559C217.364 111.559 216.482 111.809 215.762 112.309C215.05 112.801 214.508 113.529 214.137 114.491C213.773 115.445 213.592 116.62 213.592 118.014C213.592 119.407 213.773 120.586 214.137 121.548C214.508 122.502 215.05 123.229 215.762 123.729C216.482 124.222 217.364 124.468 218.41 124.468C219.455 124.468 220.334 124.222 221.046 123.729C221.766 123.229 222.307 122.502 222.671 121.548C223.042 120.586 223.228 119.407 223.228 118.014ZM232.651 129.65V106.377H242.697C244.424 106.377 245.935 106.718 247.231 107.4C248.526 108.082 249.534 109.04 250.254 110.275C250.973 111.51 251.333 112.953 251.333 114.604C251.333 116.271 250.962 117.714 250.219 118.934C249.485 120.154 248.45 121.093 247.117 121.752C245.791 122.411 244.242 122.741 242.469 122.741H236.469V117.832H241.197C241.939 117.832 242.572 117.703 243.094 117.445C243.625 117.18 244.03 116.805 244.31 116.32C244.598 115.836 244.742 115.264 244.742 114.604C244.742 113.938 244.598 113.37 244.31 112.9C244.03 112.423 243.625 112.059 243.094 111.809C242.572 111.551 241.939 111.423 241.197 111.423H238.969V129.65H232.651Z" fill="#453029"/>
<path d="M147.12 107.99L150.04 113.9L156.55 114.84L151.84 119.44L152.95 125.93L147.12 122.87L141.29 125.93L142.41 119.44L137.69 114.84L144.21 113.9L147.12 107.99Z" fill="#D94129"/>
<path d="M264.59 107.99L267.5 113.9L274.02 114.84L269.3 119.44L270.42 125.93L264.59 122.87L258.76 125.93L259.87 119.44L255.16 114.84L261.67 113.9L264.59 107.99Z" fill="#D94129"/>
</g>
<path d="M315.538 311.655L315.497 311.696C317.897 314.611 319.126 318.314 318.945 322.086C318.764 325.857 317.187 329.426 314.52 332.098C313.113 333.512 311.441 334.633 309.6 335.398C307.759 336.163 305.785 336.557 303.791 336.557C301.797 336.557 299.823 336.163 297.981 335.398C296.14 334.633 294.468 333.512 293.062 332.098C290.564 329.611 289.011 326.33 288.672 322.821L281.327 330.172L275.565 324.414L282.674 317.308C279.376 316.87 276.314 315.356 273.965 312.999C272.552 311.592 271.43 309.92 270.665 308.079C269.9 306.237 269.506 304.263 269.506 302.268C269.506 300.274 269.9 298.3 270.665 296.458C271.43 294.617 272.552 292.945 273.965 291.538C276.578 288.925 280.055 287.355 283.743 287.122C287.431 286.89 291.077 288.011 293.998 290.275L294.079 290.194C299.984 284.248 309.593 284.289 315.538 290.194C316.951 291.601 318.072 293.273 318.837 295.114C319.602 296.956 319.996 298.93 319.996 300.925C319.996 302.919 319.602 304.893 318.837 306.735C318.072 308.576 316.951 310.248 315.538 311.655Z" fill="#24AE26"/>
<path opacity="0.2" d="M315.524 311.655L315.483 311.696C317.608 308.079 315.617 300.542 312.858 297.625C310.484 295.114 306.577 292.875 303.36 292.875C300.142 292.875 295.907 295.693 294.066 296.458C289.111 295.25 285.61 296.176 284.831 296.458C284.329 296.64 279.318 298.421 278.054 302.268C277.238 304.75 277.238 309.5 278.491 312.999C279.291 315.235 282.66 319 284.362 319L277.238 326.125L275.551 324.414L282.66 317.308C279.362 316.87 276.3 315.356 273.951 312.999C272.538 311.592 271.417 309.92 270.651 308.079C269.886 306.237 269.492 304.263 269.492 302.268C269.492 300.274 269.886 298.3 270.651 296.458C271.417 294.617 272.538 292.945 273.951 291.538C276.564 288.925 280.041 287.355 283.729 287.122C287.417 286.89 291.064 288.011 293.984 290.275L294.066 290.194C299.97 284.248 309.579 284.289 315.524 290.194C316.937 291.601 318.058 293.273 318.823 295.114C319.589 296.956 319.982 298.93 319.982 300.925C319.982 302.919 319.589 304.893 318.823 306.735C318.058 308.576 316.853 310.388 315.524 311.655Z" fill="#E9F7E9"/>
<path d="M216.757 399.333L280.888 378.564C299.251 372.618 304.83 349.365 291.189 335.723L270.016 314.547C256.375 300.904 233.126 306.524 227.181 324.85L206.415 388.989C204.338 395.383 210.364 401.41 216.757 399.333Z" fill="#F17D53"/>
<path d="M248.236 356.654C250.231 354.659 250.231 351.442 248.236 349.406L226.33 327.497L222.787 338.41L240.988 356.614C242.983 358.65 246.241 358.65 248.236 356.654ZM232.845 375.184C230.849 377.179 230.849 380.396 232.845 382.432L241.68 391.269L252.593 387.726L240.052 375.184C239.579 374.71 239.017 374.333 238.399 374.077C237.78 373.82 237.118 373.688 236.448 373.688C235.779 373.688 235.116 373.82 234.497 374.077C233.879 374.333 233.317 374.71 232.845 375.184ZM264.035 354.903C262.039 352.867 262.039 349.65 264.035 347.655C266.03 345.659 269.246 345.659 271.282 347.695L293.392 369.808C291.356 372.496 288.75 374.776 285.656 376.527L264.035 354.903Z" fill="#EE5D28"/>
<path d="M204.469 308.69L204.468 308.718C206.261 308.989 207.89 309.918 209.037 311.324C210.184 312.73 210.766 314.512 210.672 316.323C210.623 317.28 210.385 318.218 209.973 319.083C209.561 319.948 208.982 320.723 208.269 321.363C207.557 322.004 206.725 322.497 205.821 322.815C204.917 323.133 203.959 323.269 203.003 323.216C201.311 323.129 199.703 322.455 198.454 321.31L198.19 326.297L194.281 326.089L194.54 321.266C193.22 322.169 191.64 322.611 190.043 322.524C189.086 322.475 188.148 322.237 187.283 321.825C186.419 321.413 185.644 320.833 185.003 320.121C184.363 319.408 183.869 318.576 183.551 317.672C183.233 316.768 183.097 315.81 183.15 314.854C183.244 313.08 183.983 311.403 185.226 310.135C186.47 308.867 188.133 308.097 189.904 307.968L189.907 307.913C190.107 303.891 193.555 300.819 197.576 301.02C198.533 301.069 199.471 301.307 200.336 301.719C201.2 302.131 201.975 302.711 202.616 303.423C203.256 304.136 203.75 304.968 204.068 305.872C204.386 306.776 204.522 307.734 204.469 308.69Z" fill="#24AE26"/>
<path opacity="0.2" d="M204.464 308.695L204.463 308.722C204.06 306.747 200.928 304.693 199.005 304.537C197.35 304.402 195.235 304.857 194.085 305.89C192.935 306.924 192.326 309.291 191.914 310.156C189.755 311.315 188.801 312.771 188.614 313.122C188.493 313.348 187.274 315.594 188.058 317.375C188.563 318.524 190.089 320.222 191.661 321.07C192.665 321.612 195.078 321.875 195.686 321.329L195.429 326.163L194.276 326.094L194.535 321.27C193.215 322.174 191.635 322.616 190.038 322.528C189.081 322.479 188.143 322.242 187.278 321.829C186.414 321.417 185.639 320.838 184.998 320.125C184.358 319.412 183.864 318.58 183.546 317.676C183.228 316.773 183.092 315.815 183.145 314.858C183.239 313.085 183.978 311.407 185.221 310.139C186.465 308.872 188.128 308.101 189.899 307.972L189.902 307.917C190.102 303.896 193.55 300.824 197.571 301.025C198.528 301.074 199.466 301.311 200.331 301.723C201.195 302.136 201.97 302.715 202.611 303.428C203.251 304.14 203.745 304.973 204.063 305.876C204.381 306.78 204.532 307.815 204.464 308.695Z" fill="#E9F7E9"/>
<path d="M197.328 371.753L213.576 343.732C218.23 335.709 212.755 325.607 203.498 325.113L189.129 324.345C179.872 323.851 173.368 333.327 177.129 341.786L190.309 371.379C191.621 374.331 195.71 374.549 197.328 371.753Z" fill="#F17D53"/>
<path d="M194.87 346.39C194.942 345.036 193.909 343.886 192.542 343.799L177.675 343.005L179.915 348.044L192.266 348.703C193.633 348.79 194.798 347.744 194.87 346.39ZM195.321 357.955C195.248 359.309 196.282 360.459 197.649 360.546L203.645 360.866L206.407 356.095L197.896 355.641C197.575 355.623 197.254 355.669 196.95 355.776C196.647 355.883 196.367 356.049 196.128 356.264C195.889 356.479 195.694 356.739 195.556 357.029C195.417 357.319 195.337 357.634 195.321 357.955ZM199.954 340.689C198.586 340.603 197.553 339.453 197.625 338.099C197.697 336.745 198.847 335.712 200.229 335.785L215.233 336.587C215.369 338.201 215.17 339.853 214.626 341.473L199.954 340.689Z" fill="#EE5D28"/>
<path d="M79.9312 229.353L79.9474 229.392C82.606 228.586 85.4694 228.798 87.9803 229.987C90.4912 231.176 92.4698 233.257 93.531 235.824C94.0934 237.179 94.3825 238.632 94.3817 240.099C94.381 241.566 94.0904 243.019 93.5267 244.373C92.963 245.728 92.1372 246.958 91.0968 247.992C90.0564 249.027 88.8218 249.845 87.464 250.401C85.0682 251.395 82.4007 251.522 79.9211 250.76L82.8377 257.829L77.2969 260.114L74.4795 253.276C73.25 255.393 71.3554 257.045 69.0902 257.974C67.7349 258.536 66.2819 258.825 64.8147 258.824C63.3474 258.824 61.8947 258.533 60.54 257.969C59.1853 257.405 57.9554 256.579 56.9207 255.539C55.8861 254.499 55.0672 253.264 54.511 251.906C53.4746 249.392 53.391 246.587 54.2759 244.015C55.1608 241.444 56.9533 239.284 59.3174 237.94L59.2851 237.862C56.9154 232.17 59.6599 225.654 65.3521 223.285C66.7073 222.723 68.1603 222.434 69.6276 222.435C71.0949 222.435 72.5475 222.726 73.9022 223.29C75.2569 223.854 76.4869 224.68 77.5215 225.72C78.5561 226.76 79.3751 227.995 79.9312 229.353Z" fill="#24AE26"/>
<path opacity="0.2" d="M79.9272 229.362L79.9434 229.402C78.0866 226.936 72.4038 226.157 69.6425 227.206C67.2656 228.11 64.6399 230.13 63.7301 232.316C62.8203 234.502 63.5374 238.176 63.5366 239.643C61.3151 242.667 60.9542 245.307 60.9258 245.916C60.9075 246.309 60.7006 250.216 62.9565 252.163C64.4117 253.419 67.6385 254.762 70.3696 254.9C72.1149 254.988 75.6252 253.764 76.1063 252.608L78.9323 259.462L77.2929 260.124L74.4755 253.286C73.246 255.403 71.3513 257.054 69.0861 257.984C67.7309 258.546 66.2779 258.835 64.8106 258.834C63.3433 258.833 61.8907 258.543 60.536 257.979C59.1813 257.415 57.9513 256.589 56.9167 255.549C55.8821 254.508 55.0631 253.274 54.507 251.916C53.4706 249.402 53.387 246.596 54.2719 244.025C55.1568 241.454 56.9493 239.294 59.3134 237.95L59.2811 237.872C56.9113 232.18 59.6559 225.664 65.348 223.295C66.7033 222.732 68.1563 222.443 69.6235 222.444C71.0908 222.445 72.5435 222.736 73.8982 223.3C75.2529 223.864 76.4828 224.689 77.5175 225.73C78.5521 226.77 79.4422 228.102 79.9272 229.362Z" fill="#E9F7E9"/>
<path d="M111.565 321.246L115.587 271.809C116.74 257.653 102.521 247.289 89.397 252.698L69.0251 261.094C55.9009 266.504 53.1451 283.887 63.9133 293.107L101.614 325.348C105.37 328.566 111.168 326.176 111.565 321.246Z" fill="#F17D53"/>
<path d="M91.472 287.796C90.6806 285.876 88.4951 284.967 86.5478 285.746L65.4707 294.433L71.8832 299.926L89.3952 292.708C91.3425 291.928 92.2635 289.715 91.472 287.796ZM99.7077 303.49C100.499 305.41 102.685 306.319 104.632 305.54L113.133 302.036L113.812 293.621L101.745 298.594C101.29 298.781 100.875 299.057 100.526 299.404C100.177 299.752 99.8999 300.165 99.7106 300.619C99.5214 301.074 99.4237 301.562 99.4232 302.055C99.4227 302.547 99.5194 303.035 99.7077 303.49ZM94.7492 276.568C92.8019 277.348 90.6164 276.438 89.8249 274.519C89.0335 272.599 89.943 270.414 91.9018 269.607L113.175 260.839C114.425 262.982 115.237 265.397 115.552 267.994L94.7492 276.568Z" fill="#EE5D28"/>
<path d="M202.865 396.278L202.811 396.277C202.438 399.797 200.768 403.051 198.127 405.407C195.486 407.763 192.063 409.053 188.524 409.024C186.655 409.011 184.806 408.629 183.085 407.901C181.364 407.172 179.804 406.11 178.495 404.776C177.185 403.443 176.152 401.864 175.454 400.13C174.757 398.396 174.409 396.541 174.43 394.672C174.453 391.368 175.628 388.175 177.752 385.643L168.011 385.558L168.078 377.923L177.5 378.01C175.626 375.517 174.628 372.474 174.662 369.355C174.674 367.486 175.056 365.638 175.785 363.917C176.515 362.196 177.576 360.635 178.91 359.326C180.244 358.016 181.823 356.983 183.557 356.285C185.291 355.587 187.146 355.239 189.015 355.26C192.48 355.291 195.813 356.586 198.391 358.9C200.969 361.214 202.614 364.389 203.017 367.829L203.125 367.83C210.98 367.874 217.264 374.328 217.219 382.182C217.206 384.051 216.824 385.9 216.095 387.621C215.366 389.342 214.304 390.902 212.97 392.212C211.637 393.522 210.057 394.555 208.323 395.253C206.589 395.951 204.734 396.299 202.865 396.278Z" fill="#24AE26"/>
<path opacity="0.2" d="M202.856 396.269L202.802 396.268C206.617 395.313 210.35 389.031 210.489 385.271C210.608 382.034 209.541 377.95 207.427 375.798C205.314 373.646 200.648 372.664 198.926 371.936C196.481 367.828 193.562 366.095 192.861 365.759C192.41 365.543 187.927 363.361 184.524 365.042C182.329 366.127 179.152 369.246 177.634 372.382C176.664 374.386 176.359 379.113 177.477 380.251L168.033 380.166L168.069 377.913L177.491 378.001C175.617 375.508 174.619 372.465 174.653 369.346C174.665 367.477 175.047 365.629 175.776 363.908C176.506 362.186 177.567 360.626 178.901 359.316C180.235 358.007 181.814 356.973 183.548 356.276C185.282 355.578 187.137 355.23 189.006 355.251C192.471 355.282 195.804 356.576 198.382 358.89C200.96 361.204 202.605 364.38 203.008 367.82L203.116 367.821C210.971 367.865 217.255 374.319 217.21 382.173C217.197 384.042 216.815 385.89 216.086 387.612C215.357 389.333 214.295 390.893 212.961 392.203C211.628 393.512 210.048 394.546 208.314 395.244C206.58 395.941 204.576 396.325 202.856 396.269Z" fill="#E9F7E9"/>
<path d="M79.3457 387.796L135.357 417.048C151.395 425.425 170.611 413.884 170.776 395.8L171.033 367.731C171.198 349.648 152.169 337.789 136.008 345.849L79.4711 374.086C73.831 376.896 73.758 384.885 79.3457 387.796Z" fill="#F17D53"/>
<path d="M128.565 380.82C131.21 380.844 133.362 378.731 133.413 376.059L133.679 347.018L124.053 351.817L123.832 375.946C123.781 378.617 125.92 380.796 128.565 380.82ZM106.064 382.695C103.419 382.671 101.267 384.784 101.215 387.456L101.108 399.17L110.645 404.141L110.797 387.516C110.804 386.888 110.686 386.265 110.452 385.683C110.217 385.101 109.87 384.571 109.431 384.123C108.991 383.675 108.467 383.319 107.889 383.074C107.312 382.829 106.691 382.7 106.064 382.695ZM140.113 390.236C140.164 387.564 142.316 385.451 144.961 385.475C147.606 385.499 149.719 387.65 149.694 390.349L149.426 419.661C146.291 420.064 143.054 419.819 139.851 418.899L140.113 390.236Z" fill="#EE5D28"/>
<path d="M342.469 219.69L342.468 219.718C344.261 219.989 345.89 220.918 347.037 222.324C348.184 223.73 348.766 225.512 348.672 227.323C348.623 228.28 348.385 229.218 347.973 230.083C347.561 230.948 346.982 231.723 346.269 232.363C345.557 233.004 344.725 233.497 343.821 233.815C342.917 234.133 341.959 234.269 341.003 234.216C339.311 234.129 337.703 233.455 336.454 232.31L336.19 237.297L332.281 237.089L332.54 232.266C331.22 233.169 329.64 233.611 328.043 233.524C327.086 233.475 326.148 233.237 325.283 232.825C324.419 232.413 323.644 231.833 323.003 231.121C322.363 230.408 321.869 229.576 321.551 228.672C321.233 227.768 321.097 226.81 321.15 225.854C321.244 224.08 321.983 222.403 323.226 221.135C324.47 219.867 326.133 219.097 327.904 218.968L327.907 218.913C328.107 214.891 331.555 211.819 335.576 212.02C336.533 212.069 337.471 212.307 338.336 212.719C339.2 213.131 339.975 213.711 340.616 214.423C341.256 215.136 341.75 215.968 342.068 216.872C342.386 217.776 342.522 218.734 342.469 219.69Z" fill="#24AE26"/>
<path opacity="0.2" d="M342.464 219.695L342.463 219.722C342.06 217.747 338.928 215.693 337.005 215.537C335.35 215.402 333.235 215.857 332.085 216.89C330.935 217.924 330.326 220.291 329.914 221.156C327.755 222.315 326.801 223.771 326.614 224.122C326.493 224.348 325.274 226.594 326.058 228.375C326.563 229.524 328.089 231.222 329.661 232.07C330.665 232.612 333.078 232.875 333.686 232.329L333.429 237.163L332.276 237.094L332.535 232.27C331.215 233.174 329.635 233.616 328.038 233.528C327.081 233.479 326.143 233.242 325.278 232.829C324.414 232.417 323.639 231.838 322.998 231.125C322.358 230.412 321.864 229.58 321.546 228.676C321.228 227.773 321.092 226.815 321.145 225.858C321.239 224.085 321.978 222.407 323.221 221.139C324.465 219.872 326.128 219.101 327.899 218.972L327.902 218.917C328.102 214.896 331.55 211.824 335.571 212.025C336.528 212.074 337.466 212.311 338.331 212.723C339.195 213.136 339.97 213.715 340.611 214.428C341.251 215.14 341.745 215.973 342.063 216.876C342.381 217.78 342.532 218.815 342.464 219.695Z" fill="#E9F7E9"/>
<path d="M335.328 282.753L351.576 254.732C356.23 246.709 350.755 236.607 341.498 236.113L327.129 235.345C317.872 234.851 311.368 244.327 315.129 252.786L328.309 282.379C329.621 285.331 333.71 285.549 335.328 282.753Z" fill="#F17D53"/>
<path d="M332.87 257.39C332.942 256.036 331.909 254.886 330.542 254.799L315.675 254.005L317.915 259.044L330.266 259.703C331.633 259.79 332.798 258.744 332.87 257.39ZM333.321 268.955C333.248 270.309 334.282 271.459 335.649 271.546L341.645 271.866L344.407 267.095L335.896 266.641C335.575 266.623 335.254 266.669 334.95 266.776C334.647 266.883 334.367 267.049 334.128 267.264C333.889 267.479 333.694 267.739 333.556 268.029C333.417 268.319 333.337 268.634 333.321 268.955ZM337.954 251.689C336.586 251.603 335.553 250.453 335.625 249.099C335.697 247.745 336.847 246.712 338.229 246.785L353.233 247.587C353.369 249.201 353.17 250.853 352.626 252.473L337.954 251.689Z" fill="#EE5D28"/>
<defs>
<clipPath id="clip0_4967_8013">
<rect width="343.71" height="219.27" fill="white" transform="translate(34 67)"/>
</clipPath>
</defs>
</svg>
