<svg width="398" height="475" viewBox="0 0 398 475" fill="none" xmlns="http://www.w3.org/2000/svg">
<g clip-path="url(#clip0_4967_1537)">
<path fill-rule="evenodd" clip-rule="evenodd" d="M198.5 237.5L233.131 -52H163.869L198.5 237.5ZM198.5 237.5L373.241 4.09967L313.259 -30.5317L198.5 237.5ZM198.5 237.5L431.9 62.7588L466.532 122.741L198.5 237.5ZM198.5 237.5L488 272.131V202.869L198.5 237.5ZM198.5 237.5L431.9 412.241L466.532 352.259L198.5 237.5ZM198.5 237.5L373.241 470.9L313.259 505.532L198.5 237.5ZM163.869 527L198.5 237.5L233.131 527H163.869ZM198.5 237.5L83.7413 505.532L23.759 470.9L198.5 237.5ZM198.5 237.5L-91 272.131V202.869L198.5 237.5ZM198.5 237.5L-34.9003 412.241L-69.5317 352.259L198.5 237.5ZM-69.5317 122.741L198.5 237.5L83.7413 -30.5317L23.759 4.09967L198.5 237.5L-34.9003 62.7588L-69.5317 122.741Z" fill="url(#paint0_radial_4967_1537)"/>
<g filter="url(#filter0_d_4967_1537)">
<circle cx="84.0691" cy="392.069" r="49.5483" transform="rotate(-19.1663 84.0691 392.069)" fill="white"/>
</g>
<g filter="url(#filter1_d_4967_1537)">
<circle cx="84.0691" cy="392.069" r="41.1251" transform="rotate(-19.1663 84.0691 392.069)" fill="url(#paint1_linear_4967_1537)"/>
</g>
<circle cx="84.0692" cy="392.069" r="38.1477" transform="rotate(-19.1663 84.0692 392.069)" stroke="url(#paint2_linear_4967_1537)"/>
<g filter="url(#filter2_i_4967_1537)">
<circle cx="84.0692" cy="392.069" r="31.2154" transform="rotate(-19.1663 84.0692 392.069)" fill="#F29F03"/>
</g>
<g filter="url(#filter3_d_4967_1537)">
<path d="M87.5099 403.272C85.8506 403.849 84.2806 404.077 82.7999 403.956C81.3238 403.825 80.0421 403.384 78.9546 402.634C77.8671 401.883 77.0883 400.854 76.6181 399.547L81.9152 397.706C82.1017 398.174 82.4008 398.543 82.8126 398.813C83.2219 399.076 83.707 399.225 84.2678 399.261C84.8285 399.296 85.4209 399.206 86.0449 398.989C86.669 398.772 87.1803 398.471 87.579 398.086C87.9824 397.692 88.251 397.252 88.3849 396.769C88.5163 396.278 88.4898 395.779 88.3052 395.27C88.1348 394.757 87.8317 394.354 87.3959 394.061C86.96 393.767 86.4309 393.605 85.8085 393.575C85.1931 393.543 84.5167 393.655 83.7792 393.911L81.6625 394.647L80.3611 390.902L82.4778 390.167C83.1231 389.942 83.6535 389.639 84.0688 389.256C84.4913 388.871 84.7742 388.439 84.9177 387.96C85.0587 387.473 85.0381 386.98 84.856 386.479C84.693 385.987 84.4269 385.599 84.0577 385.314C83.693 385.019 83.2622 384.843 82.7653 384.785C82.2754 384.725 81.7539 384.791 81.2008 384.983C80.6193 385.186 80.1268 385.472 79.7232 385.843C79.3266 386.211 79.0554 386.631 78.9095 387.103C78.7635 387.575 78.7697 388.062 78.9281 388.563L73.8969 390.312C73.46 389.009 73.4249 387.742 73.7914 386.51C74.1554 385.27 74.8499 384.159 75.8749 383.175C76.907 382.188 78.2066 381.422 79.7737 380.878C81.3338 380.335 82.8008 380.132 84.1748 380.266C85.5489 380.4 86.7295 380.825 87.7168 381.538C88.7016 382.245 89.3999 383.191 89.8115 384.375C90.245 385.599 90.1955 386.749 89.6632 387.824C89.1379 388.897 88.2762 389.745 87.0781 390.368L87.1372 390.538C88.8939 390.15 90.3566 390.254 91.5252 390.849C92.7009 391.442 93.5181 392.409 93.9768 393.752C94.4156 395.014 94.4327 396.264 94.0283 397.502C93.6284 398.729 92.8664 399.853 91.7422 400.871C90.6226 401.88 89.2118 402.681 87.5099 403.272Z" fill="white"/>
</g>
<g filter="url(#filter4_d_4967_1537)">
<circle cx="290.842" cy="76.8416" r="49.3842" transform="rotate(19.1313 290.842 76.8416)" fill="white"/>
</g>
<g filter="url(#filter5_d_4967_1537)">
<circle cx="290.842" cy="76.8416" r="40.9889" transform="rotate(19.1313 290.842 76.8416)" fill="url(#paint3_linear_4967_1537)"/>
</g>
<circle cx="290.842" cy="76.8416" r="38.0197" transform="rotate(19.1313 290.842 76.8416)" stroke="url(#paint4_linear_4967_1537)"/>
<g filter="url(#filter6_i_4967_1537)">
<circle cx="290.842" cy="76.8417" r="31.112" transform="rotate(19.1313 290.842 76.8417)" fill="#F29F03"/>
</g>
<g filter="url(#filter7_d_4967_1537)">
<path d="M296.031 66.3345L288.498 88.0511L283.259 86.234L289.093 69.4164L288.966 69.3722L283.079 70.6566L284.654 66.1182L291.164 64.6462L296.031 66.3345Z" fill="white"/>
</g>
<g filter="url(#filter8_d_4967_1537)">
<circle cx="126.342" cy="140.342" r="73.3313" transform="rotate(-19.1663 126.342 140.342)" fill="white"/>
</g>
<g filter="url(#filter9_d_4967_1537)">
<circle cx="126.342" cy="140.342" r="60.865" transform="rotate(-19.1663 126.342 140.342)" fill="url(#paint5_linear_4967_1537)"/>
</g>
<circle cx="126.342" cy="140.342" r="56.6984" transform="rotate(-19.1663 126.342 140.342)" stroke="url(#paint6_linear_4967_1537)"/>
<g filter="url(#filter10_i_4967_1537)">
<circle cx="126.342" cy="140.342" r="46.1987" transform="rotate(-19.1663 126.342 140.342)" fill="#F29F03"/>
</g>
<g filter="url(#filter11_d_4967_1537)">
<path d="M142.949 153.385C140.136 154.363 137.48 154.539 134.981 153.914C132.478 153.278 130.239 151.898 128.266 149.772C126.288 147.637 124.69 144.799 123.471 141.258C122.252 137.718 121.76 134.525 121.994 131.679C122.236 128.819 123.144 126.392 124.721 124.397C126.305 122.388 128.503 120.894 131.316 119.917C134.128 118.939 136.779 118.747 139.267 119.341C141.762 119.92 143.991 121.257 145.954 123.351C147.917 125.445 149.506 128.257 150.721 131.787C151.954 135.334 152.458 138.558 152.231 141.46C152.005 144.362 151.105 146.833 149.532 148.874C147.966 150.9 145.772 152.404 142.949 153.385ZM140.733 147.009C142.412 146.426 143.474 145.098 143.918 143.026C144.359 140.944 143.956 138.126 142.708 134.572C141.899 132.242 140.995 130.403 139.997 129.056C138.996 127.699 137.946 126.793 136.848 126.34C135.749 125.886 134.638 125.855 133.515 126.245C131.847 126.825 130.792 128.139 130.351 130.186C129.906 132.223 130.284 134.985 131.484 138.473C132.294 140.838 133.2 142.717 134.202 144.11C135.214 145.499 136.278 146.429 137.395 146.899C138.508 147.359 139.62 147.396 140.733 147.009Z" fill="white"/>
</g>
<g filter="url(#filter12_d_4967_1537)">
<path d="M111.008 127.469L122.214 159.709L114.437 162.412L105.759 137.445L105.57 137.511L99.8923 144.425L97.5504 137.687L103.782 129.98L111.008 127.469Z" fill="white"/>
</g>
<g filter="url(#filter13_d_4967_1537)">
<circle cx="199" cy="260" r="97" fill="white"/>
</g>
<path d="M249.109 224.401V256.134C249.109 310.534 199.456 324.134 199.456 324.134C199.456 324.134 149.803 310.534 149.803 256.134V224.401C149.803 223.199 150.279 222.046 151.125 221.195C151.972 220.345 153.12 219.868 154.317 219.868H244.595C245.792 219.868 246.94 220.345 247.787 221.195C248.633 222.046 249.109 223.199 249.109 224.401Z" fill="#E1B2FF"/>
<path d="M244.59 215.333H154.313C151.918 215.333 149.622 216.289 147.929 217.989C146.236 219.689 145.285 221.996 145.285 224.4V256.133C145.285 286.008 159.684 304.113 171.764 314.041C184.776 324.728 197.719 328.361 198.283 328.508C199.059 328.72 199.877 328.72 200.653 328.508C201.218 328.361 214.144 324.728 227.172 314.041C239.219 304.113 253.618 286.008 253.618 256.133V224.4C253.618 221.996 252.667 219.689 250.974 217.989C249.281 216.289 246.985 215.333 244.59 215.333ZM244.59 256.133C244.59 277.14 236.883 294.191 221.682 306.805C215.065 312.277 207.54 316.535 199.451 319.385C191.469 316.585 184.037 312.402 177.491 307.026C162.11 294.389 154.313 277.27 154.313 256.133V224.4H244.59V256.133Z" fill="#EBCBFF"/>
<path d="M199.459 224.778V319.222C211.214 316.861 227.671 302.695 232.372 295.611C241.776 286.167 244.511 266.491 244.703 257.833V224.778H199.459Z" fill="#D38EFF"/>
<g clip-path="url(#clip1_4967_1537)">
<path d="M170.819 404.2L173.668 378.166L183.397 379.227C185.391 379.44 187.025 379.975 188.316 380.821C189.607 381.667 190.53 382.758 191.09 384.081C191.651 385.404 191.841 386.906 191.656 388.554C191.476 390.212 190.969 391.603 190.127 392.755C189.285 393.907 188.142 394.734 186.7 395.245C185.25 395.76 183.533 395.909 181.525 395.692L174.567 394.934L174.985 391.075L181.327 391.77C182.5 391.895 183.482 391.839 184.265 391.583C185.04 391.333 185.652 390.909 186.087 390.308C186.514 389.712 186.783 388.951 186.882 388.043C186.988 387.109 186.889 386.298 186.601 385.601C186.313 384.904 185.81 384.335 185.097 383.903C184.384 383.471 183.435 383.191 182.249 383.061L177.892 382.585L175.491 404.71L170.819 404.2ZM185.467 405.808L180.431 393.304L185.539 393.862L190.695 406.379L185.467 405.808Z" fill="#83351C"/>
<path d="M202.059 406.323C200.818 406.406 199.694 406.244 198.665 405.858C197.636 405.473 196.822 404.857 196.194 404.015C195.565 403.173 195.215 402.111 195.131 400.825C195.061 399.713 195.217 398.786 195.58 398.031C195.944 397.276 196.478 396.667 197.15 396.187C197.836 395.711 198.611 395.336 199.483 395.055C200.355 394.774 201.274 394.559 202.226 394.406C203.347 394.206 204.267 394.036 204.978 393.899C205.69 393.763 206.202 393.575 206.521 393.345C206.84 393.115 206.985 392.774 206.96 392.332L206.957 392.242C206.917 391.604 206.755 391.055 206.468 390.63C206.184 390.193 205.775 389.88 205.249 389.666C204.727 389.46 204.089 389.374 203.343 389.427C202.584 389.476 201.932 389.637 201.39 389.897C200.854 390.166 200.418 390.494 200.087 390.891C199.756 391.287 199.529 391.706 199.392 392.145L195.107 391.55C195.419 390.367 195.962 389.377 196.718 388.568C197.473 387.759 198.4 387.141 199.499 386.691C200.589 386.246 201.788 385.981 203.101 385.905C204.025 385.846 204.962 385.894 205.925 386.054C206.875 386.209 207.763 386.523 208.584 386.987C209.405 387.451 210.077 388.099 210.611 388.935C211.146 389.771 211.455 390.843 211.532 392.156L212.35 405.257L207.984 405.537L207.81 402.832L207.636 402.847C207.378 403.419 207.007 403.951 206.532 404.46C206.053 404.96 205.441 405.383 204.71 405.713C203.978 406.042 203.09 406.252 202.063 406.31L202.059 406.323ZM203.023 402.862C203.969 402.803 204.776 402.569 205.432 402.144C206.094 401.727 206.59 401.196 206.94 400.562C207.276 399.924 207.426 399.238 207.388 398.519L207.246 396.206C207.098 396.332 206.852 396.466 206.498 396.59C206.15 396.723 205.755 396.835 205.325 396.943C204.895 397.052 204.459 397.152 204.037 397.234C203.615 397.316 203.255 397.386 202.966 397.441C202.29 397.581 201.688 397.771 201.146 398.009C200.609 398.256 200.204 398.579 199.918 398.973C199.636 399.377 199.51 399.878 199.545 400.485C199.577 401.048 199.75 401.512 200.058 401.868C200.37 402.233 200.777 402.501 201.289 402.667C201.8 402.833 202.371 402.898 203.018 402.854L203.023 402.862Z" fill="#83351C"/>
<path d="M221.652 391.969L224.284 403.173L219.832 404.216L215.347 385.085L219.555 384.094L220.737 388.801L220.373 388.885C220.522 387.108 221.019 385.677 221.859 384.605C222.699 383.534 223.905 382.821 225.468 382.449C226.782 382.144 227.99 382.148 229.102 382.476C230.214 382.805 231.167 383.448 231.965 384.391C232.763 385.335 233.338 386.581 233.695 388.117L236.553 400.28L232.101 401.324L229.405 389.836C229.106 388.553 228.537 387.633 227.703 387.062C226.869 386.491 225.875 386.337 224.703 386.61C223.917 386.798 223.253 387.126 222.724 387.618C222.19 388.102 221.817 388.714 221.619 389.46C221.416 390.196 221.427 391.032 221.647 391.96L221.652 391.969Z" fill="#83351C"/>
<path d="M243.658 397.919L233.545 373.754L237.762 371.984L247.875 396.149L243.658 397.919ZM245.129 390.596L242.988 385.488L243.654 385.206L247.125 375.157L252.065 373.085L247.795 385.367L246.921 385.729L245.119 390.579L245.129 390.596ZM255.017 393.164L245.632 387.397L247.233 383.225L260.072 391.053L255.008 393.169L255.017 393.164Z" fill="#83351C"/>
<path d="M279.09 379.492C277.999 380.291 276.883 380.75 275.728 380.888C274.574 381.026 273.444 380.81 272.337 380.24C271.229 379.669 270.223 378.76 269.293 377.49L261.915 367.398L265.603 364.698L272.568 374.218C273.338 375.278 274.228 375.91 275.224 376.108C276.219 376.307 277.2 376.058 278.169 375.349C278.819 374.87 279.296 374.303 279.6 373.649C279.904 372.994 279.996 372.284 279.889 371.522C279.774 370.765 279.439 370.003 278.894 369.252L272.099 359.959L275.804 357.249L287.413 373.111L283.912 375.675L281.004 371.792L281.288 371.581C281.852 373.289 281.944 374.798 281.578 376.113C281.203 377.433 280.387 378.548 279.116 379.478L279.09 379.492Z" fill="#83351C"/>
<path d="M298.433 373.219L278.985 354.495L282.083 351.274L284.425 353.529L284.636 353.311C284.458 352.816 284.33 352.226 284.244 351.544C284.158 350.862 284.226 350.108 284.458 349.299C284.689 348.49 285.212 347.671 286.02 346.834C287.074 345.737 288.311 345.018 289.709 344.679C291.107 344.34 292.604 344.436 294.184 344.955C295.768 345.482 297.347 346.501 298.921 348.013C300.476 349.513 301.553 351.033 302.148 352.587C302.752 354.137 302.906 355.635 302.633 357.059C302.351 358.487 301.671 359.768 300.595 360.888C299.826 361.693 299.039 362.235 298.243 362.508C297.447 362.782 296.699 362.893 295.999 362.841C295.3 362.789 294.705 362.679 294.203 362.531L294.074 362.67L301.604 369.924L298.433 373.219ZM297.023 359.176C297.727 358.441 298.129 357.63 298.206 356.746C298.283 355.862 298.1 354.96 297.643 354.036C297.186 353.112 296.524 352.231 295.649 351.375C294.774 350.519 293.867 349.897 292.94 349.49C292.008 349.075 291.113 348.936 290.239 349.046C289.371 349.166 288.572 349.601 287.859 350.341C287.159 351.063 286.761 351.86 286.661 352.723C286.561 353.585 286.726 354.475 287.156 355.39C287.585 356.306 288.265 357.2 289.182 358.091C290.098 358.981 291.029 359.624 291.969 360.035C292.91 360.446 293.814 360.58 294.678 360.452C295.55 360.319 296.323 359.898 297.014 359.181L297.023 359.176Z" fill="#83351C"/>
</g>
<g clip-path="url(#clip2_4967_1537)">
<path d="M54.5 82.0798L39 68.8298L41.38 66.0498L54.54 77.2998L60.39 70.4498L62.73 72.4498L54.5 82.0698V82.0798Z" fill="#83351C"/>
<path d="M69.7599 66.9198C68.5599 67.8898 67.3299 68.4798 66.0599 68.6798C64.7899 68.8798 63.5499 68.7098 62.3499 68.1698C61.1399 67.6298 60.0399 66.7498 59.0299 65.5098C58.0299 64.2898 57.3899 63.0298 57.0999 61.7398C56.8099 60.4498 56.8699 59.1998 57.2799 57.9998C57.6899 56.7998 58.4699 55.7398 59.5999 54.8098C60.3199 54.2198 61.0999 53.7798 61.9499 53.4798C62.7899 53.1798 63.6699 53.0698 64.5699 53.1498C65.4699 53.2298 66.3799 53.5198 67.2799 54.0398C68.1799 54.5598 69.0499 55.3398 69.8999 56.3798L70.6099 57.2498L60.9099 65.1498L59.3799 63.2698L67.7099 56.4798L66.8699 58.0898C66.3299 57.4298 65.7499 56.9198 65.1299 56.5898C64.5099 56.2598 63.8799 56.1098 63.2499 56.1498C62.6099 56.1998 61.9899 56.4698 61.3799 56.9698C60.7699 57.4698 60.3699 58.0298 60.1799 58.6598C59.9899 59.2898 59.9799 59.9398 60.1399 60.5998C60.3099 61.2598 60.6299 61.8798 61.1099 62.4698L62.1599 63.7598C62.7699 64.5098 63.4099 65.0398 64.0899 65.3498C64.7599 65.6598 65.4399 65.7598 66.1099 65.6398C66.7799 65.5298 67.4199 65.2198 68.0299 64.7298C68.4299 64.3998 68.7499 64.0398 68.9899 63.6598C69.2199 63.2798 69.3699 62.8698 69.4199 62.4398C69.4699 62.0098 69.4199 61.5898 69.2699 61.1598L72.2299 59.6098C72.5599 60.3998 72.6899 61.2198 72.6199 62.0798C72.5499 62.9298 72.2799 63.7698 71.7999 64.5998C71.3199 65.4298 70.6499 66.1998 69.7599 66.9198Z" fill="#83351C"/>
<path d="M80.0399 59.4101L67.6499 48.7801L70.9799 46.9401L77.4499 52.8701C78.2099 53.5601 78.9299 54.2901 79.6199 55.0301C80.3099 55.7801 80.9999 56.5301 81.7099 57.3001L80.9299 57.7301C80.6599 56.7201 80.3899 55.7301 80.1199 54.7501C79.8499 53.7701 79.6099 52.7801 79.4199 51.7701L77.8199 43.1401L81.1199 41.3101L83.5299 57.4701L80.0499 59.4001L80.0399 59.4101Z" fill="#83351C"/>
<path d="M96 52.52C94.54 53 93.17 53.11 91.92 52.84C90.67 52.57 89.57 51.97 88.63 51.04C87.69 50.11 86.98 48.89 86.48 47.37C85.99 45.87 85.83 44.47 86.02 43.15C86.21 41.84 86.71 40.7 87.53 39.72C88.35 38.74 89.45 38.03 90.84 37.57C91.72 37.28 92.61 37.14 93.51 37.17C94.41 37.19 95.26 37.4 96.08 37.79C96.9 38.18 97.63 38.78 98.29 39.59C98.95 40.4 99.48 41.44 99.9 42.71L100.25 43.78L88.37 47.7L87.61 45.4L97.82 42.04L96.46 43.24C96.19 42.43 95.83 41.75 95.37 41.21C94.91 40.67 94.38 40.31 93.77 40.13C93.16 39.95 92.48 39.98 91.73 40.22C90.98 40.47 90.41 40.85 90.01 41.37C89.61 41.89 89.36 42.49 89.28 43.17C89.2 43.85 89.28 44.54 89.52 45.26L90.04 46.85C90.34 47.77 90.75 48.49 91.28 49.02C91.8 49.55 92.39 49.88 93.06 50.02C93.73 50.15 94.44 50.1 95.18 49.85C95.67 49.69 96.1 49.47 96.45 49.19C96.81 48.91 97.08 48.59 97.29 48.21C97.5 47.83 97.6 47.41 97.61 46.96L100.93 46.57C100.95 47.43 100.78 48.24 100.41 49.01C100.04 49.78 99.49 50.47 98.75 51.07C98.01 51.67 97.1 52.15 96.02 52.51L96 52.52Z" fill="#83351C"/>
<path d="M104.26 29L108.29 48.99L104.8 49.69L100.78 29.7L104.27 29H104.26Z" fill="#83351C"/>
<path d="M123.27 47.84C122.22 47.82 121.31 47.59 120.52 47.13C119.74 46.67 119.14 46.01 118.72 45.14C118.3 44.27 118.1 43.22 118.12 42L118.27 32.27L121.83 32.33L121.69 41.51C121.67 42.53 121.93 43.34 122.45 43.93C122.97 44.52 123.7 44.83 124.63 44.84C125.26 44.85 125.82 44.72 126.32 44.46C126.82 44.2 127.21 43.8 127.49 43.27C127.78 42.75 127.93 42.12 127.94 41.39L128.08 32.43L131.65 32.49L131.41 47.79L128.03 47.74L128.05 43.96H128.32C127.87 45.29 127.22 46.27 126.37 46.92C125.52 47.57 124.48 47.88 123.26 47.86L123.27 47.84Z" fill="#83351C"/>
<path d="M133.11 53.6799L137.45 33.1099L140.85 33.8299L140.33 36.3099L140.56 36.3599C140.81 36.0399 141.15 35.7099 141.57 35.3699C141.99 35.0299 142.51 34.7699 143.14 34.5899C143.77 34.4099 144.53 34.4099 145.41 34.5999C146.57 34.8499 147.55 35.3599 148.36 36.1499C149.16 36.9399 149.72 37.9599 150.03 39.2199C150.34 40.4799 150.32 41.9499 149.96 43.6099C149.61 45.2499 149.05 46.5899 148.27 47.6299C147.49 48.6699 146.57 49.3899 145.51 49.7999C144.45 50.2099 143.33 50.2799 142.14 50.0299C141.29 49.8499 140.61 49.5599 140.1 49.1499C139.59 48.7399 139.21 48.2899 138.96 47.8099C138.71 47.3299 138.53 46.8899 138.43 46.4899L138.28 46.4599L136.6 54.4299L133.12 53.6899L133.11 53.6799ZM141.8 46.9599C142.58 47.1199 143.27 47.0499 143.89 46.7399C144.51 46.4299 145.03 45.9299 145.45 45.2499C145.87 44.5699 146.18 43.7699 146.38 42.8399C146.58 41.9099 146.62 41.0499 146.51 40.2699C146.4 39.4899 146.13 38.8299 145.69 38.3099C145.25 37.7899 144.64 37.4399 143.85 37.2699C143.08 37.1099 142.39 37.1699 141.78 37.4599C141.17 37.7499 140.65 38.2299 140.23 38.8899C139.81 39.5499 139.49 40.3699 139.29 41.3399C139.08 42.3099 139.04 43.1899 139.16 43.9799C139.28 44.7699 139.56 45.4199 140 45.9399C140.44 46.4599 141.05 46.7999 141.81 46.9599H141.8Z" fill="#83351C"/>
</g>
<path d="M345.568 167.124L340.235 182.315C331.093 208.357 305.022 206.517 305.022 206.517C305.022 206.517 283.522 191.657 292.665 165.615L297.998 150.424C298.2 149.848 298.621 149.376 299.17 149.112C299.718 148.847 300.348 148.812 300.922 149.013L344.167 164.195C344.741 164.396 345.211 164.818 345.473 165.367C345.736 165.917 345.77 166.549 345.568 167.124Z" fill="#63D5D5"/>
<path d="M344.927 162.024L301.682 146.841C300.535 146.439 299.274 146.51 298.177 147.039C297.081 147.568 296.237 148.512 295.833 149.664L290.5 164.855C285.48 179.156 289.335 190.244 293.453 197.029C297.89 204.333 303.48 208.248 303.725 208.414C304.061 208.646 304.453 208.783 304.86 208.812C305.155 208.837 311.958 209.272 319.995 206.347C327.434 203.62 337.375 197.374 342.395 183.073L347.728 167.882C348.132 166.731 348.064 165.467 347.539 164.368C347.014 163.27 346.074 162.426 344.927 162.024ZM338.071 181.555C334.54 191.611 327.983 198.477 318.581 201.959C314.492 203.466 310.171 204.239 305.818 204.243C302.465 201.56 299.607 198.308 297.375 194.633C292.131 185.997 291.273 176.491 294.825 166.373L300.158 151.182L343.404 166.364L338.071 181.555Z" fill="#A5E7E7"/>
<path d="M321.721 158.955L305.849 204.167C311.876 205.013 322.141 200.999 325.583 198.399C331.675 195.459 336.292 186.5 337.839 182.388L343.394 166.564L321.721 158.955Z" fill="#37B9B9"/>
<path d="M58.6183 300.214L119.425 292.854L119.009 253.015L103.222 268.222L83.2052 248.484L68.4757 272.428L49.5162 261.427L58.6183 300.214Z" fill="#E8CE44"/>
<path d="M58.6183 300.214L89.0214 296.534L83.2052 248.484L68.4757 272.428L49.5162 261.427L58.6183 300.214Z" fill="#FFE24B"/>
<path d="M343.471 232.838L346.337 242.94C351.248 260.257 336.676 269.067 336.676 269.067C336.676 269.067 319.648 269.22 314.736 251.903L311.871 241.801C311.762 241.419 311.809 241.009 312.002 240.662C312.195 240.315 312.517 240.059 312.898 239.951L341.626 231.803C342.007 231.695 342.415 231.743 342.761 231.937C343.107 232.131 343.363 232.456 343.471 232.838Z" fill="#B4B4B4"/>
<path d="M341.215 230.36L312.487 238.508C311.725 238.724 311.081 239.235 310.695 239.929C310.31 240.623 310.216 241.443 310.433 242.209L313.298 252.31C315.995 261.82 322.212 266.284 326.953 268.354C332.058 270.581 336.505 270.569 336.698 270.565C336.964 270.563 337.224 270.489 337.452 270.352C337.618 270.254 341.404 267.931 344.584 263.353C347.521 259.105 350.469 252.042 347.771 242.532L344.906 232.431C344.689 231.665 344.178 231.017 343.486 230.629C342.794 230.24 341.977 230.143 341.215 230.36ZM344.899 243.347C346.795 250.034 345.882 256.157 342.184 261.545C340.573 263.884 338.562 265.919 336.246 267.556C333.453 267.385 330.71 266.724 328.142 265.604C322.106 262.969 318.079 258.224 316.171 251.496L313.306 241.394L342.034 233.246L344.899 243.347Z" fill="#CCCCCC"/>
<path d="M327.706 237.439L336.233 267.503C339.761 265.691 343.718 259.696 344.575 257.017C346.715 253.162 345.809 246.651 345.088 243.878L342.103 233.356L327.706 237.439Z" fill="#929292"/>
</g>
<defs>
<filter id="filter0_d_4967_1537" x="6.50732" y="322.507" width="155.124" height="155.124" filterUnits="userSpaceOnUse" color-interpolation-filters="sRGB">
<feFlood flood-opacity="0" result="BackgroundImageFix"/>
<feColorMatrix in="SourceAlpha" type="matrix" values="0 0 0 0 0 0 0 0 0 0 0 0 0 0 0 0 0 0 127 0" result="hardAlpha"/>
<feOffset dy="8"/>
<feGaussianBlur stdDeviation="14"/>
<feComposite in2="hardAlpha" operator="out"/>
<feColorMatrix type="matrix" values="0 0 0 0 0.505 0 0 0 0 0.285089 0 0 0 0 0.0269333 0 0 0 0.1 0"/>
<feBlend mode="normal" in2="BackgroundImageFix" result="effect1_dropShadow_4967_1537"/>
<feBlend mode="normal" in="SourceGraphic" in2="effect1_dropShadow_4967_1537" result="shape"/>
</filter>
<filter id="filter1_d_4967_1537" x="14.9329" y="330.933" width="138.272" height="138.272" filterUnits="userSpaceOnUse" color-interpolation-filters="sRGB">
<feFlood flood-opacity="0" result="BackgroundImageFix"/>
<feColorMatrix in="SourceAlpha" type="matrix" values="0 0 0 0 0 0 0 0 0 0 0 0 0 0 0 0 0 0 127 0" result="hardAlpha"/>
<feOffset dy="8"/>
<feGaussianBlur stdDeviation="14"/>
<feComposite in2="hardAlpha" operator="out"/>
<feColorMatrix type="matrix" values="0 0 0 0 0.505 0 0 0 0 0.285089 0 0 0 0 0.0269333 0 0 0 0.1 0"/>
<feBlend mode="normal" in2="BackgroundImageFix" result="effect1_dropShadow_4967_1537"/>
<feBlend mode="normal" in="SourceGraphic" in2="effect1_dropShadow_4967_1537" result="shape"/>
</filter>
<filter id="filter2_i_4967_1537" x="52.8452" y="360.845" width="66.448" height="66.4482" filterUnits="userSpaceOnUse" color-interpolation-filters="sRGB">
<feFlood flood-opacity="0" result="BackgroundImageFix"/>
<feBlend mode="normal" in="SourceGraphic" in2="BackgroundImageFix" result="shape"/>
<feColorMatrix in="SourceAlpha" type="matrix" values="0 0 0 0 0 0 0 0 0 0 0 0 0 0 0 0 0 0 127 0" result="hardAlpha"/>
<feOffset dx="4" dy="4"/>
<feGaussianBlur stdDeviation="2"/>
<feComposite in2="hardAlpha" operator="arithmetic" k2="-1" k3="1"/>
<feColorMatrix type="matrix" values="0 0 0 0 0.566667 0 0 0 0 0.380611 0 0 0 0 0.101528 0 0 0 0.25 0"/>
<feBlend mode="normal" in2="shape" result="effect1_innerShadow_4967_1537"/>
</filter>
<filter id="filter3_d_4967_1537" x="73.5405" y="380.226" width="28.7787" height="31.7612" filterUnits="userSpaceOnUse" color-interpolation-filters="sRGB">
<feFlood flood-opacity="0" result="BackgroundImageFix"/>
<feColorMatrix in="SourceAlpha" type="matrix" values="0 0 0 0 0 0 0 0 0 0 0 0 0 0 0 0 0 0 127 0" result="hardAlpha"/>
<feOffset dx="4" dy="4"/>
<feGaussianBlur stdDeviation="2"/>
<feComposite in2="hardAlpha" operator="out"/>
<feColorMatrix type="matrix" values="0 0 0 0 0.831667 0 0 0 0 0.542845 0 0 0 0 0 0 0 0 1 0"/>
<feBlend mode="normal" in2="BackgroundImageFix" result="effect1_dropShadow_4967_1537"/>
<feBlend mode="normal" in="SourceGraphic" in2="effect1_dropShadow_4967_1537" result="shape"/>
</filter>
<filter id="filter4_d_4967_1537" x="213.444" y="7.44385" width="154.795" height="154.795" filterUnits="userSpaceOnUse" color-interpolation-filters="sRGB">
<feFlood flood-opacity="0" result="BackgroundImageFix"/>
<feColorMatrix in="SourceAlpha" type="matrix" values="0 0 0 0 0 0 0 0 0 0 0 0 0 0 0 0 0 0 127 0" result="hardAlpha"/>
<feOffset dy="8"/>
<feGaussianBlur stdDeviation="14"/>
<feComposite in2="hardAlpha" operator="out"/>
<feColorMatrix type="matrix" values="0 0 0 0 0.505 0 0 0 0 0.285089 0 0 0 0 0.0269333 0 0 0 0.1 0"/>
<feBlend mode="normal" in2="BackgroundImageFix" result="effect1_dropShadow_4967_1537"/>
<feBlend mode="normal" in="SourceGraphic" in2="effect1_dropShadow_4967_1537" result="shape"/>
</filter>
<filter id="filter5_d_4967_1537" x="221.842" y="15.8418" width="138" height="138" filterUnits="userSpaceOnUse" color-interpolation-filters="sRGB">
<feFlood flood-opacity="0" result="BackgroundImageFix"/>
<feColorMatrix in="SourceAlpha" type="matrix" values="0 0 0 0 0 0 0 0 0 0 0 0 0 0 0 0 0 0 127 0" result="hardAlpha"/>
<feOffset dy="8"/>
<feGaussianBlur stdDeviation="14"/>
<feComposite in2="hardAlpha" operator="out"/>
<feColorMatrix type="matrix" values="0 0 0 0 0.505 0 0 0 0 0.285089 0 0 0 0 0.0269333 0 0 0 0.1 0"/>
<feBlend mode="normal" in2="BackgroundImageFix" result="effect1_dropShadow_4967_1537"/>
<feBlend mode="normal" in="SourceGraphic" in2="effect1_dropShadow_4967_1537" result="shape"/>
</filter>
<filter id="filter6_i_4967_1537" x="259.721" y="45.7212" width="66.241" height="66.2412" filterUnits="userSpaceOnUse" color-interpolation-filters="sRGB">
<feFlood flood-opacity="0" result="BackgroundImageFix"/>
<feBlend mode="normal" in="SourceGraphic" in2="BackgroundImageFix" result="shape"/>
<feColorMatrix in="SourceAlpha" type="matrix" values="0 0 0 0 0 0 0 0 0 0 0 0 0 0 0 0 0 0 127 0" result="hardAlpha"/>
<feOffset dx="4" dy="4"/>
<feGaussianBlur stdDeviation="2"/>
<feComposite in2="hardAlpha" operator="arithmetic" k2="-1" k3="1"/>
<feColorMatrix type="matrix" values="0 0 0 0 0.566667 0 0 0 0 0.380611 0 0 0 0 0.101528 0 0 0 0.25 0"/>
<feBlend mode="normal" in2="shape" result="effect1_innerShadow_4967_1537"/>
</filter>
<filter id="filter7_d_4967_1537" x="283.079" y="64.646" width="20.9514" height="31.4053" filterUnits="userSpaceOnUse" color-interpolation-filters="sRGB">
<feFlood flood-opacity="0" result="BackgroundImageFix"/>
<feColorMatrix in="SourceAlpha" type="matrix" values="0 0 0 0 0 0 0 0 0 0 0 0 0 0 0 0 0 0 127 0" result="hardAlpha"/>
<feOffset dx="4" dy="4"/>
<feGaussianBlur stdDeviation="2"/>
<feComposite in2="hardAlpha" operator="out"/>
<feColorMatrix type="matrix" values="0 0 0 0 0.831667 0 0 0 0 0.542845 0 0 0 0 0 0 0 0 1 0"/>
<feBlend mode="normal" in2="BackgroundImageFix" result="effect1_dropShadow_4967_1537"/>
<feBlend mode="normal" in="SourceGraphic" in2="effect1_dropShadow_4967_1537" result="shape"/>
</filter>
<filter id="filter8_d_4967_1537" x="24.9907" y="46.9907" width="202.703" height="202.703" filterUnits="userSpaceOnUse" color-interpolation-filters="sRGB">
<feFlood flood-opacity="0" result="BackgroundImageFix"/>
<feColorMatrix in="SourceAlpha" type="matrix" values="0 0 0 0 0 0 0 0 0 0 0 0 0 0 0 0 0 0 127 0" result="hardAlpha"/>
<feOffset dy="8"/>
<feGaussianBlur stdDeviation="14"/>
<feComposite in2="hardAlpha" operator="out"/>
<feColorMatrix type="matrix" values="0 0 0 0 0.505 0 0 0 0 0.285089 0 0 0 0 0.0269333 0 0 0 0.1 0"/>
<feBlend mode="normal" in2="BackgroundImageFix" result="effect1_dropShadow_4967_1537"/>
<feBlend mode="normal" in="SourceGraphic" in2="effect1_dropShadow_4967_1537" result="shape"/>
</filter>
<filter id="filter9_d_4967_1537" x="37.4604" y="59.4604" width="177.763" height="177.763" filterUnits="userSpaceOnUse" color-interpolation-filters="sRGB">
<feFlood flood-opacity="0" result="BackgroundImageFix"/>
<feColorMatrix in="SourceAlpha" type="matrix" values="0 0 0 0 0 0 0 0 0 0 0 0 0 0 0 0 0 0 127 0" result="hardAlpha"/>
<feOffset dy="8"/>
<feGaussianBlur stdDeviation="14"/>
<feComposite in2="hardAlpha" operator="out"/>
<feColorMatrix type="matrix" values="0 0 0 0 0.505 0 0 0 0 0.285089 0 0 0 0 0.0269333 0 0 0 0.1 0"/>
<feBlend mode="normal" in2="BackgroundImageFix" result="effect1_dropShadow_4967_1537"/>
<feBlend mode="normal" in="SourceGraphic" in2="effect1_dropShadow_4967_1537" result="shape"/>
</filter>
<filter id="filter10_i_4967_1537" x="80.1311" y="94.1309" width="96.4226" height="96.4229" filterUnits="userSpaceOnUse" color-interpolation-filters="sRGB">
<feFlood flood-opacity="0" result="BackgroundImageFix"/>
<feBlend mode="normal" in="SourceGraphic" in2="BackgroundImageFix" result="shape"/>
<feColorMatrix in="SourceAlpha" type="matrix" values="0 0 0 0 0 0 0 0 0 0 0 0 0 0 0 0 0 0 127 0" result="hardAlpha"/>
<feOffset dx="4" dy="4"/>
<feGaussianBlur stdDeviation="2"/>
<feComposite in2="hardAlpha" operator="arithmetic" k2="-1" k3="1"/>
<feColorMatrix type="matrix" values="0 0 0 0 0.566667 0 0 0 0 0.380611 0 0 0 0 0.101528 0 0 0 0.25 0"/>
<feBlend mode="normal" in2="shape" result="effect1_innerShadow_4967_1537"/>
</filter>
<filter id="filter11_d_4967_1537" x="121.938" y="119.004" width="38.3461" height="43.2754" filterUnits="userSpaceOnUse" color-interpolation-filters="sRGB">
<feFlood flood-opacity="0" result="BackgroundImageFix"/>
<feColorMatrix in="SourceAlpha" type="matrix" values="0 0 0 0 0 0 0 0 0 0 0 0 0 0 0 0 0 0 127 0" result="hardAlpha"/>
<feOffset dx="4" dy="4"/>
<feGaussianBlur stdDeviation="2"/>
<feComposite in2="hardAlpha" operator="out"/>
<feColorMatrix type="matrix" values="0 0 0 0 0.831667 0 0 0 0 0.542845 0 0 0 0 0 0 0 0 1 0"/>
<feBlend mode="normal" in2="BackgroundImageFix" result="effect1_dropShadow_4967_1537"/>
<feBlend mode="normal" in="SourceGraphic" in2="effect1_dropShadow_4967_1537" result="shape"/>
</filter>
<filter id="filter12_d_4967_1537" x="97.5504" y="127.469" width="32.6636" height="42.9438" filterUnits="userSpaceOnUse" color-interpolation-filters="sRGB">
<feFlood flood-opacity="0" result="BackgroundImageFix"/>
<feColorMatrix in="SourceAlpha" type="matrix" values="0 0 0 0 0 0 0 0 0 0 0 0 0 0 0 0 0 0 127 0" result="hardAlpha"/>
<feOffset dx="4" dy="4"/>
<feGaussianBlur stdDeviation="2"/>
<feComposite in2="hardAlpha" operator="out"/>
<feColorMatrix type="matrix" values="0 0 0 0 0.831667 0 0 0 0 0.542845 0 0 0 0 0 0 0 0 1 0"/>
<feBlend mode="normal" in2="BackgroundImageFix" result="effect1_dropShadow_4967_1537"/>
<feBlend mode="normal" in="SourceGraphic" in2="effect1_dropShadow_4967_1537" result="shape"/>
</filter>
<filter id="filter13_d_4967_1537" x="74" y="143" width="250" height="250" filterUnits="userSpaceOnUse" color-interpolation-filters="sRGB">
<feFlood flood-opacity="0" result="BackgroundImageFix"/>
<feColorMatrix in="SourceAlpha" type="matrix" values="0 0 0 0 0 0 0 0 0 0 0 0 0 0 0 0 0 0 127 0" result="hardAlpha"/>
<feOffset dy="8"/>
<feGaussianBlur stdDeviation="14"/>
<feComposite in2="hardAlpha" operator="out"/>
<feColorMatrix type="matrix" values="0 0 0 0 0.505 0 0 0 0 0.285089 0 0 0 0 0.0269333 0 0 0 0.1 0"/>
<feBlend mode="normal" in2="BackgroundImageFix" result="effect1_dropShadow_4967_1537"/>
<feBlend mode="normal" in="SourceGraphic" in2="effect1_dropShadow_4967_1537" result="shape"/>
</filter>
<radialGradient id="paint0_radial_4967_1537" cx="0" cy="0" r="1" gradientUnits="userSpaceOnUse" gradientTransform="translate(198.5 237.5) rotate(90) scale(289.5)">
<stop stop-color="#FFE4B0"/>
<stop offset="1" stop-color="#FFE4B0" stop-opacity="0"/>
</radialGradient>
<linearGradient id="paint1_linear_4967_1537" x1="54.3401" y1="361.597" x2="115.78" y2="415.605" gradientUnits="userSpaceOnUse">
<stop stop-color="#FDC805"/>
<stop offset="0.5" stop-color="#FFDE66"/>
<stop offset="1" stop-color="#FDBB00"/>
</linearGradient>
<linearGradient id="paint2_linear_4967_1537" x1="57.0653" y1="364.57" x2="112.064" y2="421.551" gradientUnits="userSpaceOnUse">
<stop stop-color="#FFF0CB"/>
<stop offset="1" stop-color="white"/>
</linearGradient>
<linearGradient id="paint3_linear_4967_1537" x1="261.211" y1="46.4703" x2="322.447" y2="100.299" gradientUnits="userSpaceOnUse">
<stop stop-color="#FDC805"/>
<stop offset="0.5" stop-color="#FFDE66"/>
<stop offset="1" stop-color="#FDBB00"/>
</linearGradient>
<linearGradient id="paint4_linear_4967_1537" x1="263.927" y1="49.4334" x2="318.744" y2="106.225" gradientUnits="userSpaceOnUse">
<stop stop-color="#FFF0CB"/>
<stop offset="1" stop-color="white"/>
</linearGradient>
<linearGradient id="paint5_linear_4967_1537" x1="82.3433" y1="95.2433" x2="173.274" y2="175.174" gradientUnits="userSpaceOnUse">
<stop stop-color="#FDC805"/>
<stop offset="0.5" stop-color="#FFDE66"/>
<stop offset="1" stop-color="#FDBB00"/>
</linearGradient>
<linearGradient id="paint6_linear_4967_1537" x1="86.3767" y1="99.6429" x2="167.774" y2="183.974" gradientUnits="userSpaceOnUse">
<stop stop-color="#FFF0CB"/>
<stop offset="1" stop-color="white"/>
</linearGradient>
<clipPath id="clip0_4967_1537">
<rect width="398" height="475" rx="20" fill="white"/>
</clipPath>
<clipPath id="clip1_4967_1537">
<rect width="140.1" height="55.26" fill="white" transform="translate(160.543 385.304) rotate(-28.5382)"/>
</clipPath>
<clipPath id="clip2_4967_1537">
<rect width="111.24" height="53.08" fill="white" transform="translate(39 29)"/>
</clipPath>
</defs>
</svg>
