<svg width="1518" height="1518" viewBox="0 0 1518 1518" fill="none" xmlns="http://www.w3.org/2000/svg">
<g opacity="0.5" clip-path="url(#clip0_2646_5351)">
<path d="M849.795 1518H668.205L759 759L849.795 1518Z" fill="#FFE4B0"/>
<path d="M458.13 1461.72L300.87 1370.92L759 759L458.13 1461.72Z" fill="#FFE4B0"/>
<path d="M147.08 1217.13L56.2849 1059.87L759 759L147.08 1217.13Z" fill="#FFE4B0"/>
<path d="M0 849.795V668.205L759 759L0 849.795Z" fill="#FFE4B0"/>
<path d="M56.2849 458.13L147.08 300.871L759 759L56.2849 458.13Z" fill="#FFE4B0"/>
<path d="M300.87 147.08L458.13 56.2852L759 759L300.87 147.08Z" fill="#FFE4B0"/>
<path d="M668.205 0H849.795L759 759L668.205 0Z" fill="#FFE4B0"/>
<path d="M1059.87 56.2852L1217.13 147.08L759 759L1059.87 56.2852Z" fill="#FFE4B0"/>
<path d="M1370.92 300.871L1461.72 458.13L759 759L1370.92 300.871Z" fill="#FFE4B0"/>
<path d="M1518 668.205V849.795L759 759L1518 668.205Z" fill="#FFE4B0"/>
<path d="M1461.72 1059.87L1370.92 1217.13L759 759L1461.72 1059.87Z" fill="#FFE4B0"/>
<path d="M1217.13 1370.92L1059.87 1461.72L759 759L1217.13 1370.92Z" fill="#FFE4B0"/>
<path d="M849.795 1518H668.205L759 759L849.795 1518Z" fill="#FFE4B0"/>
</g>
<defs>
<clipPath id="clip0_2646_5351">
<rect width="1518" height="1518" fill="white"/>
</clipPath>
</defs>
</svg>
