<svg width="33" height="32" viewBox="0 0 33 32" fill="none" xmlns="http://www.w3.org/2000/svg">
<path d="M27.5621 10.4537L27.5535 10.4623C28.0587 11.0759 28.3175 11.8557 28.2795 12.6496C28.2414 13.4436 27.9093 14.195 27.3477 14.7575C27.0515 15.0551 26.6995 15.2912 26.3118 15.4523C25.9242 15.6134 25.5085 15.6963 25.0887 15.6963C24.6688 15.6963 24.2532 15.6134 23.8655 15.4523C23.4778 15.2912 23.1258 15.0551 22.8296 14.7575C22.3037 14.2339 21.9768 13.5432 21.9054 12.8045L20.3587 14.352L19.1456 13.1397L20.6425 11.6437C19.948 11.5517 19.3033 11.2328 18.8087 10.7366C18.5112 10.4405 18.2751 10.0884 18.114 9.70074C17.9529 9.31306 17.8699 8.89738 17.8699 8.47756C17.8699 8.05774 17.9529 7.64206 18.114 7.25438C18.2751 6.8667 18.5112 6.51467 18.8087 6.21849C19.3589 5.66834 20.091 5.3378 20.8675 5.28887C21.6441 5.23994 22.4118 5.47598 23.0268 5.95271L23.0439 5.93557C24.287 4.68386 26.3104 4.69243 27.5621 5.93557C27.8596 6.23175 28.0957 6.58378 28.2568 6.97146C28.4179 7.35914 28.5008 7.77482 28.5008 8.19464C28.5008 8.61446 28.4179 9.03014 28.2568 9.41782C28.0957 9.8055 27.8596 10.1575 27.5621 10.4537Z" fill="#58CC02"/>
<path opacity="0.2" d="M27.5591 10.4537L27.5506 10.4623C27.9979 9.70074 27.5787 8.11401 26.9979 7.5C26.4979 6.97146 25.6754 6.5 24.9979 6.5C24.3203 6.5 23.4287 7.09328 23.041 7.25438C21.9979 7 21.2607 7.19493 21.0966 7.25438C20.9909 7.29271 19.9358 7.66766 19.6696 8.47756C19.4979 9 19.4979 10 19.7616 10.7366C19.9302 11.2074 20.6396 12 20.9979 12L19.4979 13.5L19.1427 13.1397L20.6396 11.6437C19.9451 11.5517 19.3004 11.2328 18.8058 10.7366C18.5082 10.4405 18.2721 10.0884 18.111 9.70074C17.9499 9.31306 17.867 8.89738 17.867 8.47756C17.867 8.05774 17.9499 7.64206 18.111 7.25438C18.2721 6.8667 18.5082 6.51467 18.8058 6.21849C19.356 5.66834 20.088 5.3378 20.8646 5.28887C21.6412 5.23994 22.4089 5.47598 23.0238 5.95271L23.041 5.93557C24.2841 4.68386 26.3074 4.69243 27.5591 5.93557C27.8567 6.23175 28.0928 6.58378 28.2539 6.97146C28.415 7.35914 28.4979 7.77482 28.4979 8.19464C28.4979 8.61446 28.415 9.03014 28.2539 9.41782C28.0928 9.8055 27.8389 10.187 27.5591 10.4537Z" fill="#EEFAE6"/>
<path d="M6.76332 28.9121L20.2663 24.5397C24.1329 23.288 25.3074 18.3927 22.4354 15.5206L17.9772 11.0625C15.1052 8.19038 10.2098 9.3735 8.95809 13.2315L4.58569 26.7345C4.14845 28.0805 5.41731 29.3494 6.76332 28.9121Z" fill="#F17D53"/>
<path d="M13.3914 19.9273C13.8114 19.5072 13.8114 18.8299 13.3914 18.4013L8.7789 13.7888L8.03302 16.0865L11.8653 19.9188C12.2854 20.3474 12.9713 20.3474 13.3914 19.9273ZM10.1506 23.8282C9.73054 24.2483 9.73054 24.9256 10.1506 25.3542L12.011 27.2147L14.3087 26.4688L11.6681 23.8282C11.5686 23.7284 11.4503 23.6492 11.3201 23.5952C11.1899 23.5412 11.0503 23.5134 10.9094 23.5134C10.7684 23.5134 10.6288 23.5412 10.4986 23.5952C10.3684 23.6492 10.2502 23.7284 10.1506 23.8282ZM16.7178 19.5587C16.2977 19.13 16.2977 18.4527 16.7178 18.0326C17.1379 17.6125 17.8152 17.6125 18.2439 18.0412L22.8992 22.6965C22.4705 23.2624 21.9218 23.7425 21.2702 24.1111L16.7178 19.5587Z" fill="#EE5D28"/>
<path opacity="0.2" d="M6.76332 28.9429L10.4979 18C13.9979 11.5 18.4979 14.2377 18.9979 12L17.9772 11.0932C15.1052 8.22115 10.2098 9.40427 8.95809 13.2623L4.58569 26.7653C4.14845 28.1113 5.41731 29.3801 6.76332 28.9429Z" fill="#FDEFEA"/>
</svg>
