<svg width="20" height="20" viewBox="0 0 20 20" fill="none" xmlns="http://www.w3.org/2000/svg">
<path d="M12.4206 4.98315C12.4605 4.37724 12.6323 3.78335 12.8969 3.24087C13.0883 2.84935 13.2686 2.4202 13.6175 2.13788C13.727 2.05113 13.8695 1.99092 14.0046 2.0249C14.2167 2.07897 14.3102 2.31084 14.4082 2.4815C14.5268 2.69288 14.7141 2.83807 14.9584 2.72252C15.1715 2.62279 15.293 2.40417 15.5012 2.29504C15.8599 2.10999 16.3312 2.24147 16.5944 2.52916C16.8718 2.82934 16.9601 3.32331 16.723 3.67109C16.6341 3.79856 16.4244 3.95948 16.4518 4.13042C16.4792 4.30136 16.7006 4.34284 16.8358 4.39251C17.0432 4.46857 17.2149 4.60597 17.2503 4.83965C17.2729 4.98551 17.2327 5.13161 17.1752 5.2668C16.8113 6.08745 15.8426 6.38012 15.0971 6.73308" fill="#5CAA27"/>
<path d="M12.3275 5.17168C12.4191 4.93278 12.8151 3.90329 13.243 3.3884C13.5225 3.04673 13.7047 3.06483 13.7471 3.07093C13.8099 3.07852 13.8774 3.10336 13.9436 3.15645C14.0223 3.2189 14.0697 3.30502 14.1234 3.38798C14.196 3.50067 14.2955 3.63523 14.4398 3.64092C14.5325 3.64526 14.6185 3.58998 14.692 3.52535C14.7781 3.45438 14.8578 3.37089 14.9485 3.30932C15.3617 3.02988 15.9186 3.37758 16.0177 3.81501C16.0545 3.98121 16.0317 4.16177 15.9349 4.30497C15.8835 4.38207 15.8162 4.44355 15.7679 4.51907C15.732 4.58042 15.7213 4.62911 15.7308 4.67144C15.7709 4.87529 16.176 4.9223 16.2723 5.08198C16.3908 5.27766 16.0743 5.78739 14.8124 6.90827" fill="#6CB837"/>
<path d="M14.1355 5.68518C13.405 5.11063 12.5076 4.77372 11.626 4.86517C10.5562 4.97307 9.61562 5.61714 8.85428 6.33582C6.5046 8.55646 4.90328 11.5038 4.34651 14.6902C4.28665 15.0231 4.23781 15.3623 4.19836 15.6967C4.11651 16.4142 4.03151 17.5146 4.68014 18.0283C5.38702 18.5872 6.59475 18.0441 7.29022 17.7243C8.66396 17.0973 9.9095 16.2009 11.1126 15.2984C13.0276 13.8594 14.922 11.967 15.5903 9.59313C16.0158 8.09273 15.3162 6.61414 14.1355 5.68518Z" fill="#FE8D0C"/>
<path d="M7.82483 10.202C8.03971 9.91258 8.05876 9.56277 7.86738 9.42067C7.67599 9.27857 7.34664 9.39799 7.13176 9.6874C6.91687 9.97681 6.89782 10.3266 7.08921 10.4687C7.2806 10.6108 7.60994 10.4914 7.82483 10.202Z" fill="#FD9F30"/>
<path d="M9.56345 8.46328C10.0238 8.00005 10.1809 7.40967 9.91421 7.14465C9.64754 6.87962 9.05815 7.04029 8.59776 7.50353C8.13738 7.96676 7.98034 8.55713 8.24701 8.82216C8.51367 9.08719 9.10307 8.92652 9.56345 8.46328Z" fill="#FD9F30"/>
</svg>
