<svg width="24" height="25" viewBox="0 0 24 25" fill="none" xmlns="http://www.w3.org/2000/svg">
<rect y="0.5" width="24" height="24" rx="12" fill="#24AE26"/>
<path d="M18.3785 7.53503L18.3785 7.535C18.1959 7.35251 17.9484 7.25 17.6903 7.25C17.4322 7.25 17.1846 7.35252 17.0021 7.535L17.0021 7.53503L9.98363 14.5534C9.98362 14.5535 9.98362 14.5535 9.98361 14.5535C9.89483 14.6422 9.77445 14.6921 9.64894 14.6921C9.52342 14.6921 9.40304 14.6422 9.31427 14.5535C9.31426 14.5535 9.31425 14.5535 9.31424 14.5534L6.99794 12.2371L6.99791 12.2371C6.81537 12.0546 6.56783 11.9521 6.30972 11.9521C6.0516 11.9521 5.80406 12.0546 5.62152 12.2371L5.62149 12.2371L5.36541 12.4932L5.36538 12.4932C5.1829 12.6758 5.08038 12.9233 5.08038 13.1814C5.08038 13.4396 5.1829 13.6871 5.36538 13.8696L5.36541 13.8697L8.96072 17.465L8.96074 17.465C9.14328 17.6475 9.39083 17.75 9.64894 17.75C9.90705 17.75 10.1546 17.6475 10.3371 17.465L10.3372 17.465L18.6346 9.16755L18.6346 9.16753C18.8171 8.98499 18.9196 8.73744 18.9196 8.47933C18.9196 8.22122 18.8171 7.97368 18.6346 7.79114L18.6346 7.79111L18.3785 7.53503Z" fill="#F9F7F7" stroke="#F9F7F7" stroke-width="0.5"/>
</svg>
