<svg width="24" height="24" viewBox="0 0 24 24" fill="none" xmlns="http://www.w3.org/2000/svg">
<rect width="24" height="24" rx="12" fill="#EA2121"/>
<mask id="path-2-outside-1_1927_2786" maskUnits="userSpaceOnUse" x="6.00018" y="6" width="12" height="12" fill="black">
<rect fill="white" x="6.00018" y="6" width="12" height="12"/>
<path d="M8.49113 7.24544L12 10.7543L15.4906 7.26362C15.5677 7.18155 15.6606 7.1159 15.7637 7.0706C15.8668 7.0253 15.978 7.00129 16.0906 7C16.3317 7 16.5629 7.09577 16.7334 7.26625C16.9038 7.43672 16.9996 7.66794 16.9996 7.90903C17.0017 8.02047 16.9811 8.13118 16.9388 8.23435C16.8966 8.33752 16.8338 8.43097 16.7542 8.50898L13.2181 11.9996L16.7542 15.5358C16.904 15.6823 16.9919 15.8808 16.9996 16.0903C16.9996 16.3313 16.9038 16.5626 16.7334 16.733C16.5629 16.9035 16.3317 16.9993 16.0906 16.9993C15.9747 17.0041 15.8592 16.9848 15.7512 16.9425C15.6432 16.9002 15.5452 16.836 15.4634 16.7538L12 13.245L8.50022 16.7448C8.42342 16.8241 8.33166 16.8874 8.23024 16.9311C8.12883 16.9748 8.01977 16.998 7.90936 16.9993C7.66827 16.9993 7.43705 16.9035 7.26658 16.733C7.0961 16.5626 7.00033 16.3313 7.00033 16.0903C6.99821 15.9788 7.01889 15.8681 7.06109 15.7649C7.1033 15.6618 7.16614 15.5683 7.24577 15.4903L10.7819 11.9996L7.24577 8.46353C7.09595 8.31696 7.00809 8.11848 7.00033 7.90903C7.00033 7.66794 7.0961 7.43672 7.26658 7.26625C7.43705 7.09577 7.66827 7 7.90936 7C8.12752 7.00273 8.3366 7.0909 8.49113 7.24544Z"/>
</mask>
<path d="M8.49113 7.24544L12 10.7543L15.4906 7.26362C15.5677 7.18155 15.6606 7.1159 15.7637 7.0706C15.8668 7.0253 15.978 7.00129 16.0906 7C16.3317 7 16.5629 7.09577 16.7334 7.26625C16.9038 7.43672 16.9996 7.66794 16.9996 7.90903C17.0017 8.02047 16.9811 8.13118 16.9388 8.23435C16.8966 8.33752 16.8338 8.43097 16.7542 8.50898L13.2181 11.9996L16.7542 15.5358C16.904 15.6823 16.9919 15.8808 16.9996 16.0903C16.9996 16.3313 16.9038 16.5626 16.7334 16.733C16.5629 16.9035 16.3317 16.9993 16.0906 16.9993C15.9747 17.0041 15.8592 16.9848 15.7512 16.9425C15.6432 16.9002 15.5452 16.836 15.4634 16.7538L12 13.245L8.50022 16.7448C8.42342 16.8241 8.33166 16.8874 8.23024 16.9311C8.12883 16.9748 8.01977 16.998 7.90936 16.9993C7.66827 16.9993 7.43705 16.9035 7.26658 16.733C7.0961 16.5626 7.00033 16.3313 7.00033 16.0903C6.99821 15.9788 7.01889 15.8681 7.06109 15.7649C7.1033 15.6618 7.16614 15.5683 7.24577 15.4903L10.7819 11.9996L7.24577 8.46353C7.09595 8.31696 7.00809 8.11848 7.00033 7.90903C7.00033 7.66794 7.0961 7.43672 7.26658 7.26625C7.43705 7.09577 7.66827 7 7.90936 7C8.12752 7.00273 8.3366 7.0909 8.49113 7.24544Z" fill="#F9F7F7"/>
<path d="M8.49113 7.24544L12 10.7543L15.4906 7.26362C15.5677 7.18155 15.6606 7.1159 15.7637 7.0706C15.8668 7.0253 15.978 7.00129 16.0906 7C16.3317 7 16.5629 7.09577 16.7334 7.26625C16.9038 7.43672 16.9996 7.66794 16.9996 7.90903C17.0017 8.02047 16.9811 8.13118 16.9388 8.23435C16.8966 8.33752 16.8338 8.43097 16.7542 8.50898L13.2181 11.9996L16.7542 15.5358C16.904 15.6823 16.9919 15.8808 16.9996 16.0903C16.9996 16.3313 16.9038 16.5626 16.7334 16.733C16.5629 16.9035 16.3317 16.9993 16.0906 16.9993C15.9747 17.0041 15.8592 16.9848 15.7512 16.9425C15.6432 16.9002 15.5452 16.836 15.4634 16.7538L12 13.245L8.50022 16.7448C8.42342 16.8241 8.33166 16.8874 8.23024 16.9311C8.12883 16.9748 8.01977 16.998 7.90936 16.9993C7.66827 16.9993 7.43705 16.9035 7.26658 16.733C7.0961 16.5626 7.00033 16.3313 7.00033 16.0903C6.99821 15.9788 7.01889 15.8681 7.06109 15.7649C7.1033 15.6618 7.16614 15.5683 7.24577 15.4903L10.7819 11.9996L7.24577 8.46353C7.09595 8.31696 7.00809 8.11848 7.00033 7.90903C7.00033 7.66794 7.0961 7.43672 7.26658 7.26625C7.43705 7.09577 7.66827 7 7.90936 7C8.12752 7.00273 8.3366 7.0909 8.49113 7.24544Z" stroke="#F9F7F7" mask="url(#path-2-outside-1_1927_2786)"/>
</svg>
