<svg width="24" height="25" viewBox="0 0 24 25" fill="none" xmlns="http://www.w3.org/2000/svg">
<rect y="0.5" width="24" height="24" rx="12" fill="#EA2121"/>
<path d="M12 10.9007L8.66791 7.56866C8.46732 7.36807 8.19595 7.25356 7.91248 7.25002L7.91248 7.25H7.90936C7.60196 7.25 7.30716 7.37211 7.0898 7.58947C6.87244 7.80683 6.75033 8.10163 6.75033 8.40903H6.75016L6.7505 8.41828C6.76062 8.69125 6.87493 8.94995 7.0699 9.14121L10.4272 12.4985L7.07081 15.8117C7.0707 15.8118 7.07058 15.8119 7.07046 15.8121C6.96667 15.9138 6.88475 16.0357 6.82971 16.1703L7.06109 16.2649L6.82971 16.1703C6.77491 16.3042 6.74791 16.4479 6.75033 16.5926C6.75033 16.5918 6.75033 16.591 6.75033 16.5903L12 10.9007ZM12 10.9007L15.3113 7.58941C15.4109 7.48422 15.5305 7.4 15.6631 7.34172C15.7971 7.28288 15.9415 7.25169 16.0877 7.25002L16.0906 7.24998C16.398 7.25 16.6928 7.37211 16.9101 7.58947C17.1269 7.80627 17.249 8.1001 17.2496 8.40663C17.252 8.55134 17.225 8.69504 17.1702 8.82901C17.1152 8.96351 17.0333 9.08538 16.9296 9.18714C16.9294 9.18728 16.9293 9.18742 16.9291 9.18756L13.5728 12.5008L16.9301 15.8581C17.125 16.0494 17.2393 16.308 17.2494 16.581L17.2498 16.5903H17.2496C17.2496 16.8976 17.1275 17.1925 16.9101 17.4098C16.694 17.626 16.4013 17.7479 16.0958 17.7493C15.947 17.7547 15.7987 17.7296 15.6601 17.6753C15.5198 17.6204 15.3925 17.537 15.2862 17.4303L15.2854 17.4295L11.9988 14.0997L8.67834 17.4202L12 10.9007Z" fill="#F9F7F7" stroke="#F9F7F7" stroke-width="0.5"/>
</svg>
