<svg width="71" height="71" viewBox="0 0 71 71" fill="none" xmlns="http://www.w3.org/2000/svg">
<mask id="mask0_1659_3967" style="mask-type:alpha" maskUnits="userSpaceOnUse" x="0" y="0" width="71" height="71">
<rect width="71" height="71" fill="#D9D9D9"/>
</mask>
<g mask="url(#mask0_1659_3967)">
<path d="M-12 0H82.7255V71.0441H-12V0Z" fill="#012169"/>
<path d="M-0.899359 0L35.2147 26.7895L71.1808 0H82.7255V9.17653L47.2034 35.6701L82.7255 62.0156V71.0441H70.8848L35.3627 44.5506L-0.0113068 71.0441H-12V62.1636L23.374 35.8181L-12 9.47255V0H-0.899359Z" fill="white"/>
<path d="M50.7556 41.5904L82.7255 65.1238V71.0441L42.6152 41.5904H50.7556ZM23.5221 44.5506L24.4101 49.7309L-4.00754 71.0441H-12L23.5221 44.5506ZM82.7255 0V0.444026L45.8713 28.2696L46.1674 21.7573L75.3251 0H82.7255ZM-12 0L23.374 26.0495H14.4935L-12 6.21636V0Z" fill="#C8102E"/>
<path d="M23.6701 0V71.0441H47.3514V0H23.6701ZM-12 23.6814V47.3627H82.7255V23.6814H-12Z" fill="white"/>
<path d="M-12 28.5657V42.7745H82.7255V28.5657H-12ZM28.4063 0V71.0441H42.6152V0H28.4063Z" fill="#C8102E"/>
</g>
</svg>
