<svg width="146" height="54" viewBox="0 0 146 54" fill="none" xmlns="http://www.w3.org/2000/svg">
<path d="M35.3939 -3.8147e-06V9.91837H45.3485L35.3939 -3.8147e-06Z" fill="#EBF7FF"/>
<path d="M0 38.5714C0 47.0924 6.9328 54 15.4848 54H130.515C139.067 54 146 47.0924 146 38.5714V25.3469C146 16.826 139.067 9.91837 130.515 9.91837H15.4849C6.93281 9.91837 0 16.826 0 25.3469V38.5714Z" fill="#EBF7FF"/>
<path d="M24.3906 40V24H27.7734V37.2109H34.6328V40H24.3906ZM36.8105 40V28H40.1387V40H36.8105ZM38.4824 26.4531C37.9876 26.4531 37.5632 26.2891 37.209 25.9609C36.86 25.6276 36.6855 25.2292 36.6855 24.7656C36.6855 24.3073 36.86 23.9141 37.209 23.5859C37.5632 23.2526 37.9876 23.0859 38.4824 23.0859C38.9772 23.0859 39.3991 23.2526 39.748 23.5859C40.1022 23.9141 40.2793 24.3073 40.2793 24.7656C40.2793 25.2292 40.1022 25.6276 39.748 25.9609C39.3991 26.2891 38.9772 26.4531 38.4824 26.4531ZM52.7891 31.4219L49.7422 31.6094C49.6901 31.349 49.5781 31.1146 49.4063 30.9062C49.2344 30.6927 49.0078 30.5234 48.7266 30.3984C48.4505 30.2682 48.1198 30.2031 47.7344 30.2031C47.2188 30.2031 46.7839 30.3125 46.4297 30.5312C46.0755 30.7448 45.8984 31.0312 45.8984 31.3906C45.8984 31.6771 46.013 31.9193 46.2422 32.1172C46.4714 32.3151 46.8646 32.474 47.4219 32.5937L49.5938 33.0312C50.7604 33.2708 51.6302 33.6562 52.2031 34.1875C52.776 34.7187 53.0625 35.4167 53.0625 36.2812C53.0625 37.0677 52.8307 37.7578 52.3672 38.3516C51.9089 38.9453 51.2786 39.4089 50.4766 39.7422C49.6797 40.0703 48.7604 40.2344 47.7188 40.2344C46.1302 40.2344 44.8646 39.9036 43.9219 39.2422C42.9844 38.5755 42.4349 37.6693 42.2734 36.5234L45.5469 36.3516C45.6458 36.8359 45.8854 37.2057 46.2656 37.4609C46.6458 37.7109 47.1328 37.8359 47.7266 37.8359C48.3099 37.8359 48.7786 37.724 49.1328 37.5C49.4922 37.2708 49.6745 36.9766 49.6797 36.6172C49.6745 36.3151 49.5469 36.0677 49.2969 35.875C49.0469 35.6771 48.6615 35.526 48.1406 35.4219L46.0625 35.0078C44.8906 34.7734 44.0182 34.3672 43.4453 33.7891C42.8776 33.2109 42.5938 32.474 42.5938 31.5781C42.5938 30.8073 42.8021 30.1432 43.2188 29.5859C43.6406 29.0286 44.2318 28.599 44.9922 28.2969C45.7578 27.9948 46.6536 27.8438 47.6797 27.8438C49.1953 27.8438 50.388 28.1641 51.2578 28.8047C52.1328 29.4453 52.6432 30.3177 52.7891 31.4219ZM61.541 28V30.5H54.3145V28H61.541ZM55.9551 25.125H59.2832V36.3125C59.2832 36.6198 59.3301 36.8594 59.4238 37.0312C59.5176 37.1979 59.6478 37.3151 59.8145 37.3828C59.9863 37.4505 60.1842 37.4844 60.4082 37.4844C60.5645 37.4844 60.7207 37.4714 60.877 37.4453C61.0332 37.4141 61.153 37.3906 61.2363 37.375L61.7598 39.8516C61.5931 39.9036 61.3587 39.9635 61.0566 40.0313C60.7546 40.1042 60.3874 40.1484 59.9551 40.1641C59.153 40.1953 58.4499 40.0885 57.8457 39.8437C57.2467 39.599 56.7806 39.2187 56.4473 38.7031C56.1139 38.1875 55.9499 37.5365 55.9551 36.75V25.125ZM69.0488 40.2344C67.8145 40.2344 66.752 39.9844 65.8613 39.4844C64.9759 38.9792 64.2936 38.2656 63.8145 37.3437C63.3353 36.4167 63.0957 35.3203 63.0957 34.0547C63.0957 32.8203 63.3353 31.737 63.8145 30.8047C64.2936 29.8724 64.9681 29.1458 65.8379 28.625C66.7129 28.1042 67.7389 27.8438 68.916 27.8438C69.7077 27.8438 70.4447 27.9714 71.127 28.2266C71.8145 28.4766 72.4134 28.8542 72.9238 29.3594C73.4395 29.8646 73.8405 30.5 74.127 31.2656C74.4134 32.026 74.5566 32.9167 74.5566 33.9375V34.8516H64.4238V32.7891H71.4238C71.4238 32.3099 71.3197 31.8854 71.1113 31.5156C70.903 31.1458 70.6139 30.8568 70.2441 30.6484C69.8796 30.4349 69.4551 30.3281 68.9707 30.3281C68.4655 30.3281 68.0176 30.4453 67.627 30.6797C67.2415 30.9089 66.9395 31.2187 66.7207 31.6094C66.502 31.9948 66.39 32.4245 66.3848 32.8984V34.8594C66.3848 35.4531 66.4941 35.9661 66.7129 36.3984C66.9368 36.8307 67.252 37.1641 67.6582 37.3984C68.0645 37.6328 68.5462 37.75 69.1035 37.75C69.4733 37.75 69.8118 37.6979 70.1191 37.5938C70.4264 37.4896 70.6895 37.3333 70.9082 37.125C71.127 36.9167 71.2936 36.6615 71.4082 36.3594L74.4863 36.5625C74.3301 37.3021 74.0098 37.9479 73.5254 38.5C73.0462 39.0469 72.4264 39.474 71.666 39.7813C70.9108 40.0833 70.0384 40.2344 69.0488 40.2344ZM80.0566 33.0625V40H76.7285V28H79.9004V30.1172H80.041C80.3066 29.4193 80.752 28.8672 81.377 28.4609C82.002 28.0495 82.7598 27.8438 83.6504 27.8438C84.4837 27.8438 85.2103 28.026 85.8301 28.3906C86.4499 28.7552 86.9316 29.276 87.2754 29.9531C87.6191 30.625 87.791 31.4271 87.791 32.3594V40H84.4629V32.9531C84.4681 32.2187 84.2806 31.6458 83.9004 31.2344C83.5202 30.8177 82.9967 30.6094 82.3301 30.6094C81.8822 30.6094 81.4863 30.7057 81.1426 30.8984C80.804 31.0911 80.5384 31.3724 80.3457 31.7422C80.1582 32.1068 80.0618 32.5469 80.0566 33.0625ZM90.4141 40V28H93.7422V40H90.4141ZM92.0859 26.4531C91.5911 26.4531 91.1667 26.2891 90.8125 25.9609C90.4635 25.6276 90.2891 25.2292 90.2891 24.7656C90.2891 24.3073 90.4635 23.9141 90.8125 23.5859C91.1667 23.2526 91.5911 23.0859 92.0859 23.0859C92.5807 23.0859 93.0026 23.2526 93.3516 23.5859C93.7057 23.9141 93.8828 24.3073 93.8828 24.7656C93.8828 25.2292 93.7057 25.6276 93.3516 25.9609C93.0026 26.2891 92.5807 26.4531 92.0859 26.4531ZM99.7363 33.0625V40H96.4082V28H99.5801V30.1172H99.7207C99.9863 29.4193 100.432 28.8672 101.057 28.4609C101.682 28.0495 102.439 27.8438 103.33 27.8438C104.163 27.8438 104.89 28.026 105.51 28.3906C106.13 28.7552 106.611 29.276 106.955 29.9531C107.299 30.625 107.471 31.4271 107.471 32.3594V40H104.143V32.9531C104.148 32.2187 103.96 31.6458 103.58 31.2344C103.2 30.8177 102.676 30.6094 102.01 30.6094C101.562 30.6094 101.166 30.7057 100.822 30.8984C100.484 31.0911 100.218 31.3724 100.025 31.7422C99.8379 32.1068 99.7415 32.5469 99.7363 33.0625ZM115.5 44.75C114.422 44.75 113.497 44.6016 112.727 44.3047C111.961 44.013 111.352 43.6146 110.898 43.1094C110.445 42.6042 110.151 42.0365 110.016 41.4062L113.094 40.9922C113.187 41.2318 113.336 41.4557 113.539 41.6641C113.742 41.8724 114.01 42.0391 114.344 42.1641C114.682 42.2943 115.094 42.3594 115.578 42.3594C116.302 42.3594 116.898 42.1823 117.367 41.8281C117.841 41.4792 118.078 40.8932 118.078 40.0703V37.875H117.938C117.792 38.2083 117.573 38.5234 117.281 38.8203C116.99 39.1172 116.615 39.3594 116.156 39.5469C115.698 39.7344 115.151 39.8281 114.516 39.8281C113.615 39.8281 112.794 39.6198 112.055 39.2031C111.32 38.7812 110.734 38.138 110.297 37.2734C109.865 36.4036 109.648 35.3047 109.648 33.9766C109.648 32.6172 109.87 31.4818 110.312 30.5703C110.755 29.6589 111.344 28.9766 112.078 28.5234C112.818 28.0703 113.628 27.8438 114.508 27.8438C115.18 27.8438 115.742 27.9583 116.195 28.1875C116.648 28.4115 117.013 28.6927 117.289 29.0312C117.57 29.3646 117.786 29.6927 117.938 30.0156H118.063V28H121.367V40.1172C121.367 41.138 121.117 41.9922 120.617 42.6797C120.117 43.3672 119.424 43.8828 118.539 44.2266C117.659 44.5755 116.646 44.75 115.5 44.75ZM115.57 37.3281C116.107 37.3281 116.56 37.1953 116.93 36.9297C117.305 36.6589 117.591 36.2734 117.789 35.7734C117.992 35.2682 118.094 34.6641 118.094 33.9609C118.094 33.2578 117.995 32.6484 117.797 32.1328C117.599 31.612 117.313 31.2083 116.938 30.9219C116.563 30.6354 116.107 30.4922 115.57 30.4922C115.023 30.4922 114.563 30.6406 114.188 30.9375C113.813 31.2292 113.529 31.6354 113.336 32.1562C113.143 32.6771 113.047 33.2786 113.047 33.9609C113.047 34.6536 113.143 35.2526 113.336 35.7578C113.534 36.2578 113.818 36.6458 114.188 36.9219C114.563 37.1927 115.023 37.3281 115.57 37.3281Z" fill="#17496B"/>
</svg>
