<svg width="446" height="320" viewBox="0 0 446 320" fill="none" xmlns="http://www.w3.org/2000/svg">
<path d="M417.353 264.708L426.645 256.29C438.97 245.124 446 229.268 446 212.637V132.922C446 120.713 441.15 109.005 432.517 100.372C423.885 91.7391 412.176 86.8893 399.968 86.8893H393.65C381.516 86.8893 369.879 82.0692 361.3 73.4894C352.72 64.9097 341.083 60.0896 328.95 60.0896H249.84C233.433 60.0896 217.736 53.3982 206.374 41.5614C195.013 29.7245 179.316 23.0332 162.909 23.0332H87.0013C67.9418 23.0332 49.6599 30.5903 36.1633 44.0479L21.162 59.0058C7.61435 72.5143 0 90.8594 0 109.991V185.6C0 197.284 4.64157 208.49 12.9036 216.752C21.1656 225.014 32.3713 229.656 44.0555 229.656H61.6104C74.3617 229.656 86.5699 234.818 95.4533 243.965C104.337 253.113 116.545 258.275 129.296 258.275H157.481C176.847 258.275 195.398 266.077 208.943 279.92L226.801 298.17C240.346 312.013 258.896 319.815 278.263 319.815H374.22C383.18 319.815 391.739 316.102 397.86 309.558L398.867 308.498C404.274 302.806 407.289 295.255 407.289 287.405C407.289 278.758 410.945 270.514 417.353 264.708Z" fill="#865C4C"/>
<path d="M417.392 248.079L426.645 239.498C438.986 228.054 446 211.984 446 195.152V118.364C446 106.155 441.15 94.4465 432.517 85.8138C423.885 77.181 412.176 72.3312 399.968 72.3312H393.65C381.516 72.3312 369.879 67.5111 361.3 58.9313C352.72 50.3516 341.083 45.5315 328.95 45.5315H249.84C233.433 45.5315 217.736 38.8401 206.374 27.0033C195.013 15.1664 179.316 8.4751 162.909 8.4751H87.0013C67.9418 8.4751 49.6599 16.0322 36.1633 29.4898L21.162 44.4477C7.61435 57.9562 0 76.3013 0 95.433V165.331C0 177.973 4.74841 190.154 13.3046 199.461C22.854 209.848 36.3184 215.759 50.4281 215.759H68.4038C80.3162 215.759 91.6274 220.991 99.3409 230.069C107.054 239.147 118.366 244.379 130.278 244.379H161.772C181.242 244.379 199.882 252.264 213.442 266.237L230.739 284.061C244.298 298.033 262.938 305.919 282.409 305.919H369.456C379.314 305.919 388.808 302.196 396.04 295.497L397.708 293.878C403.833 287.933 407.289 279.761 407.289 271.226C407.289 262.44 410.95 254.053 417.392 248.079Z" fill="#642711"/>
<path d="M416.567 242.625L426.645 232.633C439.032 220.352 446 203.631 446 186.188V114.724C446 102.516 441.15 90.8073 432.517 82.1746C423.885 73.5419 412.176 68.692 399.968 68.692H393.65C381.516 68.692 369.879 63.872 361.3 55.2922C352.72 46.7124 341.083 41.8923 328.95 41.8923H249.84C233.433 41.8923 217.736 35.201 206.374 23.3641C195.013 11.5273 179.316 4.83594 162.909 4.83594H87.0013C67.9418 4.83594 49.6599 12.3931 36.1633 25.8506L21.162 40.8085C7.61435 54.3171 0 72.6621 0 91.7938V157.235C0 171.42 5.55887 185.041 15.4844 195.175C25.6838 205.589 39.6466 211.458 54.2234 211.458H70.4468C82.4371 211.458 93.8322 216.683 101.657 225.768C109.482 234.853 120.877 240.078 132.867 240.078H163.932C183.299 240.078 201.85 247.88 215.394 261.722L233.253 279.973C246.797 293.816 265.348 301.618 284.715 301.618H367.654C377.975 301.618 387.856 297.441 395.047 290.038L397.801 287.359C403.867 281.456 407.289 273.352 407.289 264.888C407.289 256.527 410.629 248.512 416.567 242.625Z" fill="#79C9FF"/>
<path d="M417.346 235.493L426.645 226.512C439.014 214.566 446 198.107 446 180.91V110.423C446 98.2146 441.15 86.5061 432.517 77.8733C423.885 69.2406 412.176 64.3908 399.968 64.3908H393.65C381.516 64.3908 369.879 59.5707 361.3 50.9909C352.72 42.4111 341.083 37.591 328.95 37.591H249.84C233.433 37.591 217.736 30.8997 206.374 19.0629C195.013 7.22601 179.316 0.534668 162.909 0.534668H87.0013C67.9418 0.534668 49.6599 8.09179 36.1633 21.5494L21.162 36.5072C7.61435 50.0158 0 68.3608 0 87.4925V152.652C0 167.01 5.66522 180.788 15.765 190.993C26.0023 201.337 39.9514 207.157 54.5049 207.157H69.4934C82.2857 207.157 94.5375 212.316 103.477 221.467C112.416 230.618 124.668 235.777 137.46 235.777H165.881C184.976 235.777 203.29 243.362 216.792 256.865L236.156 276.228C249.658 289.731 267.972 297.317 287.067 297.317H364.199C375.426 297.317 386.249 293.128 394.551 285.571L397.641 282.481C403.819 276.304 407.289 267.925 407.289 259.188C407.289 250.252 410.919 241.7 417.346 235.493Z" fill="#A3DAFF"/>
<path d="M275 153L445 173" stroke="#C1E6FF" stroke-width="6" stroke-linejoin="round"/>
<path d="M50.6875 11.4058L325.267 194.824" stroke="#C1E6FF" stroke-width="6" stroke-linejoin="round"/>
<g clip-path="url(#clip0_1105_1350)">
<path d="M321.411 58.1187C317.95 53.2005 318.243 46.6346 322.113 42.3C326.195 37.7282 332.753 36.6703 337.935 39.7598C338.187 39.9096 338.384 40.1592 338.609 40.3621C341.494 44.2223 341.007 48.3166 339.154 52.3267C337.337 56.2587 334.148 58.7147 329.942 59.551C326.98 60.1408 324.046 59.86 321.411 58.1155V58.1187Z" fill="#277CB5"/>
<path d="M321.411 58.1189C322.282 57.6602 322.984 58.3093 323.723 58.5339C331.842 61.0055 340.013 54.7642 339.865 46.1605C339.841 44.6501 339.511 43.1896 338.914 41.7947C338.72 41.3453 338.28 40.9334 338.606 40.3623C345.573 44.4192 345.841 55.6473 339.096 60.7964C337.476 62.0322 335.669 62.8467 333.674 63.2212C332.504 64.4414 330.675 64.4476 329.397 63.2368C326.088 62.5658 323.39 60.915 321.408 58.1158L321.411 58.1189Z" fill="#1E608C"/>
<path d="M333.741 65.5431C336.315 65.746 337.775 67.3219 337.735 69.859C337.701 72.1184 335.958 73.8722 333.591 73.9689C332.368 74.0188 331.14 73.9939 329.917 73.9783C327.267 73.9408 325.533 72.4741 325.228 70.0306C324.976 68.0084 326.405 66.1985 328.788 65.5119C328.982 65.4557 329.169 65.3684 329.36 65.2935C330.192 65.5774 330.059 66.3326 330.121 66.9661C330.204 67.8337 330.361 68.6887 331.392 68.7699C332.488 68.8573 332.827 68.0178 333.006 67.1003C333.119 66.5168 333.021 65.8302 333.744 65.54L333.741 65.5431Z" fill="#329EE8"/>
<path d="M333.741 65.543C333.714 66.2077 333.741 66.8817 333.643 67.5371C333.455 68.776 332.845 69.6747 331.472 69.6342C330.124 69.5936 329.489 68.7635 329.428 67.4466C329.394 66.7288 329.382 66.0142 329.36 65.2964C329.372 64.6099 329.388 63.9233 329.4 63.2368C330.829 63.4303 332.254 63.4708 333.68 63.2212C333.701 63.9951 333.72 64.769 333.741 65.543Z" fill="#865C4C"/>
</g>
<g clip-path="url(#clip1_1105_1350)">
<path d="M63.4107 180.119C59.9501 175.2 60.2426 168.635 64.1126 164.3C68.1951 159.728 74.753 158.67 79.9347 161.76C80.1871 161.91 80.3842 162.159 80.6089 162.362C83.4938 166.222 83.0073 170.317 81.1539 174.327C79.3374 178.259 76.1477 180.715 71.9421 181.551C68.9802 182.141 66.0461 181.86 63.4107 180.116V180.119Z" fill="#277CB5"/>
<path d="M63.4108 180.119C64.2821 179.66 64.9841 180.309 65.723 180.534C73.8418 183.006 82.013 176.764 81.8652 168.161C81.8406 166.65 81.5112 165.19 80.9139 163.795C80.7199 163.345 80.2796 162.933 80.606 162.362C87.5734 166.419 87.8412 177.647 81.0955 182.796C79.4761 184.032 77.6688 184.847 75.6737 185.221C74.5038 186.441 72.675 186.448 71.3972 185.237C68.0875 184.566 65.3905 182.915 63.4077 180.116L63.4108 180.119Z" fill="#1E608C"/>
<path d="M75.7414 187.543C78.3153 187.746 79.7746 189.322 79.7346 191.859C79.7007 194.118 77.9581 195.872 75.5905 195.969C74.3682 196.019 73.1398 195.994 71.9175 195.978C69.2666 195.941 67.5333 194.474 67.2285 192.031C66.976 190.008 68.4046 188.198 70.7876 187.512C70.9815 187.456 71.1693 187.368 71.3602 187.293C72.1915 187.577 72.0591 188.333 72.1207 188.966C72.2038 189.834 72.3608 190.689 73.3923 190.77C74.4883 190.857 74.827 190.018 75.0056 189.1C75.1195 188.517 75.0209 187.83 75.7445 187.54L75.7414 187.543Z" fill="#329EE8"/>
<path d="M75.7413 187.543C75.7136 188.208 75.7413 188.882 75.6427 189.537C75.4549 190.776 74.8453 191.675 73.4722 191.634C72.1237 191.594 71.4894 190.763 71.4278 189.447C71.394 188.729 71.3817 188.014 71.3601 187.296C71.3724 186.61 71.3878 185.923 71.4001 185.237C72.8287 185.43 74.2542 185.471 75.6797 185.221C75.7012 185.995 75.7197 186.769 75.7413 187.543Z" fill="#865C4C"/>
</g>
<g clip-path="url(#clip2_1105_1350)">
<path d="M372.736 232.971C370.244 229.556 370.455 224.996 373.241 221.986C376.18 218.811 380.902 218.076 384.633 220.222C384.815 220.326 384.957 220.499 385.118 220.64C387.196 223.321 386.845 226.164 385.511 228.949C384.203 231.68 381.906 233.385 378.878 233.966C376.746 234.375 374.633 234.18 372.736 232.969V232.971Z" fill="#277CB5"/>
<path d="M372.736 232.972C373.363 232.653 373.868 233.104 374.4 233.26C380.246 234.976 386.129 230.642 386.023 224.667C386.005 223.618 385.768 222.604 385.338 221.635C385.198 221.323 384.881 221.037 385.116 220.641C390.133 223.458 390.326 231.255 385.469 234.831C384.303 235.689 383.001 236.255 381.565 236.515C380.723 237.362 379.406 237.367 378.486 236.526C376.103 236.06 374.161 234.913 372.733 232.969L372.736 232.972Z" fill="#1E608C"/>
<path d="M381.614 238.127C383.467 238.268 384.518 239.362 384.489 241.124C384.465 242.693 383.21 243.911 381.505 243.978C380.625 244.013 379.741 243.996 378.861 243.985C376.952 243.959 375.704 242.94 375.485 241.243C375.303 239.839 376.331 238.582 378.047 238.105C378.187 238.066 378.322 238.006 378.459 237.954C379.058 238.151 378.963 238.675 379.007 239.115C379.067 239.718 379.18 240.311 379.923 240.368C380.712 240.428 380.956 239.846 381.084 239.208C381.166 238.803 381.095 238.326 381.616 238.125L381.614 238.127Z" fill="#329EE8"/>
<path d="M381.614 238.127C381.594 238.589 381.614 239.057 381.543 239.512C381.408 240.372 380.969 240.996 379.98 240.968C379.009 240.94 378.552 240.363 378.508 239.449C378.484 238.951 378.475 238.454 378.459 237.956C378.468 237.479 378.479 237.002 378.488 236.525C379.517 236.66 380.543 236.688 381.569 236.515C381.585 237.052 381.598 237.59 381.614 238.127Z" fill="#865C4C"/>
</g>
<g clip-path="url(#clip3_1105_1350)">
<path d="M342.639 73.9711C340.286 70.5557 340.485 65.9961 343.117 62.986C345.893 59.8111 350.352 59.0765 353.876 61.2219C354.047 61.3259 354.181 61.4993 354.334 61.6402C356.296 64.3209 355.965 67.1642 354.705 69.9489C353.469 72.6795 351.3 74.3851 348.441 74.9659C346.427 75.3754 344.431 75.1804 342.639 73.969V73.9711Z" fill="#277CB5"/>
<path d="M342.639 73.9716C343.232 73.653 343.709 74.1038 344.212 74.2598C349.732 75.9762 355.289 71.6419 355.188 65.6672C355.172 64.6183 354.948 63.604 354.541 62.6353C354.409 62.3233 354.11 62.0372 354.332 61.6406C359.07 64.4579 359.252 72.2552 354.665 75.831C353.564 76.6892 352.335 77.2548 350.978 77.5148C350.183 78.3622 348.939 78.3665 348.07 77.5257C345.819 77.0597 343.985 75.9133 342.637 73.9694L342.639 73.9716Z" fill="#1E608C"/>
<path d="M351.024 79.127C352.774 79.2678 353.767 80.3622 353.74 82.1241C353.717 83.6931 352.532 84.9111 350.922 84.9782C350.09 85.0129 349.255 84.9956 348.424 84.9847C346.621 84.9587 345.443 83.9402 345.235 82.2433C345.064 80.839 346.035 79.5821 347.656 79.1053C347.787 79.0663 347.915 79.0056 348.045 78.9536C348.61 79.1508 348.52 79.6753 348.562 80.1152C348.619 80.7177 348.725 81.3114 349.427 81.3678C350.172 81.4285 350.402 80.8455 350.524 80.2084C350.601 79.8031 350.534 79.3264 351.026 79.1248L351.024 79.127Z" fill="#329EE8"/>
<path d="M351.024 79.127C351.005 79.5886 351.024 80.0567 350.957 80.5118C350.829 81.3721 350.415 81.9963 349.481 81.9681C348.564 81.9399 348.133 81.3635 348.091 80.4489C348.068 79.9505 348.06 79.4542 348.045 78.9558C348.053 78.479 348.064 78.0023 348.072 77.5255C349.044 77.6598 350.013 77.688 350.982 77.5146C350.997 78.0521 351.009 78.5895 351.024 79.127Z" fill="#865C4C"/>
</g>
<g clip-path="url(#clip4_1105_1350)">
<path d="M84.6392 195.971C82.286 192.556 82.4849 187.996 85.1166 184.986C87.8927 181.811 92.3521 181.076 95.8756 183.222C96.0473 183.326 96.1812 183.499 96.3341 183.64C98.2958 186.321 97.965 189.164 96.7046 191.949C95.4694 194.68 93.3005 196.385 90.4406 196.966C88.4266 197.375 86.4314 197.18 84.6392 195.969V195.971Z" fill="#277CB5"/>
<path d="M84.6393 195.972C85.2318 195.653 85.7091 196.104 86.2116 196.26C91.7324 197.976 97.2888 193.642 97.1883 187.667C97.1716 186.618 96.9476 185.604 96.5414 184.635C96.4095 184.323 96.1101 184.037 96.332 183.641C101.07 186.458 101.252 194.255 96.6649 197.831C95.5637 198.689 94.3347 199.255 92.9781 199.515C92.1825 200.362 90.9389 200.367 90.0701 199.526C87.8195 199.06 85.9855 197.913 84.6372 195.969L84.6393 195.972Z" fill="#1E608C"/>
<path d="M93.0242 201.127C94.7744 201.268 95.7668 202.362 95.7396 204.124C95.7165 205.693 94.5316 206.911 92.9216 206.978C92.0904 207.013 91.2551 206.996 90.4239 206.985C88.6213 206.959 87.4426 205.94 87.2354 204.243C87.0637 202.839 88.0351 201.582 89.6556 201.105C89.7875 201.066 89.9152 201.006 90.045 200.954C90.6102 201.151 90.5202 201.675 90.5621 202.115C90.6186 202.718 90.7254 203.311 91.4268 203.368C92.1721 203.428 92.4024 202.846 92.5238 202.208C92.6013 201.803 92.5343 201.326 93.0263 201.125L93.0242 201.127Z" fill="#329EE8"/>
<path d="M93.0241 201.127C93.0053 201.589 93.0241 202.057 92.9571 202.512C92.8294 203.372 92.4149 203.996 91.4811 203.968C90.5641 203.94 90.1329 203.363 90.091 202.449C90.068 201.951 90.0596 201.454 90.0449 200.956C90.0533 200.479 90.0638 200.002 90.0721 199.525C91.0436 199.66 92.0129 199.688 92.9822 199.515C92.9969 200.052 93.0095 200.59 93.0241 201.127Z" fill="#865C4C"/>
</g>
<g clip-path="url(#clip5_1105_1350)">
<path d="M257.736 266.971C255.244 263.556 255.455 258.996 258.241 255.986C261.18 252.811 265.902 252.076 269.633 254.222C269.815 254.326 269.957 254.499 270.118 254.64C272.196 257.321 271.845 260.164 270.511 262.949C269.203 265.68 266.906 267.385 263.878 267.966C261.746 268.375 259.633 268.18 257.736 266.969V266.971Z" fill="#277CB5"/>
<path d="M257.736 266.972C258.363 266.653 258.868 267.104 259.4 267.26C265.246 268.976 271.129 264.642 271.023 258.667C271.005 257.618 270.768 256.604 270.338 255.635C270.198 255.323 269.881 255.037 270.116 254.641C275.133 257.458 275.326 265.255 270.469 268.831C269.303 269.689 268.001 270.255 266.565 270.515C265.723 271.362 264.406 271.367 263.486 270.526C261.103 270.06 259.161 268.913 257.733 266.969L257.736 266.972Z" fill="#1E608C"/>
<path d="M266.614 272.127C268.467 272.268 269.518 273.362 269.489 275.124C269.465 276.693 268.21 277.911 266.505 277.978C265.625 278.013 264.741 277.996 263.861 277.985C261.952 277.959 260.704 276.94 260.485 275.243C260.303 273.839 261.331 272.582 263.047 272.105C263.187 272.066 263.322 272.006 263.459 271.954C264.058 272.151 263.963 272.675 264.007 273.115C264.067 273.718 264.18 274.311 264.923 274.368C265.712 274.428 265.956 273.846 266.084 273.208C266.166 272.803 266.095 272.326 266.616 272.125L266.614 272.127Z" fill="#329EE8"/>
<path d="M266.614 272.127C266.594 272.589 266.614 273.057 266.543 273.512C266.408 274.372 265.969 274.996 264.98 274.968C264.009 274.94 263.553 274.363 263.508 273.449C263.484 272.951 263.475 272.454 263.459 271.956C263.468 271.479 263.479 271.002 263.488 270.525C264.517 270.66 265.543 270.688 266.57 270.515C266.585 271.052 266.598 271.59 266.614 272.127Z" fill="#865C4C"/>
</g>
<g clip-path="url(#clip6_1105_1350)">
<path d="M160.736 24.9711C158.244 21.5557 158.455 16.9961 161.241 13.986C164.18 10.8111 168.902 10.0765 172.633 12.2219C172.815 12.3259 172.957 12.4993 173.118 12.6402C175.196 15.3209 174.845 18.1642 173.511 20.9489C172.203 23.6795 169.906 25.3851 166.878 25.9659C164.746 26.3754 162.633 26.1804 160.736 24.969V24.9711Z" fill="#277CB5"/>
<path d="M160.736 24.9716C161.363 24.653 161.868 25.1038 162.4 25.2598C168.246 26.9762 174.129 22.6419 174.023 16.6672C174.005 15.6183 173.768 14.604 173.338 13.6353C173.198 13.3233 172.881 13.0372 173.116 12.6406C178.133 15.4579 178.326 23.2552 173.469 26.831C172.303 27.6892 171.001 28.2548 169.565 28.5148C168.723 29.3622 167.406 29.3665 166.486 28.5257C164.103 28.0597 162.161 26.9133 160.733 24.9694L160.736 24.9716Z" fill="#1E608C"/>
<path d="M169.614 30.127C171.467 30.2678 172.518 31.3622 172.489 33.1241C172.465 34.6931 171.21 35.9111 169.505 35.9782C168.625 36.0129 167.741 35.9956 166.861 35.9847C164.952 35.9587 163.704 34.9402 163.485 33.2433C163.303 31.839 164.331 30.5821 166.047 30.1053C166.187 30.0663 166.322 30.0056 166.459 29.9536C167.058 30.1508 166.963 30.6753 167.007 31.1152C167.067 31.7177 167.18 32.3114 167.923 32.3678C168.712 32.4285 168.956 31.8455 169.084 31.2084C169.166 30.8031 169.095 30.3264 169.616 30.1248L169.614 30.127Z" fill="#329EE8"/>
<path d="M169.614 30.127C169.594 30.5886 169.614 31.0567 169.543 31.5118C169.408 32.3721 168.969 32.9963 167.98 32.9681C167.009 32.9399 166.553 32.3635 166.508 31.4489C166.484 30.9505 166.475 30.4542 166.459 29.9558C166.468 29.479 166.479 29.0023 166.488 28.5255C167.517 28.6598 168.543 28.688 169.57 28.5146C169.585 29.0521 169.598 29.5895 169.614 30.127Z" fill="#865C4C"/>
</g>
<g clip-path="url(#clip7_1105_1350)">
<path d="M158.639 125.971C156.286 122.556 156.485 117.996 159.117 114.986C161.893 111.811 166.352 111.076 169.876 113.222C170.047 113.326 170.181 113.499 170.334 113.64C172.296 116.321 171.965 119.164 170.705 121.949C169.469 124.68 167.3 126.385 164.441 126.966C162.427 127.375 160.431 127.18 158.639 125.969V125.971Z" fill="#277CB5"/>
<path d="M158.639 125.972C159.232 125.653 159.709 126.104 160.212 126.26C165.732 127.976 171.289 123.642 171.188 117.667C171.172 116.618 170.948 115.604 170.541 114.635C170.409 114.323 170.11 114.037 170.332 113.641C175.07 116.458 175.252 124.255 170.665 127.831C169.564 128.689 168.335 129.255 166.978 129.515C166.183 130.362 164.939 130.367 164.07 129.526C161.819 129.06 159.985 127.913 158.637 125.969L158.639 125.972Z" fill="#1E608C"/>
<path d="M167.024 131.127C168.774 131.268 169.767 132.362 169.74 134.124C169.717 135.693 168.532 136.911 166.922 136.978C166.09 137.013 165.255 136.996 164.424 136.985C162.621 136.959 161.443 135.94 161.235 134.243C161.064 132.839 162.035 131.582 163.656 131.105C163.787 131.066 163.915 131.006 164.045 130.954C164.61 131.151 164.52 131.675 164.562 132.115C164.619 132.718 164.725 133.311 165.427 133.368C166.172 133.428 166.402 132.846 166.524 132.208C166.601 131.803 166.534 131.326 167.026 131.125L167.024 131.127Z" fill="#329EE8"/>
<path d="M167.024 131.127C167.005 131.589 167.024 132.057 166.957 132.512C166.829 133.372 166.415 133.996 165.481 133.968C164.564 133.94 164.133 133.363 164.091 132.449C164.068 131.951 164.06 131.454 164.045 130.956C164.053 130.479 164.064 130.002 164.072 129.525C165.044 129.66 166.013 129.688 166.982 129.515C166.997 130.052 167.009 130.59 167.024 131.127Z" fill="#865C4C"/>
</g>
<g clip-path="url(#clip8_1105_1350)">
<path d="M54.6392 36.9711C52.286 33.5557 52.4849 28.9961 55.1166 25.986C57.8927 22.8111 62.3521 22.0765 65.8756 24.2219C66.0473 24.3259 66.1812 24.4993 66.3341 24.6402C68.2958 27.3209 67.965 30.1642 66.7046 32.9489C65.4694 35.6795 63.3005 37.3851 60.4406 37.9659C58.4266 38.3754 56.4314 38.1804 54.6392 36.969V36.9711Z" fill="#277CB5"/>
<path d="M54.6393 36.9716C55.2318 36.653 55.7091 37.1038 56.2116 37.2598C61.7324 38.9762 67.2888 34.6419 67.1883 28.6672C67.1716 27.6183 66.9476 26.604 66.5414 25.6353C66.4095 25.3233 66.1101 25.0372 66.332 24.6406C71.0698 27.4579 71.252 35.2552 66.6649 38.831C65.5637 39.6892 64.3347 40.2548 62.9781 40.5148C62.1825 41.3622 60.9389 41.3665 60.0701 40.5257C57.8195 40.0597 55.9855 38.9133 54.6372 36.9694L54.6393 36.9716Z" fill="#1E608C"/>
<path d="M63.0242 42.127C64.7744 42.2678 65.7668 43.3622 65.7396 45.1241C65.7165 46.6931 64.5316 47.9111 62.9216 47.9782C62.0904 48.0129 61.2551 47.9956 60.4239 47.9847C58.6213 47.9587 57.4426 46.9402 57.2354 45.2433C57.0637 43.839 58.0351 42.5821 59.6556 42.1053C59.7875 42.0663 59.9152 42.0056 60.045 41.9536C60.6102 42.1508 60.5202 42.6753 60.5621 43.1152C60.6186 43.7177 60.7254 44.3114 61.4268 44.3678C62.1721 44.4285 62.4024 43.8455 62.5238 43.2084C62.6013 42.8031 62.5343 42.3264 63.0263 42.1248L63.0242 42.127Z" fill="#329EE8"/>
<path d="M63.0241 42.127C63.0053 42.5886 63.0241 43.0567 62.9571 43.5118C62.8294 44.3721 62.4149 44.9963 61.4811 44.9681C60.5641 44.9399 60.1329 44.3635 60.091 43.4489C60.068 42.9505 60.0596 42.4542 60.0449 41.9558C60.0533 41.479 60.0638 41.0023 60.0721 40.5255C61.0436 40.6598 62.0129 40.688 62.9822 40.5146C62.9969 41.0521 63.0095 41.5895 63.0241 42.127Z" fill="#865C4C"/>
</g>
<g clip-path="url(#clip9_1105_1350)">
<path d="M249.243 131.767C243.152 123.023 243.667 111.351 250.478 103.645C257.663 95.5172 269.205 93.6365 278.325 99.1289C278.769 99.3952 279.116 99.839 279.512 100.2C284.589 107.062 283.733 114.341 280.471 121.47C277.274 128.46 271.66 132.827 264.258 134.313C259.045 135.362 253.881 134.863 249.243 131.761V131.767Z" fill="#277CB5"/>
<path d="M249.243 131.767C250.776 130.951 252.012 132.105 253.312 132.505C267.602 136.899 281.983 125.803 281.723 110.508C281.679 107.822 281.1 105.226 280.048 102.746C279.707 101.947 278.932 101.215 279.507 100.2C291.769 107.412 292.241 127.373 280.368 136.527C277.518 138.724 274.337 140.172 270.826 140.838C268.767 143.007 265.548 143.018 263.299 140.865C257.474 139.673 252.727 136.738 249.238 131.761L249.243 131.767Z" fill="#1E608C"/>
<path d="M270.945 144.965C275.475 145.326 278.043 148.128 277.973 152.638C277.913 156.655 274.846 159.773 270.679 159.945C268.528 160.033 266.366 159.989 264.215 159.961C259.549 159.895 256.498 157.287 255.962 152.943C255.518 149.348 258.032 146.13 262.226 144.91C262.567 144.81 262.898 144.655 263.234 144.521C264.697 145.026 264.464 146.369 264.572 147.495C264.719 149.037 264.995 150.558 266.81 150.702C268.739 150.857 269.335 149.365 269.65 147.734C269.85 146.696 269.677 145.476 270.95 144.96L270.945 144.965Z" fill="#329EE8"/>
<path d="M270.945 144.965C270.896 146.147 270.945 147.346 270.771 148.511C270.441 150.713 269.368 152.311 266.951 152.239C264.578 152.167 263.461 150.691 263.353 148.35C263.293 147.074 263.272 145.803 263.234 144.527C263.256 143.307 263.283 142.086 263.304 140.866C265.819 141.21 268.327 141.282 270.836 140.838C270.874 142.214 270.907 143.59 270.945 144.965Z" fill="#865C4C"/>
</g>
<defs>
<clipPath id="clip0_1105_1350">
<rect width="25" height="36" fill="white" transform="translate(319 38)"/>
</clipPath>
<clipPath id="clip1_1105_1350">
<rect width="25" height="36" fill="white" transform="translate(61 160)"/>
</clipPath>
<clipPath id="clip2_1105_1350">
<rect width="18" height="25" fill="white" transform="translate(371 219)"/>
</clipPath>
<clipPath id="clip3_1105_1350">
<rect width="17" height="25" fill="white" transform="translate(341 60)"/>
</clipPath>
<clipPath id="clip4_1105_1350">
<rect width="17" height="25" fill="white" transform="translate(83 182)"/>
</clipPath>
<clipPath id="clip5_1105_1350">
<rect width="18" height="25" fill="white" transform="translate(256 253)"/>
</clipPath>
<clipPath id="clip6_1105_1350">
<rect width="18" height="25" fill="white" transform="translate(159 11)"/>
</clipPath>
<clipPath id="clip7_1105_1350">
<rect width="17" height="25" fill="white" transform="translate(157 112)"/>
</clipPath>
<clipPath id="clip8_1105_1350">
<rect width="17" height="25" fill="white" transform="translate(53 23)"/>
</clipPath>
<clipPath id="clip9_1105_1350">
<rect width="44" height="64" fill="white" transform="translate(245 96)"/>
</clipPath>
</defs>
</svg>
