<svg width="188" height="32" viewBox="0 0 188 32" fill="none" xmlns="http://www.w3.org/2000/svg">
<path d="M175.179 32H170.575C170.336 32 170.216 31.8952 170.216 31.6856L170.171 0.359298C170.171 0.119766 170.291 0 170.53 0H174.685L182.455 18.1221L182.23 0.359298C182.23 0.119766 182.365 0 182.634 0H187.193C187.373 0 187.462 0.119766 187.462 0.359298L187.507 31.7305C187.507 31.9102 187.432 32 187.283 32H183.241L175.269 15.0681L175.606 31.6407C175.606 31.8802 175.463 32 175.179 32Z" fill="#EE5D28"/>
<path d="M153.375 32H148.165C148.045 32 147.985 31.9251 147.985 31.7754L148.075 0.179649C148.075 0.059883 148.135 0 148.255 0H157.551C159.213 0 160.74 0.404211 162.132 1.21263C163.525 2.02105 164.633 3.10643 165.456 4.46877C166.294 5.83111 166.714 7.3731 166.714 9.09474C166.714 10.2175 166.541 11.2356 166.197 12.1488C165.853 13.062 165.448 13.833 164.984 14.4618C164.535 15.0905 164.124 15.5546 163.749 15.854C165.411 17.6954 166.242 19.8587 166.242 22.3439L166.287 31.7754C166.287 31.9251 166.212 32 166.062 32H160.852C160.733 32 160.673 31.9551 160.673 31.8653V22.3439C160.673 21.236 160.284 20.2779 159.505 19.4695C158.727 18.6611 157.768 18.2568 156.631 18.2568H153.599L153.554 31.7754C153.554 31.9251 153.494 32 153.375 32ZM157.551 5.50175H153.599V12.7326H157.551C158.495 12.7326 159.333 12.3808 160.067 11.6772C160.815 10.9736 161.189 10.1127 161.189 9.09474C161.189 8.12164 160.83 7.28328 160.111 6.57965C159.393 5.86105 158.539 5.50175 157.551 5.50175Z" fill="#EE5D28"/>
<path d="M126.808 31.7754L132.512 0.179649C132.542 0.059883 132.617 0 132.737 0H139.406C139.526 0 139.601 0.059883 139.631 0.179649L145.11 31.7754C145.125 31.9251 145.065 32 144.93 32H139.833C139.683 32 139.601 31.9251 139.586 31.7754L139.092 28.407H132.827L132.333 31.7754C132.318 31.9251 132.243 32 132.108 32H126.988C126.868 32 126.808 31.9251 126.808 31.7754ZM136.285 10.5768L136.015 8.87018L135.813 10.5768L133.747 23.4891H138.171L136.285 10.5768Z" fill="#EE5D28"/>
<path d="M124.091 32H109.225C109.106 32 109.046 31.9251 109.046 31.7754L109.091 0.179649C109.091 0.059883 109.15 0 109.27 0H124.046C124.166 0 124.226 0.0748538 124.226 0.224561V5.36702C124.226 5.48678 124.166 5.54667 124.046 5.54667H114.615V12.7326H124.046C124.166 12.7326 124.226 12.7925 124.226 12.9123L124.271 18.1221C124.271 18.2419 124.211 18.3018 124.091 18.3018H114.615V26.3411H124.091C124.211 26.3411 124.271 26.4159 124.271 26.5656V31.8204C124.271 31.9401 124.211 32 124.091 32Z" fill="#EE5D28"/>
<path d="M105.812 32H90.946C90.8262 32 90.7664 31.9251 90.7664 31.7754L90.8113 0.224561C90.8113 0.0748538 90.8861 0 91.0358 0H96.1558C96.3055 0 96.3804 0.0748538 96.3804 0.224561L96.3355 26.3411H105.812C105.962 26.3411 106.037 26.4159 106.037 26.5656V31.7754C106.037 31.9251 105.962 32 105.812 32Z" fill="#EE5D28"/>
<path d="M74.4411 32H69.8376C69.598 32 69.4783 31.8952 69.4783 31.6856L69.4333 0.359298C69.4333 0.119766 69.5531 0 69.7926 0H73.947L81.7169 18.1221L81.4923 0.359298C81.4923 0.119766 81.627 0 81.8965 0H86.4551C86.6348 0 86.7246 0.119766 86.7246 0.359298L86.7695 31.7305C86.7695 31.9102 86.6946 32 86.5449 32H82.5028L74.5309 15.0681L74.8677 31.6407C74.8677 31.8802 74.7255 32 74.4411 32Z" fill="#EE5D28"/>
<path d="M65.2115 32H60.0017C59.852 32 59.7771 31.9251 59.7771 31.7754L59.822 0.179649C59.822 0.059883 59.8819 0 60.0017 0H65.1666C65.2863 0 65.3462 0.059883 65.3462 0.179649L65.3911 31.7754C65.3911 31.9251 65.3313 32 65.2115 32Z" fill="#EE5D28"/>
<path d="M43.7884 32H38.6235C38.4738 32 38.3989 31.9251 38.3989 31.7754L38.4888 0.179649C38.4888 0.059883 38.5486 0 38.6684 0H47.5161C50.3306 0 52.5538 0.860819 54.1856 2.58246C55.8324 4.28912 56.6558 6.61708 56.6558 9.56632C56.6558 11.7221 56.2291 13.6009 55.3758 15.2028C54.5075 16.7897 53.3847 18.0173 52.0073 18.8856C50.63 19.7539 49.133 20.1881 47.5161 20.1881H44.013V31.7754C44.013 31.9251 43.9381 32 43.7884 32ZM47.5161 5.45684L44.013 5.50175V14.6189H47.5161C48.4892 14.6189 49.3351 14.1549 50.0537 13.2267C50.7723 12.2835 51.1316 11.0634 51.1316 9.56632C51.1316 8.36866 50.8097 7.38807 50.1659 6.62456C49.5222 5.84608 48.6389 5.45684 47.5161 5.45684Z" fill="#EE5D28"/>
<path d="M17.2229 31.7754L22.9268 0.179649C22.9567 0.059883 23.0316 0 23.1513 0H29.8208C29.9406 0 30.0154 0.059883 30.0454 0.179649L35.5247 31.7754C35.5396 31.9251 35.4797 32 35.345 32H30.2475C30.0978 32 30.0154 31.9251 30.0004 31.7754L29.5064 28.407H23.2411L22.7471 31.7754C22.7321 31.9251 22.6573 32 22.5225 32H17.4025C17.2828 32 17.2229 31.9251 17.2229 31.7754ZM26.6994 10.5768L26.4299 8.87018L26.2278 10.5768L24.1618 23.4891H28.5857L26.6994 10.5768Z" fill="#EE5D28"/>
<path d="M15.5385 32H0.672569C0.552803 32 0.49292 31.9251 0.49292 31.7754L0.537832 0.224561C0.537832 0.0748538 0.612686 0 0.762394 0H5.88239C6.0321 0 6.10696 0.0748538 6.10696 0.224561L6.06204 26.3411H15.5385C15.6882 26.3411 15.7631 26.4159 15.7631 26.5656V31.7754C15.7631 31.9251 15.6882 32 15.5385 32Z" fill="#EE5D28"/>
</svg>
