<svg width="49" height="48" viewBox="0 0 49 48" fill="none" xmlns="http://www.w3.org/2000/svg">
<mask id="path-1-inside-1_900_1069" fill="white">
<path d="M5.59793 32.0137H18.2007V39.137H5.59793V32.0137Z"/>
</mask>
<path d="M5.59793 32.0137H18.2007V39.137H5.59793V32.0137Z" fill="#329EE8"/>
<path d="M17.2007 32.0137V39.137H19.2007V32.0137H17.2007Z" fill="#17496B" fill-opacity="0.2" mask="url(#path-1-inside-1_900_1069)"/>
<mask id="path-3-inside-2_900_1069" fill="white">
<path d="M30.8036 25.9863H43.4064V39.137H30.8036V25.9863Z"/>
</mask>
<path d="M30.8036 25.9863H43.4064V39.137H30.8036V25.9863Z" fill="#329EE8"/>
<path d="M31.8036 39.137V25.9863H29.8036V39.137H31.8036Z" fill="#17496B" fill-opacity="0.2" mask="url(#path-3-inside-2_900_1069)"/>
<path d="M18.2007 18.863H30.8034V39.137H18.2007V18.863Z" fill="#329EE8"/>
<rect x="22.5844" y="33.6576" width="3.83562" height="5.47945" fill="#17496B"/>
<rect x="36.8308" y="33.6576" width="1.64384" height="2.73973" fill="#17496B"/>
<rect x="13.2692" y="37.4933" width="2.19178" height="1.09589" fill="#17496B" fill-opacity="0.2"/>
<rect x="19.8445" y="28.1782" width="2.19178" height="1.09589" fill="#17496B" fill-opacity="0.2"/>
<rect x="21.4886" y="29.8218" width="2.19178" height="1.09589" fill="#17496B" fill-opacity="0.2"/>
<rect x="27.5157" y="28.1782" width="1.64384" height="1.09589" fill="#17496B" fill-opacity="0.2"/>
<rect x="40.6665" y="32.5618" width="1.64384" height="1.09589" fill="#17496B" fill-opacity="0.2"/>
<path d="M20.9405 25.2263V18.863H28.0638V25.2263L24.5022 27.0822L20.9405 25.2263Z" fill="#642711"/>
<path d="M22.5844 24.0684V18.3149H26.42V24.0684L24.5022 25.1643L22.5844 24.0684Z" fill="#FDEFEA"/>
<mask id="path-15-outside-3_900_1069" maskUnits="userSpaceOnUse" x="18.2007" y="9" width="13" height="11" fill="black">
<rect fill="white" x="18.2007" y="9" width="13" height="11"/>
<path d="M18.2007 9H30.8034V16.6712H18.2007V9Z"/>
</mask>
<path d="M18.2007 9H30.8034V16.6712H18.2007V9Z" fill="#5FBEFF"/>
<path d="M30.8034 13.6712H18.2007V19.6712H30.8034V13.6712Z" fill="#329EE8" mask="url(#path-15-outside-3_900_1069)"/>
<path d="M7.78989 35.6373V29.274H15.4611V35.6373L11.6255 37.4932L7.78989 35.6373Z" fill="#642711"/>
<path d="M33.5433 30.1578V23.7946H41.2145V30.1578L37.3789 32.0137L33.5433 30.1578Z" fill="#642711"/>
<path d="M9.43356 34.7095V28.726H13.8171V34.7095L11.6253 35.8492L9.43356 34.7095Z" fill="#FDEFEA"/>
<path d="M35.1872 29.2301V23.2466H39.5707V29.2301L37.3789 30.3699L35.1872 29.2301Z" fill="#FDEFEA"/>
<rect x="18.2007" y="18.863" width="12.6027" height="1.09589" fill="#17496B" fill-opacity="0.2"/>
<rect x="5.59793" y="32.0137" width="11.61" height="1.09589" fill="#17496B" fill-opacity="0.2"/>
<rect x="31.8022" y="25.9863" width="11.61" height="1.09589" fill="#17496B" fill-opacity="0.2"/>
<mask id="path-24-inside-4_900_1069" fill="white">
<path d="M19.8445 10.6439H29.1596V14.4795H19.8445V10.6439Z"/>
</mask>
<path d="M19.8445 10.6439H29.1596V14.4795H19.8445V10.6439Z" fill="#329EE8"/>
<path d="M19.8445 11.6439H29.1596V9.64392H19.8445V11.6439Z" fill="#17496B" fill-opacity="0.2" mask="url(#path-24-inside-4_900_1069)"/>
<mask id="path-26-outside-5_900_1069" maskUnits="userSpaceOnUse" x="4.50214" y="22.6985" width="14" height="10" fill="black">
<rect fill="white" x="4.50214" y="22.6985" width="14" height="10"/>
<path d="M4.50214 22.6985H18.2008V30.3697H4.50214V22.6985Z"/>
</mask>
<path d="M4.50214 22.6985H18.2008V30.3697H4.50214V22.6985Z" fill="#5FBEFF"/>
<path d="M18.2008 28.3697H4.50214V32.3697H18.2008V28.3697Z" fill="#329EE8" mask="url(#path-26-outside-5_900_1069)"/>
<mask id="path-28-inside-6_900_1069" fill="white">
<path d="M6.69391 24.3424H16.009V28.178H6.69391V24.3424Z"/>
</mask>
<path d="M6.69391 24.3424H16.009V28.178H6.69391V24.3424Z" fill="#329EE8"/>
<path d="M6.69391 25.3424H16.009V23.3424H6.69391V25.3424Z" fill="#17496B" fill-opacity="0.2" mask="url(#path-28-inside-6_900_1069)"/>
<mask id="path-30-outside-7_900_1069" maskUnits="userSpaceOnUse" x="30.8036" y="16.6711" width="14" height="10" fill="black">
<rect fill="white" x="30.8036" y="16.6711" width="14" height="10"/>
<path d="M30.8036 16.6711H44.5022V24.3424H30.8036V16.6711Z"/>
</mask>
<path d="M30.8036 16.6711H44.5022V24.3424H30.8036V16.6711Z" fill="#5FBEFF"/>
<path d="M44.5022 22.3424H30.8036V26.3424H44.5022V22.3424Z" fill="#329EE8" mask="url(#path-30-outside-7_900_1069)"/>
<mask id="path-32-inside-8_900_1069" fill="white">
<path d="M32.9952 18.863H42.3102V22.6987H32.9952V18.863Z"/>
</mask>
<path d="M32.9952 18.863H42.3102V22.6987H32.9952V18.863Z" fill="#329EE8"/>
<path d="M32.9952 19.863H42.3102V17.863H32.9952V19.863Z" fill="#17496B" fill-opacity="0.2" mask="url(#path-32-inside-8_900_1069)"/>
</svg>
