<svg width="146" height="54" viewBox="0 0 146 54" fill="none" xmlns="http://www.w3.org/2000/svg">
<path d="M73 0L68.5 9.91837H78.4545L73 0Z" fill="#EEFAE6"/>
<path d="M0 38.5714C0 47.0924 6.9328 54 15.4848 54H130.515C139.067 54 146 47.0924 146 38.5714V25.3469C146 16.826 139.067 9.91837 130.515 9.91837H15.4849C6.93281 9.91837 0 16.826 0 25.3469V38.5714Z" fill="#EEFAE6"/>
<path d="M30.3906 40V24H36.7031C37.9115 24 38.9427 24.2161 39.7969 24.6484C40.6563 25.0755 41.3099 25.6823 41.7578 26.4688C42.2109 27.25 42.4375 28.1693 42.4375 29.2266C42.4375 30.2891 42.2083 31.2031 41.75 31.9687C41.2917 32.7292 40.6276 33.3125 39.7578 33.7187C38.8932 34.125 37.8464 34.3281 36.6172 34.3281H32.3906V31.6094H36.0703C36.7161 31.6094 37.2526 31.5208 37.6797 31.3438C38.1068 31.1667 38.4245 30.901 38.6328 30.5469C38.8464 30.1927 38.9531 29.7526 38.9531 29.2266C38.9531 28.6953 38.8464 28.2474 38.6328 27.8828C38.4245 27.5182 38.1042 27.2422 37.6719 27.0547C37.2448 26.862 36.7057 26.7656 36.0547 26.7656H33.7734V40H30.3906ZM39.0313 32.7188L43.0078 40H39.2734L35.3828 32.7188H39.0313ZM50.041 40.2344C48.8066 40.2344 47.7441 39.9844 46.8535 39.4844C45.9681 38.9792 45.2858 38.2656 44.8066 37.3437C44.3275 36.4167 44.0879 35.3203 44.0879 34.0547C44.0879 32.8203 44.3275 31.737 44.8066 30.8047C45.2858 29.8724 45.9603 29.1458 46.8301 28.625C47.7051 28.1042 48.7311 27.8438 49.9082 27.8438C50.6999 27.8438 51.4368 27.9714 52.1191 28.2266C52.8066 28.4766 53.4056 28.8542 53.916 29.3594C54.4316 29.8646 54.8327 30.5 55.1191 31.2656C55.4056 32.026 55.5488 32.9167 55.5488 33.9375V34.8516H45.416V32.7891H52.416C52.416 32.3099 52.3118 31.8854 52.1035 31.5156C51.8952 31.1458 51.6061 30.8568 51.2363 30.6484C50.8717 30.4349 50.4473 30.3281 49.9629 30.3281C49.4577 30.3281 49.0098 30.4453 48.6191 30.6797C48.2337 30.9089 47.9316 31.2187 47.7129 31.6094C47.4941 31.9948 47.3822 32.4245 47.377 32.8984V34.8594C47.377 35.4531 47.4863 35.9661 47.7051 36.3984C47.929 36.8307 48.2441 37.1641 48.6504 37.3984C49.0566 37.6328 49.5384 37.75 50.0957 37.75C50.4655 37.75 50.804 37.6979 51.1113 37.5938C51.4186 37.4896 51.6816 37.3333 51.9004 37.125C52.1191 36.9167 52.2858 36.6615 52.4004 36.3594L55.4785 36.5625C55.3223 37.3021 55.002 37.9479 54.5176 38.5C54.0384 39.0469 53.4186 39.474 52.6582 39.7813C51.903 40.0833 51.0306 40.2344 50.041 40.2344ZM61.1426 40.2266C60.377 40.2266 59.6947 40.0938 59.0957 39.8281C58.4967 39.5573 58.0228 39.1589 57.6738 38.6328C57.3301 38.1016 57.1582 37.4401 57.1582 36.6484C57.1582 35.9818 57.2806 35.4219 57.5254 34.9687C57.7702 34.5156 58.1035 34.151 58.5254 33.875C58.9473 33.599 59.4264 33.3906 59.9629 33.25C60.5046 33.1094 61.0723 33.0104 61.666 32.9531C62.3639 32.8802 62.9264 32.8125 63.3535 32.75C63.7806 32.6823 64.0905 32.5833 64.2832 32.4531C64.4759 32.3229 64.5723 32.1302 64.5723 31.875V31.8281C64.5723 31.3333 64.416 30.9505 64.1035 30.6797C63.7962 30.4089 63.3587 30.2734 62.791 30.2734C62.1921 30.2734 61.7155 30.4062 61.3613 30.6719C61.0072 30.9323 60.7728 31.2604 60.6582 31.6562L57.5801 31.4062C57.7363 30.6771 58.0436 30.0469 58.502 29.5156C58.9603 28.9792 59.5514 28.5677 60.2754 28.2812C61.0046 27.9896 61.8483 27.8438 62.8066 27.8438C63.4733 27.8438 64.1113 27.9219 64.7207 28.0781C65.3353 28.2344 65.8796 28.4766 66.3535 28.8047C66.8327 29.1328 67.2103 29.5547 67.4863 30.0703C67.7624 30.5807 67.9004 31.1927 67.9004 31.9062V40H64.7441V38.3359H64.6504C64.4577 38.7109 64.1999 39.0417 63.877 39.3281C63.554 39.6094 63.166 39.8307 62.7129 39.9922C62.2598 40.1484 61.7363 40.2266 61.1426 40.2266ZM62.0957 37.9297C62.5853 37.9297 63.0176 37.8333 63.3926 37.6406C63.7676 37.4427 64.0618 37.1771 64.2754 36.8438C64.4889 36.5104 64.5957 36.1328 64.5957 35.7109V34.4375C64.4915 34.5052 64.3483 34.5677 64.166 34.625C63.9889 34.6771 63.7884 34.7266 63.5645 34.7734C63.3405 34.8151 63.1165 34.8542 62.8926 34.8906C62.6686 34.9219 62.4655 34.9505 62.2832 34.9766C61.8926 35.0339 61.5514 35.125 61.2598 35.25C60.9681 35.375 60.7415 35.5443 60.5801 35.7578C60.4186 35.9661 60.3379 36.2266 60.3379 36.5391C60.3379 36.9922 60.502 37.3385 60.8301 37.5781C61.1634 37.8125 61.5853 37.9297 62.0957 37.9297ZM74.9043 40.1953C73.9928 40.1953 73.1673 39.9609 72.4277 39.4922C71.6934 39.0182 71.11 38.3229 70.6777 37.4062C70.2507 36.4844 70.0371 35.3542 70.0371 34.0156C70.0371 32.6406 70.2585 31.4974 70.7012 30.5859C71.1439 29.6693 71.7324 28.9844 72.4668 28.5313C73.2064 28.0729 74.0163 27.8438 74.8965 27.8438C75.5684 27.8438 76.1283 27.9583 76.5762 28.1875C77.0293 28.4115 77.3939 28.6927 77.6699 29.0312C77.9512 29.3646 78.1647 29.6927 78.3105 30.0156H78.4121V24H81.7324V40H78.4512V38.0781H78.3105C78.1543 38.4115 77.9329 38.7422 77.6465 39.0703C77.3652 39.3932 76.998 39.6615 76.5449 39.875C76.097 40.0885 75.5501 40.1953 74.9043 40.1953ZM75.959 37.5469C76.4954 37.5469 76.9486 37.401 77.3184 37.1094C77.6934 36.8125 77.9798 36.3984 78.1777 35.8672C78.3809 35.3359 78.4824 34.7135 78.4824 34C78.4824 33.2865 78.3835 32.6667 78.1855 32.1406C77.9876 31.6146 77.7012 31.2083 77.3262 30.9219C76.9512 30.6354 76.4954 30.4922 75.959 30.4922C75.4121 30.4922 74.9512 30.6406 74.5762 30.9375C74.2012 31.2344 73.9173 31.6458 73.7246 32.1719C73.5319 32.6979 73.4355 33.3073 73.4355 34C73.4355 34.6979 73.5319 35.3151 73.7246 35.8516C73.9225 36.3828 74.2064 36.7995 74.5762 37.1016C74.9512 37.3984 75.4121 37.5469 75.959 37.5469ZM84.4688 40V28H87.7969V40H84.4688ZM86.1406 26.4531C85.6458 26.4531 85.2214 26.2891 84.8672 25.9609C84.5182 25.6276 84.3438 25.2292 84.3438 24.7656C84.3438 24.3073 84.5182 23.9141 84.8672 23.5859C85.2214 23.2526 85.6458 23.0859 86.1406 23.0859C86.6354 23.0859 87.0573 23.2526 87.4063 23.5859C87.7604 23.9141 87.9375 24.3073 87.9375 24.7656C87.9375 25.2292 87.7604 25.6276 87.4063 25.9609C87.0573 26.2891 86.6354 26.4531 86.1406 26.4531ZM93.791 33.0625V40H90.4629V28H93.6348V30.1172H93.7754C94.041 29.4193 94.4863 28.8672 95.1113 28.4609C95.7363 28.0495 96.4941 27.8438 97.3848 27.8438C98.2181 27.8438 98.9447 28.026 99.5645 28.3906C100.184 28.7552 100.666 29.276 101.01 29.9531C101.354 30.625 101.525 31.4271 101.525 32.3594V40H98.1973V32.9531C98.2025 32.2187 98.015 31.6458 97.6348 31.2344C97.2546 30.8177 96.7311 30.6094 96.0645 30.6094C95.6165 30.6094 95.2207 30.7057 94.877 30.8984C94.5384 31.0911 94.2728 31.3724 94.0801 31.7422C93.8926 32.1068 93.7962 32.5469 93.791 33.0625ZM109.555 44.75C108.477 44.75 107.552 44.6016 106.781 44.3047C106.016 44.013 105.406 43.6146 104.953 43.1094C104.5 42.6042 104.206 42.0365 104.07 41.4062L107.148 40.9922C107.242 41.2318 107.391 41.4557 107.594 41.6641C107.797 41.8724 108.065 42.0391 108.398 42.1641C108.737 42.2943 109.148 42.3594 109.633 42.3594C110.357 42.3594 110.953 42.1823 111.422 41.8281C111.896 41.4792 112.133 40.8932 112.133 40.0703V37.875H111.992C111.846 38.2083 111.628 38.5234 111.336 38.8203C111.044 39.1172 110.669 39.3594 110.211 39.5469C109.753 39.7344 109.206 39.8281 108.57 39.8281C107.669 39.8281 106.849 39.6198 106.109 39.2031C105.375 38.7812 104.789 38.138 104.352 37.2734C103.919 36.4036 103.703 35.3047 103.703 33.9766C103.703 32.6172 103.924 31.4818 104.367 30.5703C104.81 29.6589 105.398 28.9766 106.133 28.5234C106.872 28.0703 107.682 27.8438 108.563 27.8438C109.234 27.8438 109.797 27.9583 110.25 28.1875C110.703 28.4115 111.068 28.6927 111.344 29.0312C111.625 29.3646 111.841 29.6927 111.992 30.0156H112.117V28H115.422V40.1172C115.422 41.138 115.172 41.9922 114.672 42.6797C114.172 43.3672 113.479 43.8828 112.594 44.2266C111.714 44.5755 110.701 44.75 109.555 44.75ZM109.625 37.3281C110.161 37.3281 110.615 37.1953 110.984 36.9297C111.359 36.6589 111.646 36.2734 111.844 35.7734C112.047 35.2682 112.148 34.6641 112.148 33.9609C112.148 33.2578 112.049 32.6484 111.852 32.1328C111.654 31.612 111.367 31.2083 110.992 30.9219C110.617 30.6354 110.161 30.4922 109.625 30.4922C109.078 30.4922 108.617 30.6406 108.242 30.9375C107.867 31.2292 107.583 31.6354 107.391 32.1562C107.198 32.6771 107.102 33.2786 107.102 33.9609C107.102 34.6536 107.198 35.2526 107.391 35.7578C107.589 36.2578 107.872 36.6458 108.242 36.9219C108.617 37.1927 109.078 37.3281 109.625 37.3281Z" fill="#255601"/>
</svg>
