<svg width="401" height="287" viewBox="0 0 401 287" fill="none" xmlns="http://www.w3.org/2000/svg">
<path d="M26.1561 236.927L17.8224 229.377C6.76865 219.363 0.463379 205.142 0.463379 190.226V118.733C0.463379 107.784 4.813 97.2826 12.5554 89.5402C20.2977 81.7979 30.7986 77.4483 41.748 77.4483H47.4142C58.2964 77.4483 68.7329 73.1253 76.4278 65.4305C84.1226 57.7356 94.5591 53.4126 105.441 53.4126H176.392C191.107 53.4126 205.185 47.4114 215.374 36.7954C225.564 26.1794 239.642 20.1782 254.357 20.1782H319.366C338.425 20.1782 356.707 27.7354 370.204 41.1929L379.301 50.2643C392.849 63.7728 400.463 82.1179 400.463 101.25V165.978C400.463 176.457 396.301 186.507 388.891 193.917C381.481 201.327 371.431 205.49 360.952 205.49H345.207C333.771 205.49 322.822 210.119 314.855 218.324C306.888 226.528 295.939 231.157 284.503 231.157H262.349C242.982 231.157 224.431 238.96 210.887 252.802L199.239 264.706C185.694 278.548 167.144 286.35 147.777 286.35H64.8402C56.8045 286.35 49.1281 283.02 43.6385 277.152L42.7349 276.2C37.8854 271.096 35.1815 264.324 35.1815 257.283C35.1815 249.528 31.9032 242.134 26.1561 236.927Z" fill="#865C4C"/>
<path d="M26.1209 222.013L17.8224 214.317C6.75389 204.053 0.463379 189.64 0.463379 174.545V105.676C0.463379 94.7269 4.813 84.226 12.5554 76.4836C20.2977 68.7412 30.7986 64.3916 41.748 64.3916H47.4142C58.2964 64.3916 68.7329 60.0687 76.4278 52.3738C84.1226 44.6789 94.5591 40.356 105.441 40.356H176.392C191.107 40.356 205.185 34.3548 215.374 23.7388C225.564 13.1228 239.642 7.12158 254.357 7.12158H319.366C338.425 7.12158 356.707 14.6787 370.204 28.1363L379.301 37.2076C392.849 50.7162 400.463 69.0613 400.463 88.193V147.8C400.463 159.138 396.205 170.062 388.531 178.409C379.967 187.725 367.891 193.027 355.236 193.027H339.115C328.431 193.027 318.286 197.719 311.368 205.86C304.451 214.002 294.306 218.694 283.622 218.694H258.518C239.048 218.694 220.408 226.58 206.848 240.552L195.711 252.029C182.151 266.002 163.511 273.887 144.041 273.887H69.113C60.2716 273.887 51.7562 270.549 45.2705 264.54L43.7748 263.088C38.2815 257.757 35.1815 250.428 35.1815 242.772C35.1815 234.893 31.8981 227.371 26.1209 222.013Z" fill="#642711"/>
<path d="M26.8605 217.121L17.8224 208.16C6.71276 197.145 0.463379 182.149 0.463379 166.505V102.412C0.463379 91.4627 4.813 80.9618 12.5554 73.2194C20.2977 65.4771 30.7986 61.1275 41.748 61.1275H47.4142C58.2964 61.1275 68.7329 56.8045 76.4278 49.1096C84.1226 41.4148 94.5591 37.0918 105.441 37.0918H176.392C191.107 37.0918 205.185 31.0906 215.374 20.4746C225.564 9.85863 239.642 3.85742 254.357 3.85742H319.366C338.425 3.85742 356.707 11.4145 370.204 24.8721L379.301 33.9435C392.849 47.452 400.463 65.7971 400.463 84.9288V140.538C400.463 153.26 395.478 165.476 386.576 174.565C377.429 183.905 364.906 189.169 351.833 189.169H337.282C326.529 189.169 316.309 193.855 309.291 202.003C302.274 210.151 292.054 214.837 281.3 214.837H256.562C237.195 214.837 218.645 222.639 205.1 236.481L193.453 248.385C179.908 262.227 161.358 270.03 141.991 270.03H70.7291C61.4727 270.03 52.6104 266.283 46.1607 259.644L43.6912 257.241C38.2506 251.947 35.1815 244.679 35.1815 237.088C35.1815 229.589 32.1858 222.401 26.8605 217.121Z" fill="#8FDD55"/>
<path d="M25.6983 210.725L17.3591 202.671C6.2653 191.956 0 177.195 0 161.772V98.5547C0 87.6053 4.34962 77.1044 12.092 69.362C19.8344 61.6197 30.3353 57.27 41.2846 57.27H46.9509C57.833 57.27 68.2695 52.9471 75.9644 45.2522C83.6593 37.5574 94.0957 33.2344 104.978 33.2344H175.928C190.643 33.2344 204.722 27.2332 214.911 16.6172C225.1 6.00121 239.179 0 253.894 0H318.902C337.962 0 356.244 7.55713 369.74 21.0147L378.838 30.0861C392.386 43.5946 400 61.9397 400 81.0714V136.428C400 149.305 394.919 161.662 385.861 170.814C376.68 180.092 364.169 185.312 351.117 185.312H337.674C326.201 185.312 315.213 189.938 307.196 198.145C299.179 206.352 288.191 210.979 276.718 210.979H254.304C235.209 210.979 216.895 218.565 203.392 232.068L190.376 245.084C176.874 258.586 158.56 266.172 139.464 266.172H73.3643C63.2953 266.172 53.5885 262.416 46.1424 255.638L43.3715 252.867C37.8308 247.326 34.7181 239.812 34.7181 231.976C34.7181 223.962 31.4627 216.292 25.6983 210.725Z" fill="#B2E88B"/>
<path d="M109 87L156 158" stroke="#CBEFB1" stroke-width="6" stroke-linejoin="round"/>
<path d="M331.969 163.167L165.463 163.456" stroke="#CBEFB1" stroke-width="6" stroke-linejoin="round"/>
<path d="M155.463 170L116.963 263" stroke="#CBEFB1" stroke-width="6" stroke-linecap="round" stroke-linejoin="round"/>
<g clip-path="url(#clip0_1107_1462)">
<path d="M140.32 144.758C134.783 136.995 135.251 126.63 141.444 119.788C147.976 112.571 158.468 110.901 166.759 115.778C167.163 116.015 167.478 116.409 167.838 116.729C172.453 122.823 171.675 129.286 168.71 135.616C165.803 141.823 160.7 145.699 153.971 147.02C149.232 147.951 144.537 147.507 140.32 144.754V144.758Z" fill="#3E9101"/>
<path d="M140.321 144.759C141.715 144.034 142.838 145.059 144.02 145.414C157.01 149.315 170.084 139.463 169.848 125.882C169.808 123.497 169.281 121.192 168.326 118.99C168.015 118.281 167.311 117.63 167.833 116.729C178.981 123.133 179.409 140.857 168.616 148.985C166.025 150.936 163.133 152.222 159.941 152.813C158.069 154.739 155.143 154.749 153.099 152.837C147.803 151.778 143.488 149.172 140.316 144.754L140.321 144.759Z" fill="#307001"/>
<path d="M160.05 156.478C164.168 156.798 166.503 159.286 166.439 163.291C166.384 166.857 163.596 169.626 159.808 169.779C157.852 169.857 155.887 169.818 153.931 169.793C149.69 169.734 146.917 167.419 146.429 163.562C146.025 160.37 148.311 157.513 152.123 156.429C152.434 156.34 152.734 156.202 153.04 156.084C154.37 156.532 154.158 157.724 154.256 158.724C154.389 160.094 154.641 161.444 156.291 161.572C158.045 161.71 158.586 160.384 158.872 158.936C159.054 158.015 158.897 156.931 160.054 156.473L160.05 156.478Z" fill="#50BA02"/>
<path d="M160.05 156.478C160.005 157.527 160.05 158.591 159.892 159.626C159.592 161.581 158.616 163 156.419 162.936C154.261 162.872 153.247 161.562 153.148 159.483C153.094 158.35 153.074 157.222 153.04 156.089C153.059 155.005 153.084 153.921 153.104 152.838C155.39 153.143 157.67 153.207 159.951 152.813C159.986 154.035 160.015 155.256 160.05 156.478Z" fill="#865C4C"/>
</g>
<g clip-path="url(#clip1_1107_1462)">
<path d="M230.564 99.8832C227.548 95.5115 227.803 89.6752 231.176 85.8222C234.734 81.7584 240.449 80.818 244.965 83.5642C245.185 83.6973 245.356 83.9193 245.552 84.0996C248.066 87.5309 247.643 91.1703 246.027 94.7348C244.444 98.2299 241.664 100.413 237.999 101.156C235.418 101.681 232.861 101.431 230.564 99.8804V99.8832Z" fill="#50BA02"/>
<path d="M230.564 99.8837C231.324 99.476 231.935 100.053 232.579 100.253C239.655 102.45 246.776 96.9018 246.647 89.2541C246.626 87.9115 246.338 86.6133 245.818 85.3733C245.649 84.9739 245.265 84.6077 245.55 84.1001C251.622 87.7062 251.855 97.6868 245.976 102.264C244.565 103.362 242.99 104.086 241.251 104.419C240.232 105.504 238.638 105.509 237.524 104.433C234.64 103.837 232.289 102.369 230.562 99.881L230.564 99.8837Z" fill="#3E9101"/>
<path d="M241.31 106.483C243.554 106.663 244.825 108.064 244.79 110.319C244.761 112.327 243.242 113.886 241.179 113.972C240.114 114.017 239.043 113.994 237.978 113.981C235.668 113.947 234.157 112.644 233.892 110.472C233.671 108.674 234.916 107.065 236.993 106.455C237.162 106.405 237.326 106.327 237.492 106.261C238.217 106.513 238.101 107.184 238.155 107.748C238.227 108.519 238.364 109.279 239.263 109.351C240.218 109.429 240.514 108.682 240.669 107.867C240.768 107.348 240.683 106.738 241.313 106.48L241.31 106.483Z" fill="#50BA02"/>
<path d="M241.31 106.483C241.286 107.074 241.31 107.673 241.224 108.255C241.061 109.357 240.53 110.155 239.333 110.119C238.158 110.083 237.605 109.345 237.551 108.175C237.522 107.537 237.511 106.902 237.492 106.264C237.503 105.653 237.516 105.043 237.527 104.433C238.772 104.605 240.014 104.641 241.257 104.419C241.275 105.107 241.292 105.795 241.31 106.483Z" fill="#865C4C"/>
</g>
<g clip-path="url(#clip2_1107_1462)">
<path d="M149.549 54.9414C147.99 52.7555 148.122 49.8373 149.866 47.9108C151.705 45.8789 154.659 45.4088 156.993 46.7819C157.107 46.8484 157.196 46.9594 157.297 47.0495C158.597 48.7652 158.377 50.5849 157.542 52.3672C156.724 54.1147 155.287 55.2063 153.393 55.578C152.058 55.8401 150.737 55.7153 149.549 54.94V54.9414Z" fill="#58CC02"/>
<path d="M149.549 54.9416C149.942 54.7377 150.258 55.0262 150.591 55.1261C154.249 56.2246 157.93 53.4506 157.863 49.6268C157.852 48.9555 157.703 48.3064 157.434 47.6864C157.347 47.4867 157.149 47.3036 157.296 47.0498C160.434 48.8529 160.555 53.8431 157.516 56.1316C156.787 56.6809 155.973 57.0429 155.074 57.2093C154.547 57.7516 153.723 57.7544 153.147 57.2162C151.656 56.918 150.441 56.1843 149.548 54.9402L149.549 54.9416Z" fill="#50BA02"/>
<path d="M155.104 58.2413C156.264 58.3315 156.921 59.0319 156.903 60.1595C156.888 61.1637 156.103 61.9431 155.036 61.9861C154.486 62.0083 153.932 61.9972 153.382 61.9903C152.187 61.9736 151.407 61.3218 151.269 60.2358C151.156 59.337 151.799 58.5326 152.873 58.2275C152.96 58.2025 153.045 58.1637 153.131 58.1304C153.505 58.2566 153.445 58.5922 153.473 58.8738C153.511 59.2594 153.581 59.6394 154.046 59.6754C154.54 59.7143 154.692 59.3412 154.773 58.9334C154.824 58.6741 154.78 58.3689 155.106 58.2399L155.104 58.2413Z" fill="#50BA02"/>
<path d="M155.104 58.2414C155.092 58.5368 155.104 58.8364 155.06 59.1276C154.975 59.6783 154.701 60.0777 154.082 60.0597C153.475 60.0417 153.189 59.6727 153.161 59.0874C153.146 58.7684 153.14 58.4508 153.131 58.1318C153.136 57.8267 153.143 57.5215 153.149 57.2164C153.792 57.3024 154.434 57.3204 155.077 57.2095C155.086 57.5534 155.095 57.8974 155.104 58.2414Z" fill="#865C4C"/>
</g>
<g clip-path="url(#clip3_1107_1462)">
<path d="M54.0062 238.703C51.7914 235.598 51.9786 231.452 54.4555 228.715C57.0683 225.828 61.2653 225.16 64.5816 227.111C64.7431 227.206 64.8693 227.363 65.0131 227.491C66.8594 229.929 66.5481 232.514 65.3619 235.046C64.1993 237.529 62.1579 239.079 59.4663 239.608C57.5707 239.98 55.6929 239.803 54.0062 238.701V238.703Z" fill="#307001"/>
<path d="M54.0061 238.704C54.5638 238.414 55.013 238.824 55.4859 238.966C60.682 240.526 65.9115 236.585 65.817 231.153C65.8012 230.199 65.5904 229.277 65.2081 228.396C65.084 228.112 64.8022 227.852 65.011 227.492C69.4702 230.053 69.6416 237.143 65.3243 240.394C64.2879 241.174 63.1312 241.689 61.8544 241.925C61.1056 242.696 59.9352 242.7 59.1175 241.935C56.9992 241.511 55.2731 240.469 54.0042 238.702L54.0061 238.704Z" fill="#255601"/>
<path d="M61.8978 243.391C63.5451 243.519 64.4791 244.514 64.4535 246.116C64.4318 247.543 63.3165 248.65 61.8013 248.711C61.019 248.743 60.2328 248.727 59.4505 248.717C57.754 248.693 56.6446 247.767 56.4496 246.225C56.288 244.948 57.2023 243.805 58.7274 243.371C58.8515 243.336 58.9717 243.281 59.0939 243.233C59.6259 243.413 59.5412 243.89 59.5806 244.29C59.6338 244.837 59.7343 245.377 60.3944 245.428C61.0959 245.484 61.3126 244.954 61.4269 244.374C61.4998 244.006 61.4367 243.572 61.8998 243.389L61.8978 243.391Z" fill="#50BA02"/>
<path d="M61.8977 243.391C61.88 243.811 61.8977 244.236 61.8346 244.65C61.7144 245.432 61.3243 246 60.4455 245.974C59.5824 245.948 59.1765 245.424 59.1371 244.593C59.1154 244.14 59.1075 243.688 59.0938 243.235C59.1016 242.802 59.1115 242.368 59.1194 241.935C60.0337 242.057 60.946 242.082 61.8583 241.925C61.8721 242.413 61.8839 242.902 61.8977 243.391Z" fill="#865C4C"/>
</g>
<path d="M132 72H140" stroke="#CBEFB1" stroke-width="2" stroke-linecap="round"/>
<path d="M256 75H264" stroke="#CBEFB1" stroke-width="2" stroke-linecap="round"/>
<path d="M194 90H202" stroke="#CBEFB1" stroke-width="2" stroke-linecap="round"/>
<path d="M187 146V154" stroke="#CBEFB1" stroke-width="2" stroke-linecap="round"/>
<path d="M183 150V154" stroke="#CBEFB1" stroke-width="2" stroke-linecap="round"/>
<path d="M137 75H145" stroke="#CBEFB1" stroke-width="2" stroke-linecap="round"/>
<path d="M87 252H95" stroke="#CBEFB1" stroke-width="2" stroke-linecap="round"/>
<path d="M91 255H99" stroke="#CBEFB1" stroke-width="2" stroke-linecap="round"/>
<path d="M37 197H45" stroke="#CBEFB1" stroke-width="2" stroke-linecap="round"/>
<path d="M32 194H40" stroke="#CBEFB1" stroke-width="2" stroke-linecap="round"/>
<defs>
<clipPath id="clip0_1107_1462">
<rect width="40" height="56.8276" fill="white" transform="translate(136.463 113)"/>
</clipPath>
<clipPath id="clip1_1107_1462">
<rect width="21.7872" height="32" fill="white" transform="translate(228.463 82)"/>
</clipPath>
<clipPath id="clip2_1107_1462">
<rect width="11.2621" height="16" fill="white" transform="translate(148.463 46)"/>
</clipPath>
<clipPath id="clip3_1107_1462">
<rect width="16" height="22.731" fill="white" transform="translate(52.4634 226)"/>
</clipPath>
</defs>
</svg>
