<svg width="1518" height="1518" viewBox="0 0 1518 1518" fill="none" xmlns="http://www.w3.org/2000/svg">
<g opacity="0.5" clip-path="url(#clip0_4055_5496)">
<path d="M849.795 1518H668.205L759 759L849.795 1518Z" fill="#B0F1FF"/>
<path d="M458.13 1461.72L300.871 1370.92L759 759L458.13 1461.72Z" fill="#B0F1FF"/>
<path d="M147.08 1217.13L56.2852 1059.87L759 759L147.08 1217.13Z" fill="#B0F1FF"/>
<path d="M0 849.794V668.203L759 758.998L0 849.794Z" fill="#B0F1FF"/>
<path d="M56.2852 458.13L147.08 300.871L759 759.001L56.2852 458.13Z" fill="#B0F1FF"/>
<path d="M300.871 147.08L458.13 56.2852L759 759L300.871 147.08Z" fill="#B0F1FF"/>
<path d="M668.205 0H849.795L759 759L668.205 0Z" fill="#B0F1FF"/>
<path d="M1059.87 56.2852L1217.13 147.08L759 759L1059.87 56.2852Z" fill="#B0F1FF"/>
<path d="M1370.92 300.871L1461.72 458.13L759 759.001L1370.92 300.871Z" fill="#B0F1FF"/>
<path d="M1518 668.203V849.794L759 758.998L1518 668.203Z" fill="#B0F1FF"/>
<path d="M1461.72 1059.87L1370.92 1217.13L759 759L1461.72 1059.87Z" fill="#B0F1FF"/>
<path d="M1217.13 1370.92L1059.87 1461.72L759 759L1217.13 1370.92Z" fill="#B0F1FF"/>
<path d="M849.795 1518H668.205L759 759L849.795 1518Z" fill="#B0F1FF"/>
</g>
<defs>
<clipPath id="clip0_4055_5496">
<rect width="1518" height="1518" fill="white"/>
</clipPath>
</defs>
</svg>
