<svg width="48" height="48" viewBox="0 0 48 48" fill="none" xmlns="http://www.w3.org/2000/svg">
<path fill-rule="evenodd" clip-rule="evenodd" d="M42.1812 2.63707C42.6222 2.48089 43.0985 2.452 43.5554 2.55388C44.0173 2.65689 44.4404 2.88935 44.7751 3.22403C45.1098 3.55872 45.3423 3.9818 45.4453 4.44379C45.5471 4.90065 45.5183 5.37686 45.3621 5.81789L32.3649 43.8097C32.1994 44.2922 31.8903 44.7126 31.479 45.0144C31.0678 45.3161 30.574 45.4849 30.0641 45.4979C29.5542 45.511 29.0524 45.3677 28.6263 45.0874C28.2001 44.8071 27.8699 44.4031 27.6799 43.9297L21.3205 28.0672C21.1945 27.7543 21.0061 27.4695 20.7674 27.2312C20.5285 26.9927 20.2438 26.8051 19.9305 26.6797L4.06971 20.3194C3.59629 20.1294 3.19203 19.7991 2.91171 19.3729C2.6314 18.9467 2.48816 18.445 2.50122 17.935C2.51428 17.4251 2.68302 16.9314 2.98478 16.5201C3.28655 16.1088 3.70691 15.7997 4.18942 15.6343L42.1812 2.63707ZM23.8018 26.3164C23.9154 26.5196 24.0162 26.7302 24.1035 26.9471L24.1043 26.949L29.963 41.5625L41.0929 9.02879L23.8018 26.3164Z" fill="white"/>
</svg>
