<svg width="146" height="54" viewBox="0 0 146 54" fill="none" xmlns="http://www.w3.org/2000/svg">
<path d="M35.3939 -3.8147e-06V9.91837H45.3485L35.3939 -3.8147e-06Z" fill="#F9EEFF"/>
<path d="M0 38.5714C0 47.0924 6.9328 54 15.4848 54H130.515C139.067 54 146 47.0924 146 38.5714V25.3469C146 16.826 139.067 9.91837 130.515 9.91837H15.4849C6.93281 9.91837 0 16.826 0 25.3469V38.5714Z" fill="#F9EEFF"/>
<path d="M32.0703 27.6016C32.0078 26.9714 31.7396 26.4818 31.2656 26.1328C30.7917 25.7839 30.1484 25.6094 29.3359 25.6094C28.7839 25.6094 28.3177 25.6875 27.9375 25.8437C27.5573 25.9948 27.2656 26.2057 27.0625 26.4766C26.8646 26.7474 26.7656 27.0547 26.7656 27.3984C26.7552 27.6849 26.8151 27.9349 26.9453 28.1484C27.0807 28.362 27.2656 28.5469 27.5 28.7031C27.7344 28.8542 28.0052 28.987 28.3125 29.1016C28.6198 29.2109 28.9479 29.3047 29.2969 29.3828L30.7344 29.7266C31.4323 29.8828 32.0729 30.0911 32.6562 30.3516C33.2396 30.612 33.7448 30.9323 34.1719 31.3125C34.599 31.6927 34.9297 32.1406 35.1641 32.6562C35.4036 33.1719 35.526 33.763 35.5312 34.4297C35.526 35.4089 35.276 36.2578 34.7813 36.9766C34.2917 37.6901 33.5833 38.2448 32.6562 38.6406C31.7344 39.0312 30.6224 39.2266 29.3203 39.2266C28.0286 39.2266 26.9036 39.0286 25.9453 38.6328C24.9922 38.237 24.2474 37.651 23.7109 36.875C23.1797 36.0937 22.901 35.1276 22.875 33.9766H26.1484C26.1849 34.513 26.3385 34.9609 26.6094 35.3203C26.8854 35.6745 27.2526 35.9427 27.7109 36.125C28.1745 36.3021 28.6979 36.3906 29.2812 36.3906C29.8542 36.3906 30.3516 36.3073 30.7734 36.1406C31.2005 35.974 31.5313 35.7422 31.7656 35.4453C32 35.1484 32.1172 34.8073 32.1172 34.4219C32.1172 34.0625 32.0104 33.7604 31.7969 33.5156C31.5885 33.2708 31.2813 33.0625 30.875 32.8906C30.474 32.7187 29.9818 32.5625 29.3984 32.4219L27.6563 31.9844C26.3073 31.6562 25.2422 31.1432 24.4609 30.4453C23.6797 29.7474 23.2917 28.8073 23.2969 27.625C23.2917 26.6562 23.5495 25.8099 24.0703 25.0859C24.5964 24.362 25.3177 23.7969 26.2344 23.3906C27.151 22.9844 28.1927 22.7812 29.3594 22.7812C30.5469 22.7812 31.5833 22.9844 32.4688 23.3906C33.3594 23.7969 34.0521 24.362 34.5469 25.0859C35.0417 25.8099 35.2969 26.6484 35.3125 27.6016H32.0703ZM37.7441 43.5V27H41.0254V29.0156H41.1738C41.3197 28.6927 41.5306 28.3646 41.8066 28.0312C42.0879 27.6927 42.4525 27.4115 42.9004 27.1875C43.3535 26.9583 43.916 26.8438 44.5879 26.8438C45.4629 26.8438 46.2702 27.0729 47.0098 27.5313C47.7493 27.9844 48.3405 28.6693 48.7832 29.5859C49.2259 30.4974 49.4473 31.6406 49.4473 33.0156C49.4473 34.3542 49.2311 35.4844 48.7988 36.4062C48.3717 37.3229 47.7884 38.0182 47.0488 38.4922C46.3145 38.9609 45.4915 39.1953 44.5801 39.1953C43.9342 39.1953 43.3848 39.0885 42.9316 38.875C42.4837 38.6615 42.1165 38.3932 41.8301 38.0703C41.5436 37.7422 41.3249 37.4115 41.1738 37.0781H41.0723V43.5H37.7441ZM41.002 33C41.002 33.7135 41.1009 34.3359 41.2988 34.8672C41.4967 35.3984 41.7832 35.8125 42.1582 36.1094C42.5332 36.401 42.9889 36.5469 43.5254 36.5469C44.0671 36.5469 44.5254 36.3984 44.9004 36.1016C45.2754 35.7995 45.5592 35.3828 45.752 34.8516C45.9499 34.3151 46.0488 33.6979 46.0488 33C46.0488 32.3073 45.9525 31.6979 45.7598 31.1719C45.5671 30.6458 45.2832 30.2344 44.9082 29.9375C44.5332 29.6406 44.0723 29.4922 43.5254 29.4922C42.9837 29.4922 42.5254 29.6354 42.1504 29.9219C41.7806 30.2083 41.4967 30.6146 41.2988 31.1406C41.1009 31.6667 41.002 32.2865 41.002 33ZM57.1348 39.2344C55.9004 39.2344 54.8379 38.9844 53.9473 38.4844C53.0618 37.9792 52.3796 37.2656 51.9004 36.3437C51.4212 35.4167 51.1816 34.3203 51.1816 33.0547C51.1816 31.8203 51.4212 30.737 51.9004 29.8047C52.3796 28.8724 53.054 28.1458 53.9238 27.625C54.7988 27.1042 55.8249 26.8438 57.002 26.8438C57.7936 26.8438 58.5306 26.9714 59.2129 27.2266C59.9004 27.4766 60.4993 27.8542 61.0098 28.3594C61.5254 28.8646 61.9264 29.5 62.2129 30.2656C62.4993 31.026 62.6426 31.9167 62.6426 32.9375V33.8516H52.5098V31.7891H59.5098C59.5098 31.3099 59.4056 30.8854 59.1973 30.5156C58.9889 30.1458 58.6999 29.8568 58.3301 29.6484C57.9655 29.4349 57.541 29.3281 57.0566 29.3281C56.5514 29.3281 56.1035 29.4453 55.7129 29.6797C55.3275 29.9089 55.0254 30.2187 54.8066 30.6094C54.5879 30.9948 54.4759 31.4245 54.4707 31.8984V33.8594C54.4707 34.4531 54.5801 34.9661 54.7988 35.3984C55.0228 35.8307 55.3379 36.1641 55.7441 36.3984C56.1504 36.6328 56.6322 36.75 57.1895 36.75C57.5592 36.75 57.8978 36.6979 58.2051 36.5938C58.5124 36.4896 58.7754 36.3333 58.9941 36.125C59.2129 35.9167 59.3796 35.6615 59.4941 35.3594L62.5723 35.5625C62.416 36.3021 62.0957 36.9479 61.6113 37.5C61.1322 38.0469 60.5124 38.474 59.752 38.7813C58.9967 39.0833 58.1243 39.2344 57.1348 39.2344ZM68.2363 39.2266C67.4707 39.2266 66.7884 39.0938 66.1895 38.8281C65.5905 38.5573 65.1165 38.1589 64.7676 37.6328C64.4238 37.1016 64.252 36.4401 64.252 35.6484C64.252 34.9818 64.3743 34.4219 64.6191 33.9687C64.8639 33.5156 65.1973 33.151 65.6191 32.875C66.041 32.599 66.5202 32.3906 67.0566 32.25C67.5983 32.1094 68.166 32.0104 68.7598 31.9531C69.4577 31.8802 70.0202 31.8125 70.4473 31.75C70.8743 31.6823 71.1842 31.5833 71.377 31.4531C71.5697 31.3229 71.666 31.1302 71.666 30.875V30.8281C71.666 30.3333 71.5098 29.9505 71.1973 29.6797C70.89 29.4089 70.4525 29.2734 69.8848 29.2734C69.2858 29.2734 68.8092 29.4062 68.4551 29.6719C68.1009 29.9323 67.8665 30.2604 67.752 30.6562L64.6738 30.4062C64.8301 29.6771 65.1374 29.0469 65.5957 28.5156C66.054 27.9792 66.6452 27.5677 67.3691 27.2812C68.0983 26.9896 68.9421 26.8438 69.9004 26.8438C70.5671 26.8438 71.2051 26.9219 71.8145 27.0781C72.429 27.2344 72.9733 27.4766 73.4473 27.8047C73.9264 28.1328 74.304 28.5547 74.5801 29.0703C74.8561 29.5807 74.9941 30.1927 74.9941 30.9062V39H71.8379V37.3359H71.7441C71.5514 37.7109 71.2936 38.0417 70.9707 38.3281C70.6478 38.6094 70.2598 38.8307 69.8066 38.9922C69.3535 39.1484 68.8301 39.2266 68.2363 39.2266ZM69.1895 36.9297C69.679 36.9297 70.1113 36.8333 70.4863 36.6406C70.8613 36.4427 71.1556 36.1771 71.3691 35.8438C71.5827 35.5104 71.6895 35.1328 71.6895 34.7109V33.4375C71.5853 33.5052 71.4421 33.5677 71.2598 33.625C71.0827 33.6771 70.8822 33.7266 70.6582 33.7734C70.4342 33.8151 70.2103 33.8542 69.9863 33.8906C69.7624 33.9219 69.5592 33.9505 69.377 33.9766C68.9863 34.0339 68.6452 34.125 68.3535 34.25C68.0618 34.375 67.8353 34.5443 67.6738 34.7578C67.5124 34.9661 67.4316 35.2266 67.4316 35.5391C67.4316 35.9922 67.5957 36.3385 67.9238 36.5781C68.2572 36.8125 68.679 36.9297 69.1895 36.9297ZM80.5918 35.5469L80.5996 31.5547H81.084L84.9277 27H88.748L83.584 33.0313H82.7949L80.5918 35.5469ZM77.5762 39V23H80.9043V39H77.5762ZM85.0762 39L81.5449 33.7734L83.7637 31.4219L88.9746 39H85.0762ZM90.3809 39V27H93.709V39H90.3809ZM92.0527 25.4531C91.5579 25.4531 91.1335 25.2891 90.7793 24.9609C90.4303 24.6276 90.2559 24.2292 90.2559 23.7656C90.2559 23.3073 90.4303 22.9141 90.7793 22.5859C91.1335 22.2526 91.5579 22.0859 92.0527 22.0859C92.5475 22.0859 92.9694 22.2526 93.3184 22.5859C93.6725 22.9141 93.8496 23.3073 93.8496 23.7656C93.8496 24.2292 93.6725 24.6276 93.3184 24.9609C92.9694 25.2891 92.5475 25.4531 92.0527 25.4531ZM99.7031 32.0625V39H96.375V27H99.5469V29.1172H99.6875C99.9531 28.4193 100.398 27.8672 101.023 27.4609C101.648 27.0495 102.406 26.8438 103.297 26.8438C104.13 26.8438 104.857 27.026 105.477 27.3906C106.096 27.7552 106.578 28.276 106.922 28.9531C107.266 29.625 107.438 30.4271 107.438 31.3594V39H104.109V31.9531C104.115 31.2187 103.927 30.6458 103.547 30.2344C103.167 29.8177 102.643 29.6094 101.977 29.6094C101.529 29.6094 101.133 29.7057 100.789 29.8984C100.451 30.0911 100.185 30.3724 99.9922 30.7422C99.8047 31.1068 99.7083 31.5469 99.7031 32.0625ZM115.467 43.75C114.389 43.75 113.464 43.6016 112.693 43.3047C111.928 43.013 111.318 42.6146 110.865 42.1094C110.412 41.6042 110.118 41.0365 109.982 40.4062L113.061 39.9922C113.154 40.2318 113.303 40.4557 113.506 40.6641C113.709 40.8724 113.977 41.0391 114.311 41.1641C114.649 41.2943 115.061 41.3594 115.545 41.3594C116.269 41.3594 116.865 41.1823 117.334 40.8281C117.808 40.4792 118.045 39.8932 118.045 39.0703V36.875H117.904C117.758 37.2083 117.54 37.5234 117.248 37.8203C116.956 38.1172 116.581 38.3594 116.123 38.5469C115.665 38.7344 115.118 38.8281 114.482 38.8281C113.581 38.8281 112.761 38.6198 112.021 38.2031C111.287 37.7812 110.701 37.138 110.264 36.2734C109.831 35.4036 109.615 34.3047 109.615 32.9766C109.615 31.6172 109.837 30.4818 110.279 29.5703C110.722 28.6589 111.311 27.9766 112.045 27.5234C112.785 27.0703 113.594 26.8438 114.475 26.8438C115.146 26.8438 115.709 26.9583 116.162 27.1875C116.615 27.4115 116.98 27.6927 117.256 28.0312C117.537 28.3646 117.753 28.6927 117.904 29.0156H118.029V27H121.334V39.1172C121.334 40.138 121.084 40.9922 120.584 41.6797C120.084 42.3672 119.391 42.8828 118.506 43.2266C117.626 43.5755 116.613 43.75 115.467 43.75ZM115.537 36.3281C116.074 36.3281 116.527 36.1953 116.896 35.9297C117.271 35.6589 117.558 35.2734 117.756 34.7734C117.959 34.2682 118.061 33.6641 118.061 32.9609C118.061 32.2578 117.962 31.6484 117.764 31.1328C117.566 30.612 117.279 30.2083 116.904 29.9219C116.529 29.6354 116.074 29.4922 115.537 29.4922C114.99 29.4922 114.529 29.6406 114.154 29.9375C113.779 30.2292 113.495 30.6354 113.303 31.1562C113.11 31.6771 113.014 32.2786 113.014 32.9609C113.014 33.6536 113.11 34.2526 113.303 34.7578C113.501 35.2578 113.785 35.6458 114.154 35.9219C114.529 36.1927 114.99 36.3281 115.537 36.3281Z" fill="#50256B"/>
</svg>
