<svg width="485" height="432" viewBox="0 0 485 432" fill="none" xmlns="http://www.w3.org/2000/svg">
<path d="M44.5334 224.751L40.2826 214.341C34.6443 200.532 35.1062 184.983 41.5542 171.533L72.4607 107.065C77.1941 97.1917 85.6558 89.603 95.9843 85.9685C106.313 82.334 117.662 82.9513 127.536 87.6847L132.645 90.1342C142.458 94.8386 153.737 95.4521 164.003 91.8399C174.268 88.2277 185.548 88.8412 195.36 93.5456L259.339 124.217C272.607 130.579 287.896 131.253 301.674 126.085C315.451 120.917 330.741 121.592 344.009 127.953L402.63 156.056C419.816 164.296 433.035 179.013 439.387 196.983L443.669 209.096C450.046 227.134 448.982 246.968 440.711 264.219L412.729 322.587C408.199 332.036 400.1 339.299 390.215 342.777C380.33 346.256 369.469 345.665 360.019 341.135L345.822 334.329C335.51 329.385 323.635 328.826 312.904 332.78C302.173 336.734 290.299 336.175 279.987 331.231L260.01 321.654C242.546 313.282 222.446 312.298 204.248 318.925L188.599 324.624C170.401 331.25 150.301 330.267 132.837 321.894L58.0505 286.041C50.8044 282.567 45.3222 276.245 42.9089 268.581L42.5052 267.332C40.3391 260.633 40.8284 253.357 43.8722 247.008C47.2247 240.015 47.4649 231.931 44.5334 224.751Z" fill="#865C4C"/>
<path d="M50.9489 211.288L46.7927 200.761C41.2492 186.72 41.8074 171.005 48.3331 157.393L78.105 95.2916C82.8383 85.4183 91.3001 77.8296 101.629 74.1951C111.957 70.5606 123.306 71.1779 133.18 75.9113L138.289 78.3608C148.102 83.0651 159.382 83.6787 169.647 80.0665C179.912 76.4543 191.192 77.0678 201.005 81.7721L264.983 112.444C278.252 118.805 293.541 119.48 307.318 114.312C321.096 109.144 336.385 109.818 349.654 116.18L408.274 144.283C425.46 152.522 438.679 167.24 445.032 185.21L449.314 197.322C455.69 215.36 454.626 235.194 446.355 252.446L420.587 306.195C415.686 316.419 407.123 324.429 396.595 328.638C384.845 333.336 371.664 332.896 360.253 327.426L345.716 320.457C336.082 315.838 324.906 315.684 315.148 320.035C305.39 324.385 294.214 324.231 284.58 319.613L261.943 308.76C244.386 300.343 224.169 299.395 205.902 306.133L190.897 311.668C172.63 318.405 152.413 317.458 134.856 309.041L67.2911 276.65C59.3186 272.828 53.0832 266.136 49.8324 257.914L49.1112 255.958C46.4627 248.776 46.8356 240.827 50.1449 233.924C53.551 226.819 53.8424 218.616 50.9489 211.288Z" fill="#642711"/>
<path d="M53.7307 207.196L49.4546 195.209C44.1983 180.474 45.0459 164.25 51.809 150.143L79.5161 92.3483C84.2495 82.4749 92.7112 74.8862 103.04 71.2517C113.368 67.6172 124.718 68.2345 134.591 72.9679L139.7 75.4174C149.513 80.1218 160.793 80.7353 171.058 77.1231C181.323 73.5109 192.603 74.1244 202.416 78.8288L266.394 109.501C279.663 115.862 294.952 116.536 308.729 111.368C322.507 106.201 337.796 106.875 351.065 113.236L409.685 141.339C426.872 149.579 440.09 164.297 446.443 182.266L450.725 194.379C457.101 212.417 456.037 232.251 447.766 249.502L423.727 299.647C418.227 311.119 408.45 319.979 396.494 324.327C384.208 328.795 370.64 328.128 358.852 322.476L345.731 316.186C336.034 311.537 324.793 311.344 314.943 315.658C305.092 319.972 293.851 319.779 284.154 315.13L261.847 304.436C244.384 296.064 224.283 295.08 206.085 301.707L190.437 307.405C172.239 314.032 152.139 313.048 134.675 304.676L70.4161 273.87C62.0693 269.868 55.6975 262.659 52.7518 253.884L51.5636 250.65C48.9461 243.524 49.3207 235.643 52.6022 228.798C55.844 222.036 56.2503 214.259 53.7307 207.196Z" fill="#D38EFF"/>
<path d="M55.8656 201.126L51.8276 190.259C46.4559 175.801 47.1876 159.782 53.855 145.874L81.1836 88.8698C85.917 78.9964 94.3787 71.4077 104.707 67.7732C115.036 64.1387 126.385 64.756 136.258 69.4894L141.368 71.9389C151.181 76.6433 162.46 77.2568 172.726 73.6446C182.991 70.0324 194.27 70.6459 204.083 75.3503L268.061 106.022C281.33 112.383 296.619 113.058 310.397 107.89C324.174 102.722 339.463 103.397 352.732 109.758L411.353 137.861C428.539 146.1 441.758 160.818 448.11 178.788L452.392 190.901C458.769 208.938 457.704 228.772 449.434 246.024L425.503 295.941C419.936 307.552 410.013 316.498 397.889 320.836C385.599 325.232 372.061 324.531 360.291 318.888L348.17 313.077C337.824 308.117 325.916 307.539 315.139 311.474C304.361 315.409 292.453 314.831 282.107 309.871L261.896 300.182C244.677 291.927 224.884 290.85 206.871 297.189L189.507 303.299C171.494 309.637 151.701 308.561 134.482 300.306L74.8776 271.731C65.7982 267.378 58.6691 259.795 54.8848 250.464L53.584 246.767C50.983 239.376 51.4248 231.254 54.8121 224.188C58.2765 216.962 58.6567 208.638 55.8656 201.126Z" fill="#E1B2FF"/>
<path d="M269 267L186 194" stroke="#EBCBFF" stroke-width="6" stroke-linejoin="round"/>
<path d="M182.506 194.167L54.6331 194.389" stroke="#EBCBFF" stroke-width="6" stroke-linejoin="round"/>
<g clip-path="url(#clip0_1145_532)">
<path d="M252.101 152.883C249.085 148.511 249.34 142.675 252.713 138.822C256.27 134.758 261.986 133.818 266.501 136.564C266.721 136.697 266.893 136.919 267.089 137.1C269.603 140.531 269.179 144.17 267.564 147.735C265.981 151.23 263.201 153.413 259.536 154.156C256.955 154.681 254.398 154.431 252.101 152.88V152.883Z" fill="#873EB5"/>
<path d="M252.101 152.884C252.86 152.476 253.472 153.053 254.116 153.253C261.191 155.45 268.312 149.902 268.184 142.254C268.162 140.911 267.875 139.613 267.355 138.373C267.186 137.974 266.802 137.608 267.086 137.1C273.158 140.706 273.392 150.687 267.513 155.264C266.102 156.362 264.527 157.086 262.788 157.419C261.768 158.504 260.174 158.509 259.061 157.433C256.177 156.837 253.826 155.369 252.098 152.881L252.101 152.884Z" fill="#69308C"/>
<path d="M262.847 159.483C265.09 159.663 266.362 161.064 266.327 163.319C266.298 165.327 264.779 166.886 262.716 166.972C261.65 167.017 260.58 166.994 259.515 166.981C257.204 166.947 255.694 165.644 255.428 163.472C255.208 161.674 256.453 160.065 258.53 159.455C258.699 159.405 258.863 159.327 259.029 159.261C259.753 159.513 259.638 160.184 259.692 160.748C259.764 161.519 259.901 162.279 260.8 162.351C261.755 162.429 262.05 161.682 262.206 160.867C262.305 160.348 262.219 159.738 262.85 159.48L262.847 159.483Z" fill="#AD4FE8"/>
<path d="M262.847 159.483C262.823 160.074 262.847 160.673 262.761 161.255C262.597 162.357 262.066 163.155 260.869 163.119C259.694 163.083 259.142 162.345 259.088 161.175C259.058 160.537 259.048 159.902 259.029 159.264C259.04 158.653 259.053 158.043 259.064 157.433C260.309 157.605 261.551 157.641 262.793 157.419C262.812 158.107 262.828 158.795 262.847 159.483Z" fill="#865C4C"/>
</g>
<g clip-path="url(#clip1_1145_532)">
<path d="M128.543 120.703C126.328 117.598 126.515 113.452 128.992 110.715C131.605 107.828 135.802 107.16 139.118 109.111C139.28 109.206 139.406 109.363 139.55 109.491C141.396 111.929 141.085 114.514 139.898 117.046C138.736 119.529 136.695 121.079 134.003 121.608C132.107 121.98 130.23 121.803 128.543 120.701V120.703Z" fill="#873EB5"/>
<path d="M128.543 120.704C129.1 120.414 129.55 120.824 130.023 120.966C135.219 122.526 140.448 118.585 140.354 113.153C140.338 112.199 140.127 111.277 139.745 110.396C139.621 110.112 139.339 109.852 139.548 109.492C144.007 112.053 144.178 119.143 139.861 122.394C138.825 123.174 137.668 123.689 136.391 123.925C135.642 124.696 134.472 124.7 133.654 123.935C131.536 123.511 129.81 122.469 128.541 120.702L128.543 120.704Z" fill="#69308C"/>
<path d="M136.434 125.391C138.082 125.519 139.016 126.514 138.99 128.116C138.968 129.543 137.853 130.65 136.338 130.711C135.556 130.743 134.769 130.727 133.987 130.717C132.291 130.693 131.181 129.767 130.986 128.225C130.825 126.948 131.739 125.805 133.264 125.371C133.388 125.336 133.508 125.281 133.631 125.233C134.163 125.413 134.078 125.89 134.117 126.29C134.17 126.837 134.271 127.377 134.931 127.428C135.632 127.484 135.849 126.954 135.964 126.374C136.036 126.006 135.973 125.572 136.436 125.389L136.434 125.391Z" fill="#AD4FE8"/>
<path d="M136.435 125.391C136.417 125.811 136.435 126.237 136.372 126.65C136.251 127.433 135.861 128 134.982 127.975C134.119 127.949 133.713 127.425 133.674 126.593C133.652 126.14 133.644 125.689 133.631 125.236C133.638 124.802 133.648 124.369 133.656 123.935C134.571 124.057 135.483 124.083 136.395 123.925C136.409 124.414 136.421 124.903 136.435 125.391Z" fill="#865C4C"/>
</g>
<g clip-path="url(#clip2_1145_532)">
<path d="M177.543 284.703C175.328 281.598 175.515 277.452 177.992 274.715C180.605 271.828 184.802 271.16 188.118 273.111C188.28 273.206 188.406 273.363 188.55 273.491C190.396 275.929 190.085 278.514 188.898 281.046C187.736 283.529 185.695 285.079 183.003 285.608C181.107 285.98 179.23 285.803 177.543 284.701V284.703Z" fill="#873EB5"/>
<path d="M177.543 284.704C178.1 284.414 178.55 284.824 179.023 284.966C184.219 286.526 189.448 282.585 189.354 277.153C189.338 276.199 189.127 275.277 188.745 274.396C188.621 274.112 188.339 273.852 188.548 273.492C193.007 276.053 193.178 283.143 188.861 286.394C187.825 287.174 186.668 287.689 185.391 287.925C184.642 288.696 183.472 288.7 182.654 287.935C180.536 287.511 178.81 286.469 177.541 284.702L177.543 284.704Z" fill="#69308C"/>
<path d="M185.434 289.391C187.082 289.519 188.016 290.514 187.99 292.116C187.968 293.543 186.853 294.65 185.338 294.711C184.556 294.743 183.769 294.727 182.987 294.717C181.291 294.693 180.181 293.767 179.986 292.225C179.825 290.948 180.739 289.805 182.264 289.371C182.388 289.336 182.508 289.281 182.631 289.233C183.163 289.413 183.078 289.89 183.117 290.29C183.17 290.837 183.271 291.377 183.931 291.428C184.632 291.484 184.849 290.954 184.964 290.374C185.036 290.006 184.973 289.572 185.436 289.389L185.434 289.391Z" fill="#AD4FE8"/>
<path d="M185.435 289.391C185.417 289.811 185.435 290.237 185.372 290.65C185.251 291.433 184.861 292 183.982 291.975C183.119 291.949 182.713 291.425 182.674 290.593C182.652 290.14 182.644 289.689 182.631 289.236C182.638 288.802 182.648 288.369 182.656 287.935C183.571 288.057 184.483 288.083 185.395 287.925C185.409 288.414 185.421 288.903 185.435 289.391Z" fill="#865C4C"/>
</g>
<g clip-path="url(#clip3_1145_532)">
<path d="M162.857 176.758C157.32 168.995 157.788 158.63 163.98 151.788C170.512 144.571 181.005 142.901 189.295 147.778C189.699 148.015 190.015 148.409 190.374 148.729C194.99 154.823 194.212 161.286 191.246 167.616C188.34 173.823 183.236 177.699 176.507 179.02C171.768 179.951 167.074 179.507 162.857 176.754V176.758Z" fill="#873EB5"/>
<path d="M162.857 176.759C164.251 176.034 165.374 177.059 166.557 177.414C179.547 181.315 192.621 171.463 192.384 157.882C192.345 155.497 191.818 153.192 190.862 150.99C190.552 150.281 189.847 149.63 190.37 148.729C201.517 155.133 201.946 172.857 191.153 180.985C188.562 182.936 185.67 184.222 182.478 184.813C180.606 186.739 177.68 186.749 175.636 184.837C170.34 183.778 166.025 181.172 162.852 176.754L162.857 176.759Z" fill="#69308C"/>
<path d="M182.586 188.478C186.704 188.798 189.039 191.286 188.975 195.291C188.921 198.857 186.133 201.626 182.345 201.779C180.389 201.857 178.424 201.818 176.468 201.793C172.227 201.734 169.453 199.419 168.965 195.562C168.561 192.37 170.847 189.513 174.66 188.429C174.97 188.34 175.271 188.202 175.576 188.084C176.906 188.532 176.695 189.724 176.793 190.724C176.926 192.094 177.177 193.444 178.828 193.572C180.581 193.71 181.123 192.384 181.409 190.936C181.591 190.015 181.433 188.931 182.591 188.473L182.586 188.478Z" fill="#AD4FE8"/>
<path d="M182.586 188.478C182.542 189.527 182.586 190.591 182.429 191.626C182.128 193.581 181.153 195 178.956 194.936C176.798 194.872 175.783 193.562 175.685 191.483C175.631 190.35 175.611 189.222 175.576 188.089C175.596 187.005 175.621 185.921 175.64 184.838C177.926 185.143 180.207 185.207 182.488 184.813C182.522 186.035 182.552 187.256 182.586 188.478Z" fill="#865C4C"/>
</g>
<defs>
<clipPath id="clip0_1145_532">
<rect width="21.7872" height="32" fill="white" transform="translate(250 135)"/>
</clipPath>
<clipPath id="clip1_1145_532">
<rect width="16" height="22.731" fill="white" transform="translate(127 108)"/>
</clipPath>
<clipPath id="clip2_1145_532">
<rect width="16" height="22.731" fill="white" transform="translate(176 272)"/>
</clipPath>
<clipPath id="clip3_1145_532">
<rect width="40" height="56.8276" fill="white" transform="translate(159 145)"/>
</clipPath>
</defs>
</svg>
