<svg width="20" height="19" viewBox="0 0 20 19" fill="none" xmlns="http://www.w3.org/2000/svg">
<path d="M19.1017 0.582726C18.8136 0.343948 18.476 0.172461 18.1132 0.0807717C17.7505 -0.010918 17.3719 -0.0204995 17.005 0.0527259L13.57 0.886059C12.802 1.0258 12.1073 1.43066 11.6072 2.03007C11.1071 2.62948 10.8332 3.38541 10.8333 4.16606V16.4994L10 16.6502L9.16667 16.4994V4.16606C9.16972 3.39314 8.90266 2.64344 8.41164 2.04652C7.92062 1.4496 7.2365 1.04296 6.4775 0.896893L2.94667 0.0402259C2.58647 -0.0251809 2.21631 -0.0106847 1.86234 0.0826903C1.50836 0.176065 1.17921 0.34604 0.898151 0.580604C0.617088 0.815168 0.390969 1.1086 0.235772 1.44015C0.0805755 1.77171 8.89544e-05 2.13331 0 2.49939L0 16.5277L10 18.3469L20 16.5277V2.49939C20 2.13358 19.9196 1.77223 19.7643 1.441C19.6091 1.10976 19.3828 0.81674 19.1017 0.582726V0.582726Z"/>
</svg>
