<svg width="48" height="48" viewBox="0 0 48 48" fill="none" xmlns="http://www.w3.org/2000/svg">
<path d="M4 21.9411V26.6136L43.115 30.6185C44.45 26.1686 45.2243 15.8536 38.1756 10.1933C29.3647 3.11786 19.0853 3.91885 11.7429 8.72479C5.86898 12.5695 4 18.3367 4 21.9411Z" fill="#277CB5"/>
<ellipse cx="24.0248" cy="26.213" rx="16.5538" ry="13.7503" fill="#C1E6FF"/>
<ellipse cx="24" cy="28" rx="17.5" ry="12" fill="white"/>
<path d="M41.7825 26.2131C41.7825 34.1844 34.0839 41.1674 23.8912 41.1674C13.6986 41.1674 5.99997 34.1844 5.99997 26.2131C5.99997 18.2418 13.6986 11.2588 23.8912 11.2588C34.0839 11.2588 41.7825 18.2418 41.7825 26.2131Z" stroke="#17496B" stroke-width="4"/>
<circle cx="10.6749" cy="26.3465" r="1.86898" fill="#C1E6FF"/>
<circle cx="37.1076" cy="26.3465" r="1.86898" fill="#C1E6FF"/>
<circle cx="24.0247" cy="16.4676" r="1.86898" fill="#C1E6FF"/>
<circle cx="24.0248" cy="36.4925" r="1.86898" fill="#C1E6FF"/>
<path d="M26.2942 24.2106L17.0828 20.3391L21.6218 28.2155L26.2942 24.2106Z" fill="#EE5D28"/>
<path d="M21.6218 28.2155L30.8332 32.0869L26.2942 24.2105L21.6218 28.2155Z" fill="#C1E6FF"/>
</svg>
