<svg width="16" height="20" viewBox="0 0 16 20" fill="none" xmlns="http://www.w3.org/2000/svg">
<path d="M14.1667 17.0367V20L12.5 18.3333L10.8333 20V17.0367C10.1979 16.6698 9.70121 16.1035 9.4204 15.4255C9.1396 14.7476 9.09033 13.996 9.28025 13.2872C9.47016 12.5784 9.88865 11.9521 10.4708 11.5054C11.0529 11.0587 11.7662 10.8166 12.5 10.8166C13.2338 10.8166 13.9471 11.0587 14.5292 11.5054C15.1114 11.9521 15.5298 12.5784 15.7198 13.2872C15.9097 13.996 15.8604 14.7476 15.5796 15.4255C15.2988 16.1035 14.8021 16.6698 14.1667 17.0367ZM9.16667 17.8858V18.3333H0V2.5C0 1.83696 0.263392 1.20107 0.732233 0.732233C1.20107 0.263392 1.83696 0 2.5 0L12.5 0C13.163 0 13.7989 0.263392 14.2678 0.732233C14.7366 1.20107 15 1.83696 15 2.5V9.84083C13.9302 9.2194 12.6677 9.0172 11.4573 9.27342C10.2469 9.52964 9.17466 10.226 8.44839 11.2277C7.72211 12.2293 7.39349 13.4649 7.52619 14.695C7.65889 15.9251 8.24347 17.0621 9.16667 17.8858V17.8858ZM3.33333 5H11.6667V3.33333H3.33333V5ZM3.33333 8.33333H11.6667V6.66667H3.33333V8.33333ZM3.33333 11.6667H7.5V10H3.33333V11.6667Z"/>
</svg>
