<svg width="49" height="48" viewBox="0 0 49 48" fill="none" xmlns="http://www.w3.org/2000/svg">
<path d="M9.66312 14.3157H4.39996V10.9149C4.39996 9.9432 4.92628 7.99988 7.03154 7.99988C9.13681 7.99988 9.66312 9.9432 9.66312 10.9149V14.3157Z" fill="#FFEC86"/>
<path d="M13.8736 34.3157H8.61047V37.7165C8.61047 38.6881 9.13679 40.6315 11.2421 40.6315C13.3473 40.6315 13.8736 38.6881 13.8736 37.7165V34.3157Z" fill="#FFEC86"/>
<rect x="8.61047" y="10.1052" width="28.4211" height="6.31579" fill="#E8CE44"/>
<rect x="6.50525" y="8" width="30.5263" height="6.31579" fill="#FFEC86"/>
<rect x="10.7158" y="34.3157" width="31.5789" height="6.31579" fill="#FFEC86"/>
<path d="M44.3999 34.3157H39.1368V37.7165C39.1368 38.6881 39.6631 40.6315 41.7684 40.6315C43.8736 40.6315 44.3999 38.6881 44.3999 37.7165V34.3157Z" fill="#E8CE44"/>
<rect x="8.61047" y="16.4211" width="30.5263" height="21.0526" fill="#FFEC86"/>
<path d="M39.1368 16.4211H33.8737V10.9151C33.8737 9.94341 34.4 8.00009 36.5052 8.00009C38.6105 8.00009 39.1368 9.94341 39.1368 10.9151V16.4211Z" fill="#E8CE44"/>
<path d="M19.6631 12.7368L17.5579 14.8421H21.7684L19.6631 12.7368Z" fill="#E8CE44"/>
<path d="M16.2459 21.158C12.4565 21.579 12.5617 18.1755 13.088 16.4211H23.0878C22.3861 17.8247 20.0354 20.7369 16.2459 21.158Z" fill="#E8CE44"/>
<path d="M14.9265 24.8421C12.8213 24.8421 12.2949 27.2983 12.2949 28.5263C11.8739 31.4737 13.523 32.2105 14.4002 32.2105H21.2423C24.4002 32.2105 22.8213 30.6316 24.9265 29.0526C27.0318 27.4737 29.6634 28 32.2949 28C34.4002 28 34.9265 26.5965 34.9265 25.8947V22.7369C34.9265 21.1579 34.4002 20.6316 31.2423 20.6316C26.5055 20.6316 23.3476 21.1579 21.2423 23.2632C19.137 25.3684 17.5581 24.8421 14.9265 24.8421Z" fill="#E8CE44"/>
<path d="M29.2024 37.4736C27.5182 37.4736 27.448 39.5789 27.6234 40.6315H32.8868C32.8868 39.0526 31.3076 37.4736 29.2024 37.4736Z" fill="#E8CE44"/>
<path d="M28.0843 29.0527C27.9088 30.8071 28.2948 34.3159 31.2422 34.3159C34.9264 34.3159 35.4526 36.4212 35.4526 39.0527" stroke="#8C7C29" stroke-dasharray="2 2"/>
</svg>
