<svg width="49" height="48" viewBox="0 0 49 48" fill="none" xmlns="http://www.w3.org/2000/svg">
<g clip-path="url(#clip0_1044_961)">
<path d="M24.608 33.0242C25.2372 33.1424 25.9871 33.9845 26.4105 34.285C27.4205 34.997 28.4921 35.6664 29.5778 36.2554C29.7742 36.3618 29.7553 34.0082 29.7553 33.8308C29.7553 33.0667 29.7907 32.3027 29.7955 31.5387C29.7955 31.1649 29.5116 29.7031 29.8097 29.4783C29.9161 29.3979 30.0604 29.3837 30.1952 29.379C32.3809 29.2915 34.6116 30.4979 36.0734 32.0567C37.365 33.4334 38.1787 35.198 38.5666 37.0336C38.7653 37.9727 38.7937 38.9307 38.7724 39.8887C38.7582 40.6031 38.7724 41.3175 38.7417 42.0319C38.7227 42.5191 38.7795 43.1413 38.4058 43.5174C38.0959 43.8296 37.6086 43.8485 37.1686 43.8485C30.5713 43.8485 23.9741 43.8485 17.3768 43.8462C15.4489 43.8462 13.5163 43.8698 11.5885 43.858C11.2692 43.858 10.9333 43.7989 10.6825 43.6002C10.6423 43.5694 10.6045 43.5316 10.5879 43.4819C10.5737 43.4369 10.5808 43.3896 10.595 43.3447C10.7464 42.8598 11.2786 42.9993 11.6547 42.9426C12.2579 42.8503 13.5116 43.2453 13.9066 42.6232C14.0367 42.4174 14.0675 42.1643 14.0864 41.9207C14.1976 40.4565 13.9894 38.978 14.129 37.5162C14.2638 36.0898 14.744 34.7013 15.4986 33.4854C15.8889 32.8539 16.3525 32.2696 16.8824 31.7468C17.2916 31.3447 18.5169 29.7242 19.132 29.7194C19.1414 30.5474 19.1201 31.2051 19.1225 31.7326C19.1249 32.4896 19.1296 33.2465 19.132 34.0035C19.1343 34.583 18.9545 35.4772 19.3117 35.9834C19.6926 36.5203 21.223 35.2193 21.6228 34.952C22.472 34.3867 23.2952 33.7811 24.09 33.1424C24.2437 33.0194 24.4188 32.9911 24.6033 33.0265L24.608 33.0242Z" fill="#255601"/>
<path d="M24.6222 32.9391C23.4631 32.9746 22.4483 32.2838 21.9327 31.2643C21.4951 30.3986 21.5897 29.3909 21.2774 28.4849C20.9415 27.508 20.0285 27.0727 19.2124 26.5476C18.595 26.1502 18.0013 25.6866 17.4619 25.1898C15.1532 23.0609 14.6731 19.4914 15.0397 16.5204C15.0965 16.0615 15.1911 15.5435 15.5672 15.2312C15.9788 14.8906 16.5583 14.9142 17.0598 14.9C18.3632 14.8622 19.5625 14.4341 20.3856 13.3838C20.9652 12.6458 21.2798 11.8628 22.3395 11.7327C23.2573 11.6192 23.721 12.2436 24.2508 12.8752C24.8375 13.573 25.4501 14.2306 26.3159 14.576C27.2573 14.9521 28.291 14.9474 29.2893 14.9261C30.3111 14.9048 31.3354 14.9071 32.3596 14.9071C32.6127 14.9071 32.8729 14.9071 33.1118 14.9876C33.5755 15.1437 33.7907 15.6144 33.812 16.0733C33.838 16.66 33.8664 17.2466 33.883 17.8332C33.9256 19.3045 33.9232 20.8161 33.5187 22.2425C33.2514 23.1792 32.7097 23.9882 32.0332 24.6789C31.3567 25.3696 30.5217 26.1904 29.6748 26.7439C28.7641 27.3377 27.7422 27.5553 27.5861 28.8066C27.3827 30.4364 27.2952 32.1798 25.4643 32.7948C25.1994 32.8823 24.9155 32.932 24.6246 32.9414L24.6222 32.9391Z" fill="#FACDBC"/>
<path d="M29.1497 15.2217C28.8658 15.2998 28.5536 15.2927 28.2532 15.2761C26.8623 15.2004 25.3271 14.9331 24.4708 13.8332C24.1728 13.45 23.9812 12.9887 23.6665 12.6197C23.236 12.1111 22.5524 11.9739 21.9208 12.1442C21.0598 12.3761 20.7807 13.6534 20.1467 14.2329C19.0019 15.2785 17.5755 15.1673 16.1444 15.2406C15.5956 15.269 15.4442 15.6026 15.4229 16.1206C15.3661 17.6416 15.3401 19.2335 15.6027 20.7616C15.747 21.5943 16.0214 22.3938 16.3904 23.1555C16.582 23.5529 16.7996 23.9361 17.022 24.3146C17.1213 24.4825 17.76 25.2584 17.2845 25.2584C15.8794 25.2584 14.4791 24.738 13.417 23.8154C10.9143 21.6369 11.1532 18.1123 11.3803 15.1105C11.5648 12.6646 12.2343 10.2282 13.7742 8.27908C15.0681 6.64218 16.8233 5.29859 18.8244 4.65755C20.8256 4.01651 23.0799 4.58186 24.7783 5.74803C26.7961 7.13183 28.388 9.37665 29.2017 11.6641C29.4761 12.4328 30.4034 14.5381 29.4477 15.0987C29.3531 15.1531 29.2538 15.1933 29.1497 15.2241V15.2217Z" fill="#BE57FF"/>
<path d="M19.3969 4.5701C19.3969 4.5701 19.3898 4.55354 19.3874 4.54408C19.2975 4.21055 20.3029 4.1727 20.4874 4.16324C21.7127 4.10174 22.938 4.04024 24.1633 4.01422C26.2827 3.96691 28.4779 4.03077 30.4791 4.80192C32.2082 5.46661 33.8215 6.59967 35.0255 8.00712C36.1089 9.27264 36.8635 10.796 37.2136 12.4234C37.6133 14.2803 37.5447 16.1774 37.4099 18.058C37.2822 19.8392 37.0314 21.6937 35.993 23.1958C35.0563 24.5512 33.1994 25.4666 31.5767 24.9226C32.5394 23.8061 33.1071 22.3868 33.3649 20.9367C33.5329 19.9977 33.5944 19.0396 33.5613 18.0864C33.5376 17.4146 33.6204 16.0686 33.0976 15.5766C32.8445 15.3377 32.4637 15.3069 32.1136 15.2927C31.6382 15.2738 31.1627 15.2667 30.6872 15.2596C30.4294 15.2573 29.1426 15.4583 29.4335 15.0042C29.6819 14.6162 29.6086 14.1124 29.5045 13.6629C28.6766 10.0745 26.4152 6.39151 22.8647 4.99115C22.3655 4.79482 21.8167 4.64343 21.2774 4.59612C20.8043 4.55591 20.317 4.6931 19.8416 4.67891C19.7186 4.67655 19.4607 4.70257 19.3945 4.5701H19.3969Z" fill="#AD4FE8"/>
<path d="M18.9451 30.7109C18.893 30.7818 18.8386 30.8504 18.7771 30.9119C18.4862 31.2171 18.1195 31.4347 17.7765 31.6807C16.3029 32.7404 15.2857 34.356 14.7393 36.0876C13.9776 38.5027 14.1361 41.0716 14.3111 43.5601C14.323 43.7351 14.2969 43.8818 14.1101 43.9527C14.0131 43.9906 13.9066 43.9906 13.8026 43.9906C13.4714 43.9929 13.1402 43.9953 12.8091 43.9953C12.1136 43.9977 11.2053 44.0403 10.6376 43.5624C10.2165 43.21 10.2307 42.5713 10.2212 42.0698C10.1881 40.3903 10.1432 38.6896 10.4554 37.0314C10.7038 35.7138 11.1887 34.4128 12.0095 33.3389C12.8422 32.2484 13.6701 31.1934 14.8647 30.4554C15.4891 30.0698 16.1751 29.7836 16.8895 29.6086C17.4714 29.4666 18.0557 29.4288 18.6518 29.3815C18.7748 29.372 18.9072 29.3649 19.0137 29.4264C19.1296 29.495 19.1864 29.6322 19.2076 29.767C19.262 30.0982 19.1414 30.4294 18.9427 30.7061L18.9451 30.7109Z" fill="#307001"/>
<path d="M24.6482 22.2708C24.8209 22.2708 24.9936 22.2708 25.1663 22.2708C25.4856 22.266 25.9043 22.1336 26.2 22.3062C26.6045 22.5452 26.3632 23.1957 26.1456 23.4819C25.5305 24.2838 24.3856 24.4423 23.501 24.033C22.9806 23.7941 22.5524 23.2619 22.6352 22.6658C22.6612 22.4837 22.7487 22.311 22.9356 22.2542C23.0515 22.2187 23.1769 22.2258 23.2999 22.2306C23.7493 22.2542 24.1988 22.266 24.6482 22.2684V22.2708Z" fill="white"/>
<path d="M21.3981 19.1816C21.417 19.7091 21.1 20.2579 20.4448 20.2579C19.8274 20.2579 19.4726 19.8629 19.4158 19.2904C19.3519 18.6139 19.7612 18.2378 20.4164 18.2118C21.0527 18.1881 21.3791 18.6754 21.3981 19.1792V19.1816Z" fill="#642711"/>
<path d="M29.1237 19.8012C29.0409 19.91 28.9415 20.007 28.8304 20.078C28.1609 20.5061 27.4253 19.8462 27.482 19.1271C27.5648 18.0981 29.3768 18.0059 29.372 19.094C29.372 19.34 29.2774 19.5954 29.1237 19.7989V19.8012Z" fill="#642711"/>
</g>
<defs>
<clipPath id="clip0_1044_961">
<rect width="28.5748" height="40" fill="white" transform="translate(10.2 4)"/>
</clipPath>
</defs>
</svg>
