<svg width="49" height="48" viewBox="0 0 49 48" fill="none" xmlns="http://www.w3.org/2000/svg">
<mask id="path-1-outside-1_1044_606" maskUnits="userSpaceOnUse" x="4.79999" y="19.1829" width="40" height="19" fill="black">
<rect fill="white" x="4.79999" y="19.1829" width="40" height="19"/>
<path d="M4.79999 19.1829H44.8V36.5675H4.79999V19.1829Z"/>
</mask>
<path d="M4.79999 19.1829H44.8V36.5675H4.79999V19.1829Z" fill="#A9421C"/>
<path d="M44.8 35.5675H4.79999V37.5675H44.8V35.5675Z" fill="#642711" mask="url(#path-1-outside-1_1044_606)"/>
<path d="M6.9541 19.1829H42.9541V34.5675H6.9541V19.1829Z" fill="#642711"/>
<path d="M6.9541 19.1829H42.9541V34.5675H6.9541V19.1829Z" fill="#F4926F"/>
<path d="M11.1217 34.6058C11.0261 34.6122 10.9442 34.6116 10.8772 34.6058H11.1217C11.8673 34.5562 13.4521 34.0882 15.4156 32.452C18.1849 30.1443 18.5695 30.1443 20.6464 32.452C22.3079 34.2981 22.5182 34.6571 22.4156 34.6058H11.1217Z" fill="#642711"/>
<path d="M38.7311 34.6058C38.8268 34.6122 38.9086 34.6116 38.9757 34.6058H38.7311C37.9856 34.5562 36.4007 34.0882 34.4372 32.452C31.668 30.1443 31.2834 30.1443 29.2064 32.452C27.5449 34.2981 27.3346 34.6571 27.4372 34.6058H38.7311Z" fill="#642711"/>
<path d="M12.6289 14.6734C11.1231 15.4274 8.33446 15.6461 6.9541 15.5181V30.7227C10.0216 30.7995 11.0952 30.7995 12.7823 29.878C14.4694 28.9565 17.0001 26.2688 18.4571 26.2688C19.9142 26.2688 20.9878 26.8832 22.2148 28.419C23.1964 29.6476 24.4131 31.0811 24.8988 31.6442C25.6146 30.8763 27.1841 29.1562 27.7362 28.419C28.4264 27.4975 29.3467 26.576 30.5736 26.2688C32.4141 25.8849 35.0215 28.4958 37.092 29.8012C38.7485 30.8456 41.6677 30.8507 42.9202 30.7227C42.9458 26.2176 42.9816 16.8696 42.9202 15.5181C39.8528 15.5181 38.3778 15.4067 37.0153 14.5198C35.4816 13.5215 32.8743 10.6803 30.6503 11.0642C29.4847 11.2485 28.2219 12.5745 27.7362 13.2144L24.8988 16.4396C24.6688 16.1324 23.8099 15.0574 22.2148 13.2144C20.2209 10.9107 19.6841 11.0642 18.4571 11.0642C16.6933 11.0642 14.6228 13.6751 12.6289 14.6734Z" fill="#FDEFEA"/>
<path d="M22.6461 13.7213C20.723 11.2597 20.0307 10.9521 18.3384 11.029V26.2597C20.2615 26.1828 21.6461 27.8239 22.4922 28.7982L24.8768 31.6444L24.9538 16.3367L22.6461 13.7213Z" fill="#FACDBC"/>
<path d="M33.8769 12.1058C32.359 11.055 31.0564 10.9263 30.6461 11.0289V26.2597C31.3384 26.1827 32.3384 26.4135 33.6461 27.3366C35.0415 28.3216 36.3384 29.5674 37.9538 30.3366C39.2461 30.952 41.8256 30.9007 42.9538 30.7981V15.4904C40.2615 15.5674 39.1846 15.4135 37.8769 14.952C36.5692 14.4904 35.8769 13.4904 33.8769 12.1058Z" fill="#FACDBC"/>
<path d="M13.4921 16.952C11.6118 18.1742 10.2101 18.3879 9.7229 18.3366V19.2596C11.1998 19.3212 13.0306 18.3622 13.7229 17.875C15.2614 16.952 17.1933 15.0278 18.4152 14.875C20.2614 14.6443 20.7229 15.6443 22.1075 16.952V16.0289C20.8767 14.4904 19.8767 13.7212 18.4152 13.875C16.9537 14.0289 15.0306 15.952 13.4921 16.952Z" fill="#F7B49C"/>
<path d="M13.4921 19.8174C11.6118 21.0397 10.2101 21.2533 9.7229 21.2021V22.1251C11.1998 22.1867 13.0306 21.2277 13.7229 20.7405C15.2614 19.8174 17.1933 17.8933 18.4152 17.7405C20.2614 17.5097 20.7229 18.5097 22.1075 19.8174V18.8944C20.8767 17.3559 19.8767 16.5867 18.4152 16.7405C16.9537 16.8944 15.0306 18.8174 13.4921 19.8174Z" fill="#F7B49C"/>
<path d="M13.4921 22.6829C11.6118 23.9051 10.2101 24.1188 9.7229 24.0675V24.9906C11.1998 25.0521 13.0306 24.0932 13.7229 23.606C15.2614 22.6829 17.1933 20.7587 18.4152 20.606C20.2614 20.3752 20.7229 21.3752 22.1075 22.6829V21.7598C20.8767 20.2214 19.8767 19.4521 18.4152 19.606C16.9537 19.7598 15.0306 21.6829 13.4921 22.6829Z" fill="#F7B49C"/>
<path d="M36.4924 16.8943C38.3727 18.1166 39.7744 18.3302 40.2616 18.279V19.202C38.7847 19.2636 36.9539 18.3046 36.2616 17.8174C34.7231 16.8943 32.7912 14.9702 31.5693 14.8174C29.7231 14.5867 29.2616 15.5867 27.877 16.8943V15.9713C29.1077 14.4328 30.1077 13.6636 31.5693 13.8174C33.0308 13.9713 34.9539 15.8943 36.4924 16.8943Z" fill="#F7B49C"/>
<path d="M36.4924 19.8174C38.3727 21.0397 39.7744 21.2533 40.2616 21.2021V22.1251C38.7847 22.1867 36.9539 21.2277 36.2616 20.7405C34.7231 19.8174 32.7912 17.8933 31.5693 17.7405C29.7231 17.5097 29.2616 18.5097 27.877 19.8174V18.8944C29.1077 17.3559 30.1077 16.5867 31.5693 16.7405C33.0308 16.8944 34.9539 18.8174 36.4924 19.8174Z" fill="#F7B49C"/>
<path d="M31.1848 19.6443C32.7232 19.6443 33.8002 20.952 35.3386 21.952V22.952C33.8002 22.0289 32.7232 20.4904 31.1848 20.4904C29.8771 20.4904 29.1079 21.1058 27.8771 22.5867V21.6636C29.1079 20.1251 30.0309 19.6443 31.1848 19.6443Z" fill="#F7B49C"/>
<path d="M36.4924 25.5098C38.3727 26.732 39.7744 26.9457 40.2616 26.8944V27.8175C38.7847 27.879 36.9539 26.9201 36.2616 26.4329C34.7231 25.5098 32.7912 23.5856 31.5693 23.4329C29.7231 23.2021 29.2616 24.2021 27.877 25.5098V24.5867C29.1077 23.0483 30.1077 22.2791 31.5693 22.4329C33.0308 22.5867 34.9539 24.5098 36.4924 25.5098Z" fill="#F7B49C"/>
<path d="M13.4921 25.5485C11.6118 26.7707 10.2101 26.9844 9.7229 26.9331V27.8562C11.1998 27.9177 13.4614 26.5358 13.646 26.4136C13.8306 26.2913 15.5434 25.0486 16.3383 24.4136V23.4136C15.6614 24.0905 14.1588 25.1189 13.4921 25.5485Z" fill="#F7B49C"/>
</svg>
