<?xml version="1.0" encoding="UTF-8"?>
<svg id="Layer_2" data-name="Layer 2" xmlns="http://www.w3.org/2000/svg" viewBox="0 0 590.81 528.09">
  <defs>
    <style>
      .cls-1 {
        fill: #b499c8;
      }

      .cls-2 {
        fill: #e54d3d;
      }

      .cls-3 {
        fill: #e54c3c;
      }

      .cls-4 {
        fill: #f19a20;
      }

      .cls-5 {
        fill: #fec007;
      }

      .cls-5, .cls-6 {
        stroke: #3b5998;
        stroke-miterlimit: 10;
        stroke-width: .25px;
      }

      .cls-7 {
        fill: #f19c20;
      }

      .cls-8 {
        fill: #3b96d2;
      }

      .cls-9 {
        fill: #fff;
      }

      .cls-10 {
        fill: #67b8cb;
      }

      .cls-11 {
        fill: #7d6599;
      }

      .cls-12 {
        fill: #9ec7d2;
      }

      .cls-13 {
        opacity: .35;
      }

      .cls-14 {
        fill: #f4edc8;
      }

      .cls-15 {
        fill: #b496c2;
      }

      .cls-6 {
        fill: #465a64;
      }

      .cls-16 {
        fill: #3b97d2;
      }
    </style>
  </defs>
  <g id="Layer_1-2" data-name="Layer 1">
    <g>
      <g id="Mfxozo.tif" class="cls-13">
        <g>
          <path class="cls-11" d="M513.63,243.02c17.03.09,44.63-2.33,60.2.27,9.04,1.51,13.76,8,16.98,15.85v111.73c-4.26,6.39-5.93,10.68-13.81,13.26-9.62,3.15-29.53,2.02-40.33,1.71-.58-.02-1.71-1.13-2.3-1.15-8.41-.29-16.92.21-25.34,0v-141.68c1.54,0,3.07,0,4.61,0Z"/>
          <path class="cls-8" d="M428.45,1.02v101.36c-101.71.24-203.56-1.07-305.26,0V1.02c101.73-.22,203.53-.23,305.26,0Z"/>
          <path class="cls-11" d="M79.36,243.02c14.56-.26,29.21.06,43.77,0v141.68c-20.4-1.25-42.65,1.64-62.84.04-2.16-.17-4.25-.48-6.28-1.2-7.54-2.64-11.89-11.39-12.66-19.02-3.26-32.42,2.15-70.36.29-103.35,4.12-21.19,21.02-17.86,37.71-18.16Z"/>
          <path class="cls-3" d="M54.02,385.85c2.68-.02,5.38.02,8.06,0v141.68c-13.28-.09-29.87,1.31-42.62,0-9.37-.96-16.58-7.67-18.33-16.8l.17-109.05c1.13-6.62,7.78-14.2,14.38-15.56,9.15-1.89,27.92-.17,38.33-.26Z"/>
          <path class="cls-16" d="M82.87,1.02v101.36c-20.26-1.69-44.11,2.27-63.93,0-9.68-1.11-16.79-9.5-17.86-19-1.67-14.9-1.18-45.75-.05-61.1C1.81,11.74,5.72,4.91,16,1.53c22.26-1.01,44.61-.42,66.88-.51Z"/>
          <path class="cls-16" d="M513.69,102.38c-14.94.26-29.98-.06-44.92,0V1.02c18.92.07,47.39-2.39,64.98.1,11.43,1.62,16.09,12.01,16.85,22.31,1.15,15.46,1.31,42.34,0,57.68-2.04,23.79-18.78,20.95-36.9,21.27Z"/>
          <path class="cls-10" d="M123.19,1.02v101.36c-12.43.13-27.13-1.11-39.17,0h-1.15V1.02c13.42-.06,26.9.03,40.32,0Z"/>
          <path class="cls-10" d="M468.77,1.02v101.36c-13.42.05-26.9-.03-40.32,0V1.02c13.42.03,26.9-.05,40.32,0Z"/>
          <path class="cls-15" d="M143.87,243.02v141.68s345.58,0,345.58,0v1.15c-13.8-.09-27.67.04-41.47,0-115.16-.3-230.42-.35-345.58,0-13.42.04-26.9-.08-40.32,0-2.68.02-5.38-.02-8.06,0v-2.3c2.03.71,4.12,1.02,6.28,1.2,20.18,1.6,42.44-1.28,62.84-.04v-141.68c6.89-.03,13.83.02,20.73,0Z"/>
          <path class="cls-1" d="M509.02,243.02v142.83c-6.51-.09-13.07.04-19.58,0v-142.83c6.51.02,13.07-.03,19.58,0Z"/>
          <path class="cls-15" d="M534.37,384.7v1.15c-7.15-.98-17.66.1-25.34,0v-1.15c8.42.21,16.93-.29,25.34,0Z"/>
          <path class="cls-1" d="M536.67,385.85v1.15c-.75-.24-1.67-1.07-2.3-1.15v-1.15c.59.02,1.72,1.14,2.3,1.15Z"/>
          <path class="cls-2" d="M509.02,385.85c7.68.1,18.19-.98,25.34,0,.63.09,1.55.91,2.3,1.15,7.97,2.53,11.94,8.72,13.72,16.8-1.96,33.09,2.95,69.8.14,102.45-1.04,12.12-7.1,20.19-19.62,21.27-12.83,1.11-28.27-.09-41.47,0v-141.68c6.51.04,13.07-.09,19.58,0Z"/>
          <path class="cls-3" d="M447.97,385.85v141.68c-115.16.32-230.42.37-345.58,0v-141.68c115.16-.35,230.42-.3,345.58,0ZM188.04,447.3c-17.04,19.53,23.43,31.82,36.45,34.75,32.67,7.34,75.61,7.12,108.04-1.41,14.8-3.9,49.05-16.78,27.91-35.47-28.14-24.88-147.45-26.46-172.4,2.14Z"/>
          <path class="cls-4" d="M489.44,385.85v141.68c-13.8.1-27.67-.04-41.47,0v-141.68c13.8.04,27.67-.09,41.47,0Z"/>
          <path class="cls-7" d="M102.4,385.85v141.68c-13.42-.04-26.9.09-40.32,0v-141.68c13.42-.08,26.9.04,40.32,0Z"/>
          <path class="cls-11" d="M489.44,243.02v141.68H143.86s0-141.68,0-141.68c115.16-.36,230.42-.36,345.58,0ZM203.46,283.61c-5.14,1.02-8.32,4.2-8.94,9.49-.98,8.33-1.15,35.75.09,43.73.57,3.64,3,6.31,6.51,7.31l227.86.27c5.1-.32,8.62-4.07,9.49-8.94,1.3-7.25,1.19-33.53.17-41.09-.76-5.62-3.18-9.32-8.8-10.78h-226.39Z"/>
          <path class="cls-14" d="M188.04,447.3c24.95-28.59,144.26-27.01,172.4-2.14,21.14,18.69-13.1,31.57-27.91,35.47-32.44,8.54-75.37,8.76-108.04,1.41-13.02-2.93-53.49-15.22-36.45-34.75Z"/>
          <path class="cls-3" d="M53.5,102.58c2.68-.02,5.38.02,8.06,0v141.68c-13.28-.09-29.87,1.31-42.62,0-9.37-.96-16.58-7.67-18.33-16.8l.17-109.05c1.13-6.62,7.78-14.2,14.38-15.56,9.15-1.89,27.92-.17,38.33-.26Z"/>
          <path class="cls-2" d="M508.51,102.58c7.68.1,18.19-.98,25.34,0,.63.09,1.55.91,2.3,1.15,7.97,2.53,11.94,8.72,13.72,16.8-1.96,33.09,2.95,69.8.14,102.45-1.04,12.12-7.1,20.19-19.62,21.27-12.83,1.11-28.27-.09-41.47,0V102.58c6.51.04,13.07-.09,19.58,0Z"/>
          <path class="cls-3" d="M447.46,102.58v141.68c-115.16.32-230.42.37-345.58,0V102.58c115.16-.35,230.42-.3,345.58,0ZM187.52,164.02c-17.04,19.53,23.43,31.82,36.45,34.75,32.67,7.34,75.61,7.12,108.04-1.41,14.8-3.9,49.05-16.78,27.91-35.47-28.14-24.88-147.45-26.46-172.4,2.14Z"/>
          <path class="cls-4" d="M488.92,102.58v141.68c-13.8.1-27.67-.04-41.47,0V102.58c13.8.04,27.67-.09,41.47,0Z"/>
          <path class="cls-4" d="M423.85,102.58v141.68c-13.8.1-27.67-.04-41.47,0V102.58c13.8.04,27.67-.09,41.47,0Z"/>
          <path class="cls-4" d="M164.59,102.58v141.68c-13.8.1-27.67-.04-41.47,0V102.58c13.8.04,27.67-.09,41.47,0Z"/>
          <path class="cls-7" d="M101.88,102.58v141.68c-13.42-.04-26.9.09-40.32,0V102.58c13.42-.08,26.9.04,40.32,0Z"/>
          <path class="cls-3" d="M179.24,163.08c27.31-31.3,157.91-29.57,188.71-2.34,23.14,20.46-14.34,34.56-30.55,38.82-35.5,9.34-82.5,9.59-118.26,1.55-14.25-3.2-58.55-16.66-39.9-38.03Z"/>
          <path class="cls-12" d="M203.46,283.61h226.39c5.63,1.45,8.05,5.15,8.8,10.77,1.02,7.57,1.13,33.85-.17,41.09-.88,4.87-4.39,8.61-9.49,8.94l-227.86-.27c-3.52-1-5.95-3.67-6.51-7.31-1.25-7.98-1.07-35.4-.09-43.73.62-5.29,3.8-8.47,8.94-9.49Z"/>
        </g>
      </g>
      <path class="cls-9" d="M190.7,482.46l-.49-.03c-27.66-1.94-50.05-23.07-53.24-50.25l-.1-.82.13-165.07.08-.72c1.99-19.07,15.92-37.08,33.6-45.12.04-6.04-.09-12.21-.22-18.62-.46-22.59-.94-45.94,5.97-68.5,11.53-37.63,42.12-68.75,79.83-81.23l.59-.19,26.24-6.18,2.11.15c.92.06,1.94.09,3.12.09,1.89,0,3.9-.08,6.03-.16,2.3-.09,4.67-.18,7.1-.18s4.5.09,6.47.28c30.87,2.92,59.19,17.49,79.77,41,19.7,22.52,31.33,51.92,32.74,82.79.49,10.78.26,21.69.04,32.25-.13,6.36-.26,12.49-.24,18.52,17.9,8.16,31.86,26.52,33.65,45.99l.06.64v165.18s-.13.96-.13.96c-3.67,26.49-25.09,46.71-52.09,49.16l-.63.06h-209.89s-.49,0-.49,0ZM295.42,215.65c15.12,0,30.39.03,45.57.1.04-4.85.2-9.69.36-14.45,1.09-33.41.25-54.7-20.41-68.56-7.58-5.08-16.37-7.77-25.43-7.77-16.8,0-32.16,9.09-40.09,23.73-7.31,13.5-6.58,33-5.87,51.86.19,5.02.38,10.13.43,15.2,15.14-.07,30.37-.1,45.45-.1Z"/>
      <g>
        <path class="cls-6" d="M306.6,59.84c57.57,5.45,97.29,54.47,99.84,110.49.9,19.84-.74,40.38-.03,60.28-13.64-2.64-36.38-.71-51.1-.8-2.45-38.35,10.92-83.56-26.57-108.71-29.2-19.6-68.98-9.84-85.63,20.91-13.55,25.02-5.23,60.23-7.57,87.8-14.72.09-37.46-1.84-51.1.8,1.34-30.67-3.7-63.56,5.38-93.18,10.28-33.54,37.6-61.04,70.85-72.04l23.58-5.56c7.22.5,15.25-.67,22.36,0Z"/>
        <path class="cls-5" d="M235.54,229.82c39.89-.23,79.87-.23,119.77,0,14.72.09,37.46-1.84,51.1.8,16.77,3.24,31.96,20.15,33.52,37.12v163.57c-2.79,20.17-19.33,35.31-39.48,37.14h-209.26c-20.86-1.45-37.87-17.08-40.31-37.91l.13-163.53c1.74-16.63,17.01-33.23,33.44-36.41,13.64-2.64,36.38-.71,51.1-.8ZM291.27,281.13c-37.41,3.52-51.72,50.37-23,75.19,2,1.73,7.67,4.32,8.03,6.4-1.78,15.91-5.17,31.77-6.25,47.67,1.51,4.34,3.54,6.44,8.21,6.97,7.14.81,28.11.92,35.06-.07,4.86-.69,7.63-4.27,7.73-9.11l-6.36-46.13c41.02-22.18,23.46-85.32-23.42-80.91Z"/>
        <path class="cls-6" d="M291.27,281.13c46.88-4.41,64.43,58.73,23.42,80.91l6.36,46.13c-.09,4.84-2.87,8.42-7.73,9.11-6.95.99-27.91.88-35.06.07-4.67-.53-6.7-2.63-8.21-6.97,1.08-15.9,4.47-31.76,6.25-47.67-.36-2.07-6.03-4.66-8.03-6.4-28.72-24.82-14.41-71.67,23-75.19Z"/>
      </g>
    </g>
  </g>
</svg>