<svg viewBox="0 0 19 18" fill="none" xmlns="http://www.w3.org/2000/svg">
<path d="M0.5 7.00008V11.0001C0.5 11.5501 0.95 12.0001 1.5 12.0001H4.5L7.79 15.2901C8.42 15.9201 9.5 15.4701 9.5 14.5801V3.41008C9.5 2.52008 8.42 2.07008 7.79 2.70008L4.5 6.00008H1.5C0.95 6.00008 0.5 6.45008 0.5 7.00008ZM14 9.00008C14 7.23008 12.98 5.71008 11.5 4.97008V13.0201C12.98 12.2901 14 10.7701 14 9.00008ZM11.5 1.45008V1.65009C11.5 2.03009 11.75 2.36009 12.1 2.50009C14.68 3.53009 16.5 6.06008 16.5 9.00008C16.5 11.9401 14.68 14.4701 12.1 15.5001C11.74 15.6401 11.5 15.9701 11.5 16.3501V16.5501C11.5 17.1801 12.13 17.6201 12.71 17.4001C16.1 16.1101 18.5 12.8401 18.5 9.00008C18.5 5.16008 16.1 1.89008 12.71 0.600085C12.13 0.370085 11.5 0.820085 11.5 1.45008Z" fill="#37AEFF"/>
</svg>
