<svg width="146" height="54" viewBox="0 0 146 54" fill="none" xmlns="http://www.w3.org/2000/svg">
<path d="M73 0L68.5 9.91837H78.4545L73 0Z" fill="#FFFCED"/>
<path d="M0 38.5714C0 47.0924 6.9328 54 15.4848 54H130.515C139.067 54 146 47.0924 146 38.5714V25.3469C146 16.826 139.067 9.91837 130.515 9.91837H15.4849C6.93281 9.91837 0 16.826 0 25.3469V38.5714Z" fill="#FFFCED"/>
<path d="M37.9922 40L33.4141 24H37.1094L39.7578 35.1172H39.8906L42.8125 24H45.9766L48.8906 35.1406H49.0313L51.6797 24H55.375L50.7969 40H47.5L44.4531 29.5391H44.3281L41.2891 40H37.9922ZM56.3711 40V28H59.5977V30.0937H59.7227C59.9414 29.349 60.3086 28.7865 60.8242 28.4063C61.3398 28.0208 61.9336 27.8281 62.6055 27.8281C62.7721 27.8281 62.9518 27.8385 63.1445 27.8594C63.3372 27.8802 63.5065 27.9089 63.6523 27.9453V30.8984C63.4961 30.8516 63.2799 30.8099 63.0039 30.7734C62.7279 30.737 62.4753 30.7188 62.2461 30.7188C61.7565 30.7188 61.319 30.8255 60.9336 31.0391C60.5534 31.2474 60.2513 31.5391 60.0273 31.9141C59.8086 32.2891 59.6992 32.7214 59.6992 33.2109V40H56.3711ZM65.373 40V28H68.7012V40H65.373ZM67.0449 26.4531C66.5501 26.4531 66.1257 26.2891 65.7715 25.9609C65.4225 25.6276 65.248 25.2292 65.248 24.7656C65.248 24.3073 65.4225 23.9141 65.7715 23.5859C66.1257 23.2526 66.5501 23.0859 67.0449 23.0859C67.5397 23.0859 67.9616 23.2526 68.3105 23.5859C68.6647 23.9141 68.8418 24.3073 68.8418 24.7656C68.8418 25.2292 68.6647 25.6276 68.3105 25.9609C67.9616 26.2891 67.5397 26.4531 67.0449 26.4531ZM77.75 28V30.5H70.5234V28H77.75ZM72.1641 25.125H75.4922V36.3125C75.4922 36.6198 75.5391 36.8594 75.6328 37.0312C75.7266 37.1979 75.8568 37.3151 76.0234 37.3828C76.1953 37.4505 76.3932 37.4844 76.6172 37.4844C76.7734 37.4844 76.9297 37.4714 77.0859 37.4453C77.2422 37.4141 77.362 37.3906 77.4453 37.375L77.9688 39.8516C77.8021 39.9036 77.5677 39.9635 77.2656 40.0313C76.9635 40.1042 76.5964 40.1484 76.1641 40.1641C75.362 40.1953 74.6589 40.0885 74.0547 39.8437C73.4557 39.599 72.9896 39.2187 72.6563 38.7031C72.3229 38.1875 72.1589 37.5365 72.1641 36.75V25.125ZM79.918 40V28H83.2461V40H79.918ZM81.5898 26.4531C81.0951 26.4531 80.6706 26.2891 80.3164 25.9609C79.9674 25.6276 79.793 25.2292 79.793 24.7656C79.793 24.3073 79.9674 23.9141 80.3164 23.5859C80.6706 23.2526 81.0951 23.0859 81.5898 23.0859C82.0846 23.0859 82.5065 23.2526 82.8555 23.5859C83.2096 23.9141 83.3867 24.3073 83.3867 24.7656C83.3867 25.2292 83.2096 25.6276 82.8555 25.9609C82.5065 26.2891 82.0846 26.4531 81.5898 26.4531ZM89.2402 33.0625V40H85.9121V28H89.084V30.1172H89.2246C89.4902 29.4193 89.9355 28.8672 90.5605 28.4609C91.1855 28.0495 91.9434 27.8438 92.834 27.8438C93.6673 27.8438 94.3939 28.026 95.0137 28.3906C95.6335 28.7552 96.1152 29.276 96.459 29.9531C96.8027 30.625 96.9746 31.4271 96.9746 32.3594V40H93.6465V32.9531C93.6517 32.2187 93.4642 31.6458 93.084 31.2344C92.7038 30.8177 92.1803 30.6094 91.5137 30.6094C91.0658 30.6094 90.6699 30.7057 90.3262 30.8984C89.9876 31.0911 89.722 31.3724 89.5293 31.7422C89.3418 32.1068 89.2454 32.5469 89.2402 33.0625ZM105.004 44.75C103.926 44.75 103.001 44.6016 102.23 44.3047C101.465 44.013 100.855 43.6146 100.402 43.1094C99.9492 42.6042 99.6549 42.0365 99.5195 41.4062L102.598 40.9922C102.691 41.2318 102.84 41.4557 103.043 41.6641C103.246 41.8724 103.514 42.0391 103.848 42.1641C104.186 42.2943 104.598 42.3594 105.082 42.3594C105.806 42.3594 106.402 42.1823 106.871 41.8281C107.345 41.4792 107.582 40.8932 107.582 40.0703V37.875H107.441C107.296 38.2083 107.077 38.5234 106.785 38.8203C106.493 39.1172 106.118 39.3594 105.66 39.5469C105.202 39.7344 104.655 39.8281 104.02 39.8281C103.118 39.8281 102.298 39.6198 101.559 39.2031C100.824 38.7812 100.238 38.138 99.8008 37.2734C99.3685 36.4036 99.1523 35.3047 99.1523 33.9766C99.1523 32.6172 99.3737 31.4818 99.8164 30.5703C100.259 29.6589 100.848 28.9766 101.582 28.5234C102.322 28.0703 103.132 27.8438 104.012 27.8438C104.684 27.8438 105.246 27.9583 105.699 28.1875C106.152 28.4115 106.517 28.6927 106.793 29.0312C107.074 29.3646 107.29 29.6927 107.441 30.0156H107.566V28H110.871V40.1172C110.871 41.138 110.621 41.9922 110.121 42.6797C109.621 43.3672 108.928 43.8828 108.043 44.2266C107.163 44.5755 106.15 44.75 105.004 44.75ZM105.074 37.3281C105.611 37.3281 106.064 37.1953 106.434 36.9297C106.809 36.6589 107.095 36.2734 107.293 35.7734C107.496 35.2682 107.598 34.6641 107.598 33.9609C107.598 33.2578 107.499 32.6484 107.301 32.1328C107.103 31.612 106.816 31.2083 106.441 30.9219C106.066 30.6354 105.611 30.4922 105.074 30.4922C104.527 30.4922 104.066 30.6406 103.691 30.9375C103.316 31.2292 103.033 31.6354 102.84 32.1562C102.647 32.6771 102.551 33.2786 102.551 33.9609C102.551 34.6536 102.647 35.2526 102.84 35.7578C103.038 36.2578 103.322 36.6458 103.691 36.9219C104.066 37.1927 104.527 37.3281 105.074 37.3281Z" fill="#6B5F20"/>
</svg>
