<svg width="492" height="473" viewBox="0 0 492 473" fill="none" xmlns="http://www.w3.org/2000/svg">
<path d="M440.547 201.741L442.397 190.649C444.851 175.936 440.972 160.872 431.717 149.175L387.354 93.1101C380.56 84.5236 370.633 78.9878 359.757 77.7205C348.882 76.4532 337.948 79.5581 329.361 86.3523L324.918 89.8683C316.384 96.6208 305.517 99.7067 294.708 98.4471C283.899 97.1876 273.033 100.273 264.499 107.026L208.86 151.052C197.32 160.182 182.556 164.212 167.978 162.209C153.4 160.207 138.636 164.237 127.097 173.367L76.1173 213.706C61.1709 225.533 51.5235 242.803 49.2901 261.731L47.7846 274.49C45.5427 293.49 50.9549 312.601 62.8263 327.604L102.991 378.364C109.493 386.582 118.994 391.88 129.403 393.093C139.811 394.306 150.276 391.334 158.493 384.832L170.84 375.062C179.808 367.966 191.267 364.802 202.606 366.292C213.944 367.782 225.403 364.619 234.372 357.523L251.745 343.776C266.932 331.758 286.321 326.366 305.532 328.817L322.052 330.924C341.264 333.375 360.652 327.982 375.839 315.965L440.878 264.502C447.18 259.516 451.133 252.141 451.797 244.132L451.915 242.826C452.551 235.814 450.469 228.825 446.1 223.303C441.288 217.222 439.271 209.39 440.547 201.741Z" fill="#865C4C"/>
<path d="M431.32 190.023L433.053 178.839C435.363 163.922 431.353 148.716 421.986 136.878L379.253 82.8713C372.458 74.2849 362.532 68.7491 351.656 67.4817C340.78 66.2144 329.846 69.3194 321.26 76.1136L316.816 79.6295C308.282 86.382 297.416 89.4679 286.607 88.2084C275.798 86.9488 264.931 90.0347 256.397 96.7872L200.758 140.813C189.219 149.943 174.455 153.973 159.877 151.971C145.299 149.968 130.535 153.998 118.996 163.129L68.0158 203.467C53.0693 215.294 43.422 232.564 41.1886 251.492L39.6831 264.251C37.4412 283.251 42.8534 302.362 54.7248 317.365L91.7113 364.109C98.7468 373 108.865 378.925 120.062 380.708C132.559 382.7 145.318 379.364 155.242 371.512L167.885 361.508C176.263 354.879 187.13 352.264 197.607 354.355C208.084 356.447 218.951 353.832 227.329 347.203L247.015 331.626C262.284 319.544 281.795 314.161 301.098 316.705L316.954 318.794C336.257 321.338 355.768 315.955 371.036 303.873L429.794 257.38C436.728 251.894 441.334 243.992 442.692 235.255L442.964 233.189C443.963 225.599 441.846 217.928 437.096 211.925C432.207 205.746 430.114 197.809 431.32 190.023Z" fill="#642711"/>
<path d="M427.704 186.645L429.232 174.01C431.109 158.479 426.705 142.841 416.997 130.573L377.227 80.3113C370.433 71.7248 360.506 66.189 349.63 64.9217C338.754 63.6543 327.821 66.7593 319.234 73.5535L314.791 77.0695C306.257 83.822 295.39 86.9079 284.581 85.6483C273.772 84.3888 262.905 87.4747 254.372 94.2272L198.732 138.253C187.193 147.383 172.429 151.413 157.851 149.411C143.273 147.408 128.509 151.438 116.97 160.569L65.9901 200.907C51.0437 212.734 41.3963 230.004 39.1629 248.932L37.6574 261.691C35.4155 280.691 40.8277 299.802 52.6991 314.805L87.2053 358.414C95.0996 368.391 106.589 374.877 119.21 376.481C132.179 378.129 145.265 374.486 155.517 366.374L166.928 357.346C175.361 350.673 186.283 348.006 196.842 350.041C207.401 352.076 218.323 349.409 226.756 342.737L246.155 327.386C261.343 315.369 280.731 309.977 299.943 312.427L316.463 314.535C335.674 316.985 355.062 311.593 370.25 299.576L426.133 255.357C433.392 249.614 438.017 241.176 438.955 231.968L439.401 228.551C440.383 221.024 438.279 213.42 433.569 207.467C428.916 201.586 426.804 194.09 427.704 186.645Z" fill="#FFEC86"/>
<path d="M424.284 181.196L425.826 169.705C427.877 154.419 423.63 138.956 414.06 126.861L374.833 77.2864C368.039 68.6999 358.112 63.1641 347.237 61.8968C336.361 60.6294 325.427 63.7344 316.841 70.5286L312.397 74.0445C303.863 80.7971 292.997 83.883 282.188 82.6234C271.378 81.3639 260.512 84.4498 251.978 91.2023L196.339 135.228C184.799 144.358 170.035 148.388 155.458 146.386C140.88 144.383 126.116 148.413 114.576 157.544L63.5966 197.882C48.6502 209.709 39.0028 226.979 36.7694 245.907L35.2639 258.666C33.022 277.666 38.4341 296.777 50.3056 311.78L84.6551 355.191C92.6454 365.289 104.297 371.826 117.08 373.383C130.037 374.961 143.086 371.292 153.322 363.193L163.864 354.851C172.861 347.732 184.349 344.542 195.728 346.004C207.108 347.465 218.596 344.275 227.593 337.156L245.169 323.248C260.144 311.399 279.212 305.984 298.18 308.194L316.464 310.325C335.431 312.535 354.499 307.12 369.474 295.271L421.31 254.255C429.206 248.007 434.487 239.038 436.12 229.103L436.574 225.21C437.481 217.427 435.259 209.603 430.397 203.458C425.424 197.174 423.218 189.139 424.284 181.196Z" fill="#FFF2AC"/>
<path d="M184.74 203.704L176.841 278.489" stroke="#FFF6C7" stroke-width="6" stroke-linecap="round" stroke-linejoin="round"/>
<path d="M162.428 281.704L59.428 205.704" stroke="#FFF6C7" stroke-width="6" stroke-linecap="round" stroke-linejoin="round"/>
<g clip-path="url(#clip0_1145_492)">
<path d="M312.529 187.587C309.513 183.216 309.768 177.379 313.141 173.526C316.698 169.462 322.414 168.522 326.929 171.268C327.149 171.401 327.321 171.623 327.517 171.804C330.031 175.235 329.607 178.874 327.992 182.439C326.409 185.934 323.629 188.117 319.964 188.861C317.383 189.385 314.826 189.135 312.529 187.585V187.587Z" fill="#FFE24B"/>
<path d="M312.529 187.588C313.288 187.18 313.9 187.757 314.544 187.957C321.619 190.154 328.74 184.606 328.612 176.958C328.59 175.616 328.303 174.317 327.783 173.077C327.614 172.678 327.23 172.312 327.514 171.804C333.586 175.41 333.82 185.391 327.941 189.968C326.53 191.066 324.955 191.79 323.216 192.123C322.196 193.208 320.602 193.213 319.489 192.137C316.605 191.541 314.254 190.073 312.526 187.585L312.529 187.588Z" fill="#E8CE44"/>
<path d="M323.275 194.187C325.518 194.367 326.79 195.768 326.755 198.023C326.726 200.031 325.207 201.59 323.144 201.676C322.078 201.721 321.008 201.699 319.943 201.685C317.632 201.651 316.122 200.348 315.856 198.176C315.636 196.378 316.881 194.769 318.958 194.159C319.127 194.109 319.291 194.031 319.457 193.965C320.181 194.217 320.066 194.889 320.12 195.452C320.192 196.223 320.329 196.983 321.228 197.055C322.183 197.133 322.478 196.386 322.634 195.571C322.733 195.052 322.647 194.442 323.278 194.184L323.275 194.187Z" fill="#E8CE44"/>
<path d="M323.275 194.187C323.251 194.778 323.275 195.377 323.189 195.959C323.025 197.061 322.494 197.86 321.297 197.823C320.122 197.787 319.569 197.05 319.516 195.879C319.486 195.241 319.476 194.606 319.457 193.968C319.468 193.357 319.481 192.747 319.492 192.137C320.737 192.309 321.979 192.345 323.221 192.123C323.24 192.811 323.256 193.499 323.275 194.187Z" fill="#865C4C"/>
</g>
<g clip-path="url(#clip1_1145_492)">
<path d="M81.5288 325.587C78.513 321.216 78.7679 315.379 82.1406 311.526C85.6985 307.462 91.4136 306.522 95.9293 309.268C96.1494 309.401 96.3211 309.623 96.517 309.804C99.0311 313.235 98.6071 316.874 96.9919 320.439C95.4088 323.934 92.6291 326.117 88.9639 326.861C86.3827 327.385 83.8256 327.135 81.5288 325.585V325.587Z" fill="#8C7C29"/>
<path d="M81.5288 325.588C82.2881 325.18 82.8999 325.757 83.5439 325.957C90.6193 328.154 97.7404 322.606 97.6116 314.958C97.5902 313.616 97.3031 312.317 96.7826 311.077C96.6135 310.678 96.2298 310.312 96.5142 309.804C102.586 313.41 102.82 323.391 96.9409 327.968C95.5295 329.066 93.9545 329.79 92.2158 330.123C91.1962 331.208 89.6024 331.213 88.4889 330.137C85.6045 329.541 83.2541 328.073 81.5261 325.585L81.5288 325.588Z" fill="#6B5F20"/>
<path d="M92.275 332.187C94.5182 332.367 95.79 333.768 95.7551 336.023C95.7256 338.031 94.2069 339.59 92.1436 339.676C91.0784 339.721 90.0078 339.699 88.9426 339.685C86.6324 339.651 85.1217 338.348 84.8561 336.176C84.6361 334.378 85.8811 332.769 87.9578 332.159C88.1269 332.109 88.2906 332.031 88.4569 331.965C89.1814 332.217 89.066 332.889 89.1196 333.452C89.1921 334.223 89.3289 334.983 90.2278 335.055C91.183 335.133 91.4781 334.386 91.6338 333.571C91.733 333.052 91.6472 332.442 92.2777 332.184L92.275 332.187Z" fill="#E8CE44"/>
<path d="M92.2749 332.187C92.2508 332.778 92.2749 333.377 92.1891 333.959C92.0254 335.061 91.4941 335.86 90.2974 335.823C89.1222 335.787 88.5695 335.05 88.5158 333.879C88.4863 333.241 88.4756 332.606 88.4568 331.968C88.4675 331.357 88.4809 330.747 88.4917 330.137C89.7367 330.309 90.979 330.345 92.2213 330.123C92.24 330.811 92.2561 331.499 92.2749 332.187Z" fill="#865C4C"/>
</g>
<g clip-path="url(#clip2_1145_492)">
<path d="M268.971 283.407C266.756 280.302 266.943 276.156 269.42 273.419C272.033 270.532 276.23 269.864 279.546 271.815C279.708 271.91 279.834 272.067 279.978 272.195C281.824 274.633 281.513 277.218 280.326 279.75C279.164 282.233 277.123 283.784 274.431 284.312C272.535 284.684 270.657 284.507 268.971 283.405V283.407Z" fill="#B5A035"/>
<path d="M268.971 283.408C269.528 283.118 269.978 283.528 270.451 283.67C275.647 285.23 280.876 281.289 280.782 275.857C280.766 274.903 280.555 273.981 280.173 273.1C280.049 272.816 279.767 272.556 279.976 272.196C284.435 274.757 284.606 281.847 280.289 285.098C279.252 285.879 278.096 286.393 276.819 286.629C276.07 287.4 274.9 287.404 274.082 286.639C271.964 286.216 270.238 285.173 268.969 283.406L268.971 283.408Z" fill="#8C7C29"/>
<path d="M276.862 288.095C278.51 288.223 279.444 289.218 279.418 290.82C279.396 292.247 278.281 293.354 276.766 293.415C275.984 293.447 275.197 293.431 274.415 293.421C272.719 293.398 271.609 292.471 271.414 290.929C271.253 289.652 272.167 288.509 273.692 288.075C273.816 288.04 273.936 287.985 274.058 287.938C274.591 288.117 274.506 288.594 274.545 288.994C274.598 289.541 274.699 290.081 275.359 290.133C276.06 290.188 276.277 289.658 276.391 289.078C276.464 288.71 276.401 288.276 276.864 288.093L276.862 288.095Z" fill="#E8CE44"/>
<path d="M276.863 288.095C276.845 288.515 276.863 288.941 276.799 289.355C276.679 290.137 276.289 290.704 275.41 290.679C274.547 290.653 274.141 290.129 274.102 289.297C274.08 288.844 274.072 288.393 274.059 287.94C274.066 287.506 274.076 287.073 274.084 286.639C274.998 286.761 275.911 286.787 276.823 286.629C276.837 287.118 276.849 287.607 276.863 288.095Z" fill="#865C4C"/>
</g>
<g clip-path="url(#clip3_1145_492)">
<path d="M100.971 196.407C98.756 193.302 98.9432 189.156 101.42 186.419C104.033 183.532 108.23 182.864 111.546 184.815C111.708 184.91 111.834 185.067 111.978 185.195C113.824 187.633 113.513 190.218 112.326 192.75C111.164 195.233 109.123 196.784 106.431 197.312C104.535 197.684 102.657 197.507 100.971 196.405V196.407Z" fill="#B5A035"/>
<path d="M100.971 196.408C101.528 196.118 101.978 196.528 102.451 196.67C107.647 198.23 112.876 194.289 112.782 188.857C112.766 187.903 112.555 186.981 112.173 186.1C112.049 185.816 111.767 185.556 111.976 185.196C116.435 187.757 116.606 194.847 112.289 198.098C111.252 198.879 110.096 199.393 108.819 199.629C108.07 200.4 106.9 200.404 106.082 199.639C103.964 199.216 102.238 198.173 100.969 196.406L100.971 196.408Z" fill="#8C7C29"/>
<path d="M108.862 201.095C110.51 201.223 111.444 202.218 111.418 203.82C111.396 205.247 110.281 206.354 108.766 206.415C107.984 206.447 107.197 206.431 106.415 206.421C104.719 206.398 103.609 205.471 103.414 203.929C103.253 202.652 104.167 201.509 105.692 201.075C105.816 201.04 105.936 200.985 106.058 200.938C106.591 201.117 106.506 201.594 106.545 201.994C106.598 202.541 106.699 203.081 107.359 203.133C108.06 203.188 108.277 202.658 108.391 202.078C108.464 201.71 108.401 201.276 108.864 201.093L108.862 201.095Z" fill="#E8CE44"/>
<path d="M108.863 201.095C108.845 201.515 108.863 201.941 108.799 202.355C108.679 203.137 108.289 203.704 107.41 203.679C106.547 203.653 106.141 203.129 106.102 202.297C106.08 201.844 106.072 201.393 106.059 200.94C106.066 200.506 106.076 200.073 106.084 199.639C106.998 199.761 107.911 199.787 108.823 199.629C108.837 200.118 108.849 200.607 108.863 201.095Z" fill="#865C4C"/>
</g>
<g clip-path="url(#clip4_1145_492)">
<path d="M55.9708 267.407C53.756 264.302 53.9432 260.156 56.4201 257.419C59.0329 254.532 63.2299 253.864 66.5462 255.815C66.7077 255.91 66.8339 256.067 66.9777 256.195C68.824 258.633 68.5127 261.218 67.3265 263.75C66.1639 266.233 64.1225 267.784 61.4309 268.312C59.5353 268.684 57.6575 268.507 55.9708 267.405V267.407Z" fill="#E8CE44"/>
<path d="M55.9707 267.408C56.5284 267.118 56.9776 267.528 57.4505 267.67C62.6466 269.23 67.8761 265.289 67.7816 259.857C67.7658 258.903 67.555 257.981 67.1727 257.1C67.0486 256.816 66.7668 256.556 66.9756 256.196C71.4348 258.757 71.6062 265.847 67.2889 269.098C66.2525 269.879 65.0958 270.393 63.819 270.629C63.0702 271.4 61.8998 271.404 61.0821 270.639C58.9638 270.216 57.2377 269.173 55.9688 267.406L55.9707 267.408Z" fill="#B5A035"/>
<path d="M63.8624 272.095C65.5097 272.223 66.4437 273.218 66.4181 274.82C66.3964 276.247 65.2811 277.354 63.7659 277.415C62.9836 277.447 62.1974 277.431 61.4151 277.421C59.7186 277.398 58.6092 276.471 58.4142 274.929C58.2526 273.652 59.1669 272.509 60.692 272.075C60.8161 272.04 60.9363 271.985 61.0585 271.938C61.5905 272.117 61.5058 272.594 61.5452 272.994C61.5984 273.541 61.6989 274.081 62.359 274.133C63.0605 274.188 63.2772 273.658 63.3915 273.078C63.4644 272.71 63.4013 272.276 63.8644 272.093L63.8624 272.095Z" fill="#E8CE44"/>
<path d="M63.8625 272.095C63.8448 272.515 63.8625 272.941 63.7995 273.355C63.6793 274.137 63.2891 274.704 62.4103 274.679C61.5473 274.653 61.1414 274.129 61.1019 273.297C61.0803 272.844 61.0724 272.393 61.0586 271.94C61.0665 271.506 61.0763 271.073 61.0842 270.639C61.9985 270.761 62.9108 270.787 63.8231 270.629C63.8369 271.118 63.8487 271.607 63.8625 272.095Z" fill="#865C4C"/>
</g>
<g clip-path="url(#clip5_1145_492)">
<path d="M153.285 265.463C147.748 257.699 148.216 247.334 154.408 240.492C160.94 233.275 171.433 231.605 179.723 236.482C180.127 236.719 180.443 237.113 180.802 237.433C185.418 243.527 184.64 249.99 181.674 256.32C178.768 262.527 173.664 266.403 166.935 267.724C162.196 268.655 157.502 268.211 153.285 265.458V265.463Z" fill="#B5A035"/>
<path d="M153.285 265.463C154.679 264.739 155.802 265.763 156.985 266.118C169.975 270.019 183.049 260.167 182.812 246.586C182.773 244.202 182.246 241.896 181.29 239.694C180.98 238.985 180.275 238.335 180.798 237.433C191.945 243.837 192.374 261.561 181.581 269.689C178.99 271.64 176.098 272.926 172.906 273.517C171.034 275.443 168.108 275.453 166.064 273.541C160.768 272.482 156.453 269.876 153.28 265.458L153.285 265.463Z" fill="#8C7C29"/>
<path d="M173.014 277.182C177.132 277.502 179.467 279.99 179.403 283.995C179.349 287.561 176.561 290.33 172.773 290.483C170.817 290.561 168.852 290.522 166.896 290.497C162.654 290.438 159.881 288.123 159.393 284.266C158.989 281.074 161.275 278.217 165.088 277.133C165.398 277.044 165.699 276.906 166.004 276.788C167.334 277.236 167.122 278.428 167.221 279.428C167.354 280.798 167.605 282.148 169.255 282.276C171.009 282.414 171.551 281.089 171.837 279.64C172.019 278.719 171.861 277.635 173.019 277.177L173.014 277.182Z" fill="#E8CE44"/>
<path d="M173.014 277.182C172.97 278.231 173.014 279.295 172.857 280.33C172.556 282.286 171.581 283.704 169.384 283.64C167.226 283.576 166.211 282.266 166.113 280.187C166.059 279.054 166.039 277.926 166.004 276.793C166.024 275.709 166.049 274.625 166.068 273.542C168.354 273.847 170.635 273.911 172.916 273.517C172.95 274.739 172.98 275.96 173.014 277.182Z" fill="#865C4C"/>
</g>
<defs>
<clipPath id="clip0_1145_492">
<rect width="21.7872" height="32" fill="white" transform="translate(310.428 169.704)"/>
</clipPath>
<clipPath id="clip1_1145_492">
<rect width="21.7872" height="32" fill="white" transform="translate(79.428 307.704)"/>
</clipPath>
<clipPath id="clip2_1145_492">
<rect width="16" height="22.731" fill="white" transform="translate(267.428 270.704)"/>
</clipPath>
<clipPath id="clip3_1145_492">
<rect width="16" height="22.731" fill="white" transform="translate(99.428 183.704)"/>
</clipPath>
<clipPath id="clip4_1145_492">
<rect width="16" height="22.731" fill="white" transform="translate(54.428 254.704)"/>
</clipPath>
<clipPath id="clip5_1145_492">
<rect width="40" height="56.8276" fill="white" transform="translate(149.428 233.704)"/>
</clipPath>
</defs>
</svg>
