<svg width="17" height="20" viewBox="0 0 17 20" fill="none" xmlns="http://www.w3.org/2000/svg">
<path d="M4.8042 12.5V16.25H12.3042V12.5H11.0542V13.125C11.0542 13.2908 10.9884 13.4497 10.8711 13.5669C10.7539 13.6842 10.595 13.75 10.4292 13.75C10.2634 13.75 10.1045 13.6842 9.98726 13.5669C9.87005 13.4497 9.8042 13.2908 9.8042 13.125V12.5H4.8042Z" fill="#EE5D28"/>
<path d="M6.05425 2.5V2.92625C5.47801 3.13067 4.92894 3.40479 4.41925 3.7425L3.89925 2.18375C3.82719 1.96724 3.69724 1.77458 3.52348 1.62666C3.34973 1.47874 3.1388 1.38121 2.91355 1.34463C2.68831 1.30806 2.45736 1.33384 2.24573 1.41918C2.03409 1.50452 1.84986 1.64616 1.713 1.82875L0.750497 3.1125C0.629028 3.27424 0.548622 3.46303 0.516182 3.66268C0.483741 3.86233 0.500235 4.06688 0.564247 4.25875L1.568 7.2675C1.22794 8.13835 1.05369 9.06511 1.05425 10V16.875C1.05425 17.7038 1.38349 18.4987 1.96954 19.0847C2.55559 19.6708 3.35045 20 4.17925 20H12.9292C13.758 20 14.5529 19.6708 15.139 19.0847C15.725 18.4987 16.0542 17.7038 16.0542 16.875V10C16.0542 9.03625 15.8717 8.11375 15.5417 7.2675L16.543 4.25875C16.6072 4.06698 16.6239 3.86249 16.5917 3.66284C16.5594 3.46319 16.4793 3.27434 16.358 3.1125L15.3955 1.82875C15.2587 1.64582 15.0744 1.50387 14.8626 1.41831C14.6508 1.33276 14.4197 1.30687 14.1942 1.34346C13.9687 1.38005 13.7576 1.47772 13.5837 1.62586C13.4099 1.774 13.2799 1.96695 13.208 2.18375L12.6892 3.7425C12.1796 3.40435 11.6305 3.12982 11.0542 2.925V2.5C11.0542 1.83696 10.7909 1.20107 10.322 0.732233C9.85317 0.263392 9.21729 0 8.55425 0C7.89121 0 7.25532 0.263392 6.78648 0.732233C6.31764 1.20107 6.05425 1.83696 6.05425 2.5ZM7.30425 2.5C7.30425 2.16848 7.43594 1.85054 7.67036 1.61612C7.90478 1.3817 8.22273 1.25 8.55425 1.25C8.88577 1.25 9.20371 1.3817 9.43813 1.61612C9.67255 1.85054 9.80425 2.16848 9.80425 2.5V2.60375C8.97678 2.46388 8.13171 2.46388 7.30425 2.60375V2.5ZM14.7305 5.74375C14.4382 5.32005 14.1031 4.92757 13.7305 4.5725L14.3942 2.57875L15.3567 3.8625L14.7305 5.74375ZM3.37925 4.5725C3.00661 4.92757 2.67151 5.32005 2.37925 5.74375L1.7505 3.8625L2.713 2.57875L3.37925 4.5725ZM3.60425 9.2875C3.77408 8.09566 4.36823 7.0051 5.27756 6.21615C6.1869 5.4272 7.35036 4.99284 8.55425 4.99284C9.75813 4.99284 10.9216 5.4272 11.8309 6.21615C12.7403 7.0051 13.3344 8.09566 13.5042 9.2875C13.5278 9.4516 13.4852 9.61833 13.3858 9.75102C13.2864 9.8837 13.1383 9.97146 12.9742 9.995C12.8101 10.0185 12.6434 9.97592 12.5107 9.87653C12.378 9.77713 12.2903 9.6291 12.2667 9.465C12.1394 8.57112 11.6938 7.7532 11.0118 7.16149C10.3298 6.56978 9.45716 6.244 8.55425 6.244C7.65133 6.244 6.77874 6.56978 6.09673 7.16149C5.41473 7.7532 4.96912 8.57112 4.84175 9.465C4.81821 9.6291 4.73045 9.77713 4.59776 9.87653C4.46508 9.97592 4.29835 10.0185 4.13425 9.995C3.97014 9.97146 3.82211 9.8837 3.72272 9.75102C3.62332 9.61833 3.58071 9.4516 3.60425 9.2875ZM3.55425 11.875C3.55425 11.7092 3.6201 11.5503 3.73731 11.4331C3.85452 11.3158 4.01349 11.25 4.17925 11.25H12.9292C13.095 11.25 13.254 11.3158 13.3712 11.4331C13.4884 11.5503 13.5542 11.7092 13.5542 11.875V16.875C13.5542 17.0408 13.4884 17.1997 13.3712 17.3169C13.254 17.4342 13.095 17.5 12.9292 17.5H4.17925C4.01349 17.5 3.85452 17.4342 3.73731 17.3169C3.6201 17.1997 3.55425 17.0408 3.55425 16.875V11.875Z" fill="#EE5D28"/>
</svg>
