<svg width="240" height="240" viewBox="0 0 240 240" fill="none" xmlns="http://www.w3.org/2000/svg">
<rect width="240" height="240" rx="120" fill="#F5EFE4"/>
<path d="M173.411 121.765C171.28 115.708 169.584 107.636 167.307 99.2631C165.356 92.0907 163.587 86.1132 160.566 76.548C157.544 66.9828 153.947 79.2235 153.947 79.2235C150.473 99.6716 155.342 117.277 164.962 135.378C170.842 146.44 178.295 156.342 185.678 166.404C187.169 168.437 188.981 170.402 189.902 172.788C191.098 175.884 190.666 181.978 186.022 180.329C181.27 178.641 177.816 175.001 174.444 171.395C172.434 169.246 170.44 166.999 168.764 164.573C156.69 147.095 164.308 176.905 169.294 183.289C171.734 186.413 177.166 191.309 180.983 192.587C188.471 195.095 199.985 194.243 203.167 189.798C206.35 185.353 207.285 183.289 205.824 176.381C204.363 169.474 197.426 161.644 192.142 153.799C188.424 148.28 182.263 141.616 179.044 135.784C176.609 131.374 175.543 127.823 173.411 121.765Z" fill="#455E85"/>
<mask id="mask0_3914_6810" style="mask-type:alpha" maskUnits="userSpaceOnUse" x="80" y="62" width="92" height="132">
<path d="M83.9936 82.0187C81.0181 92.5394 80.6529 115.227 81.0957 122.976C87.649 148.171 106.443 194 127.166 194C153.069 194 165.556 191.078 169.541 190.015C173.526 188.952 170.736 174.606 169.541 165.839C168.345 157.072 167.681 144.585 166.751 106.726C165.821 68.8677 153.6 69.3992 148.685 65.8126C143.77 62.226 127.431 62.0932 110.827 63.023C94.2221 63.9529 87.7131 68.8678 83.9936 82.0187Z" fill="#58559A"/>
</mask>
<g mask="url(#mask0_3914_6810)">
<path d="M83.9936 82.0187C81.0181 92.5394 81.1598 110.667 81.6026 118.416C88.1558 143.611 106.443 194 127.166 194C153.069 194 165.556 191.078 169.541 190.015C173.526 188.952 170.736 174.606 169.541 165.839C168.345 157.072 167.681 144.585 166.751 106.726C165.821 68.8677 153.6 69.3992 148.685 65.8126C143.77 62.226 127.431 62.0932 110.827 63.023C94.2221 63.9529 87.7131 68.8678 83.9936 82.0187Z" fill="#8CA5C3"/>
<path d="M133.061 70.5569C126.819 68.1671 100.366 67.105 84.3162 72.9467L75.2509 164.689L144.207 170.929C143.86 153.935 143.375 115.406 144.207 97.243C145.247 74.5397 139.303 72.9467 133.061 70.5569Z" fill="#455E85"/>
<mask id="mask1_3914_6810" style="mask-type:alpha" maskUnits="userSpaceOnUse" x="75" y="68" width="70" height="103">
<path d="M133.061 70.5569C126.819 68.1671 100.366 67.105 84.3162 72.9467L75.2509 164.689L144.207 170.929C143.86 153.935 143.375 115.406 144.207 97.243C145.247 74.5397 139.303 72.9467 133.061 70.5569Z" fill="#3A3961"/>
</mask>
<g mask="url(#mask1_3914_6810)">
<path d="M100.756 127.886C99.7991 115.984 102.925 83.8732 104.608 69.3054L100.756 65.5859L72.4613 74.6189L75.2509 125.097C84.151 130.986 101.712 139.789 100.756 127.886Z" fill="#5A7EA7"/>
</g>
</g>
<path fill-rule="evenodd" clip-rule="evenodd" d="M66.4757 79.4909C69.0871 79.3923 71.807 80.3927 73.1251 83.3323C74.5819 86.581 73.9794 90.195 72.5865 93.0037C73.9143 94.7318 74.7254 96.936 74.353 99.1588C73.9476 101.579 72.1742 103.828 68.6003 105.413C68.2457 105.57 67.8308 105.41 67.6735 105.056C67.5162 104.701 67.6762 104.286 68.0308 104.129C71.3056 102.677 72.6613 100.754 72.9675 98.9267C73.2279 97.3723 72.7533 95.7504 71.8223 94.3481C71.092 95.4772 70.227 96.4371 69.317 97.12C68.186 97.9687 66.8666 98.4711 65.6258 98.1252C64.0136 97.6757 62.9428 96.8019 62.4081 95.7031C61.8782 94.6143 61.9214 93.399 62.3507 92.352C63.2099 90.2562 65.6798 88.7042 68.5801 89.8833C69.6559 90.3206 70.684 91.0103 71.569 91.865C72.6526 89.4077 72.9961 86.4781 71.8433 83.9071C70.827 81.6408 68.753 80.8107 66.5287 80.8948C64.2674 80.9802 62.0241 82.0158 60.9229 83.2693C60.6668 83.5608 60.223 83.5895 59.9316 83.3334C59.6401 83.0774 59.6114 82.6336 59.8675 82.3421C61.2674 80.7486 63.9014 79.5882 66.4757 79.4909ZM70.8935 93.1798C70.0614 92.2961 69.0672 91.5978 68.0511 91.1847C65.949 90.3301 64.2503 91.4218 63.6505 92.8849C63.3502 93.6174 63.3413 94.4103 63.6712 95.0884C63.9963 95.7563 64.6972 96.4079 66.003 96.772C66.6345 96.948 67.4973 96.7291 68.4738 95.9964C69.3314 95.3528 70.1867 94.3743 70.8935 93.1798Z" fill="#D7D0CD"/>
<path fill-rule="evenodd" clip-rule="evenodd" d="M127.149 126.191C125.975 125.355 125.102 124.029 125.458 122.369C125.851 120.535 127.261 119.241 128.762 118.545C128.73 117.384 129.074 116.199 129.942 115.403C130.888 114.537 132.378 114.2 134.446 114.743C134.651 114.797 134.782 115.002 134.738 115.202C134.694 115.402 134.493 115.52 134.287 115.466C132.393 114.969 131.189 115.31 130.475 115.964C129.868 116.52 129.561 117.351 129.524 118.244C130.202 118.022 130.885 117.914 131.5 117.937C132.265 117.965 133.002 118.199 133.435 118.759C133.998 119.486 134.19 120.207 134.075 120.841C133.961 121.47 133.557 121.959 133.037 122.248C131.995 122.828 130.422 122.642 129.526 121.181C129.194 120.639 128.963 120.008 128.847 119.358C127.592 120.012 126.512 121.11 126.201 122.561C125.927 123.84 126.571 124.88 127.572 125.591C128.589 126.315 129.899 126.638 130.779 126.489C130.984 126.454 131.187 126.591 131.234 126.795C131.28 126.998 131.152 127.192 130.947 127.227C129.829 127.417 128.307 127.014 127.149 126.191ZM129.559 119.04C129.643 119.685 129.857 120.308 130.171 120.82C130.82 121.879 131.91 121.996 132.637 121.592C133.001 121.389 133.256 121.064 133.327 120.672C133.397 120.287 133.296 119.782 132.84 119.193C132.62 118.908 132.173 118.709 131.513 118.685C130.933 118.664 130.248 118.782 129.559 119.04Z" fill="#D7D0CD"/>
<path d="M74.0685 178.098C75.467 168.48 79.1163 164.947 81.1088 153.124C83.1014 141.302 101.433 135.059 101.433 135.059C113.433 135.59 139.81 143.932 144.06 151.796C145.946 159.501 145.946 182.88 145.946 190.584C143.821 197.226 110.333 192.311 105.684 190.584C101.034 188.858 77.2566 187.529 75.9282 186.865C74.5998 186.201 72.8492 186.483 74.0685 178.098Z" fill="#5A7EA7"/>
<path d="M85.2817 121.961C74.9204 119.304 66.5517 124.618 62.1681 129.267C57.7844 133.916 54.4635 141.753 53.0022 149.06C51.5409 156.366 53.9323 168.587 79.7025 161.413C107.2 151.716 114.24 150.919 124.734 149.989C133.13 149.246 141.25 151.096 144.261 151.716C144.217 151.185 142.162 147.97 134.299 139.362C124.469 128.602 111.185 127.938 107.2 127.54C103.215 127.141 95.643 124.618 85.2817 121.961Z" fill="#8CA5C3"/>
<path fill-rule="evenodd" clip-rule="evenodd" d="M122.496 48.4501C116.224 48.8641 109.555 54.7392 108.989 64.734C108.948 65.4665 108.321 66.0267 107.588 65.9852C106.856 65.9438 106.295 65.3164 106.337 64.5839C106.967 53.4575 114.512 46.3146 122.321 45.7991C126.241 45.5403 130.15 46.975 133.096 50.3337C136.024 53.6726 137.911 58.8049 138.082 65.8227C138.1 66.5561 137.52 67.1652 136.787 67.1831C136.053 67.2009 135.444 66.6209 135.426 65.8875C135.266 59.2893 133.5 54.8239 131.098 52.0854C128.714 49.3666 125.616 48.2441 122.496 48.4501Z" fill="#455E85"/>
<ellipse cx="45.8028" cy="89.573" rx="3.07837" ry="2.76831" transform="rotate(-61.2659 45.8028 89.573)" fill="#D7D0CD"/>
<ellipse cx="41.7916" cy="85.85" rx="4.14363" ry="3.42469" transform="rotate(175.227 41.7916 85.85)" fill="#D7D0CD"/>
<ellipse cx="2.95972" cy="2.74958" rx="2.95972" ry="2.74958" transform="matrix(-0.968148 0.250378 0.282608 0.959236 53.5342 81.7344)" fill="#D7D0CD"/>
<ellipse cx="4.01353" cy="3.37766" rx="4.01353" ry="3.37766" transform="matrix(0.288883 -0.957364 -0.944063 -0.329764 50.7422 85.332)" fill="#D7D0CD"/>
<ellipse cx="47.5938" cy="86.2613" rx="2.83488" ry="4.5358" transform="rotate(-38.3697 47.5938 86.2613)" fill="#C59D8F"/>
<ellipse cx="142.812" cy="56.0926" rx="1.90685" ry="1.71479" transform="rotate(14.7355 142.812 56.0926)" fill="#D7D0CD"/>
<ellipse cx="144.448" cy="53.1215" rx="2.56672" ry="2.12138" transform="rotate(-108.772 144.448 53.1215)" fill="#D7D0CD"/>
<ellipse cx="1.83336" cy="1.70319" rx="1.83336" ry="1.70319" transform="matrix(-0.477136 -0.87883 -0.862385 0.506253 148.687 59.5664)" fill="#D7D0CD"/>
<ellipse cx="2.48613" cy="2.09225" rx="2.48613" ry="2.09225" transform="matrix(0.998813 0.0487185 0.0916034 -0.995796 146.104 58.4258)" fill="#D7D0CD"/>
<ellipse cx="145.069" cy="56.6723" rx="1.75603" ry="2.80964" transform="rotate(37.6317 145.069 56.6723)" fill="#C59D8F"/>
<ellipse cx="141.397" cy="114.088" rx="1.34073" ry="1.20569" transform="rotate(-37.0488 141.397 114.088)" fill="#D7D0CD"/>
<ellipse cx="140.468" cy="111.891" rx="1.80469" ry="1.49157" transform="rotate(-160.556 140.468 111.891)" fill="#D7D0CD"/>
<ellipse cx="1.28906" cy="1.19753" rx="1.28906" ry="1.19753" transform="matrix(-0.985653 -0.168786 -0.135737 0.990745 145.869 112.352)" fill="#D7D0CD"/>
<ellipse cx="1.74803" cy="1.47108" rx="1.74803" ry="1.47108" transform="matrix(0.656167 -0.754615 -0.725715 -0.687995 144.117 113.285)" fill="#D7D0CD"/>
<ellipse cx="142.699" cy="113.09" rx="1.23468" ry="1.9755" transform="rotate(-14.1526 142.699 113.09)" fill="#C59D8F"/>
</svg>
