<svg width="240" height="240" viewBox="0 0 240 240" fill="none" xmlns="http://www.w3.org/2000/svg">
<rect width="240" height="240" rx="120" fill="#F5EFE4"/>
<path d="M179.039 121.966C176.681 115.265 174.804 106.335 172.286 97.0727C170.128 89.1381 168.171 82.5256 164.828 71.944C161.486 61.3624 157.507 74.9038 157.507 74.9038C153.663 97.5246 159.05 117.001 169.692 137.025C176.196 149.262 184.441 160.216 192.609 171.348C194.259 173.596 196.263 175.771 197.282 178.41C198.605 181.835 198.126 188.577 192.989 186.752C187.732 184.885 183.912 180.858 180.181 176.869C177.958 174.492 175.752 172.006 173.898 169.322C160.541 149.987 168.968 182.965 174.484 190.026C177.184 193.483 183.192 198.899 187.415 200.313C195.698 203.087 208.436 202.144 211.956 197.227C215.477 192.31 216.512 190.026 214.895 182.385C213.279 174.743 205.605 166.082 199.759 157.403C195.646 151.298 188.831 143.925 185.27 137.475C182.576 132.595 181.397 128.667 179.039 121.966Z" fill="#455E85"/>
<mask id="mask0_3914_6810" style="mask-type:alpha" maskUnits="userSpaceOnUse" x="76" y="56" width="102" height="146">
<path d="M80.1199 77.9952C76.8282 89.6337 76.4241 114.732 76.914 123.304C84.1636 151.176 104.955 201.875 127.879 201.875C156.535 201.875 170.348 198.642 174.757 197.467C179.165 196.291 176.079 180.42 174.757 170.721C173.434 161.023 172.699 147.209 171.671 105.328C170.642 63.4469 157.122 64.0348 151.685 60.0671C146.248 56.0994 128.173 55.9524 109.804 56.9811C91.4351 58.0098 84.2345 63.447 80.1199 77.9952Z" fill="#58559A"/>
</mask>
<g mask="url(#mask0_3914_6810)">
<path d="M80.1199 77.9952C76.8282 89.6337 76.9849 109.688 77.4747 118.26C84.7244 146.132 104.955 201.875 127.879 201.875C156.535 201.875 170.348 198.642 174.757 197.467C179.165 196.291 176.079 180.42 174.757 170.721C173.434 161.023 172.699 147.209 171.671 105.328C170.642 63.4469 157.122 64.0348 151.685 60.0671C146.248 56.0994 128.173 55.9524 109.804 56.9811C91.4351 58.0098 84.2345 63.447 80.1199 77.9952Z" fill="#8CA5C3"/>
<path d="M134.401 65.3148C127.496 62.6711 98.2322 61.4961 80.4767 67.9586L70.4481 169.449L146.731 176.352C146.348 157.552 145.81 114.929 146.731 94.8364C147.882 69.7208 141.306 67.9586 134.401 65.3148Z" fill="#455E85"/>
<mask id="mask1_3914_6810" style="mask-type:alpha" maskUnits="userSpaceOnUse" x="70" y="63" width="77" height="114">
<path d="M134.401 65.3187C127.496 62.675 98.2322 61.5 80.4767 67.9625L70.4481 169.453L146.731 176.356C146.348 157.556 145.81 114.933 146.731 94.8403C147.882 69.7247 141.306 67.9625 134.401 65.3187Z" fill="#3A3961"/>
</mask>
<g mask="url(#mask1_3914_6810)">
<path d="M98.6628 128.741C97.6048 115.574 101.063 80.0506 102.924 63.935L98.6628 59.8203L67.3622 69.813L70.4482 125.655C80.2939 132.169 99.7209 141.907 98.6628 128.741Z" fill="#5A7EA7"/>
</g>
</g>
<path fill-rule="evenodd" clip-rule="evenodd" d="M60.7405 75.1987C63.6293 75.0895 66.6382 76.1962 68.0965 79.4482C69.708 83.0421 69.0415 87.0401 67.5006 90.1472C68.9695 92.059 69.8667 94.4973 69.4548 96.9563C69.0063 99.6333 67.0444 102.122 63.0909 103.875C62.6986 104.049 62.2395 103.872 62.0655 103.48C61.8916 103.088 62.0685 102.629 62.4608 102.455C66.0836 100.848 67.5833 98.7213 67.922 96.6995C68.2101 94.98 67.6852 93.1858 66.6551 91.6345C65.8473 92.8836 64.8903 93.9455 63.8836 94.7009C62.6325 95.6398 61.1729 96.1956 59.8002 95.8129C58.0167 95.3156 56.8322 94.349 56.2406 93.1334C55.6545 91.929 55.7023 90.5845 56.1771 89.4263C57.1276 87.1078 59.86 85.3909 63.0685 86.6953C64.2586 87.1791 65.3959 87.942 66.375 88.8876C67.5737 86.1691 67.9537 82.9282 66.6784 80.0841C65.5542 77.5769 63.2597 76.6587 60.7992 76.7517C58.2975 76.8462 55.8159 77.9919 54.5976 79.3785C54.3144 79.7009 53.8234 79.7327 53.501 79.4494C53.1786 79.1662 53.1469 78.6752 53.4301 78.3528C54.9788 76.59 57.8927 75.3063 60.7405 75.1987ZM65.6278 90.3421C64.7072 89.3644 63.6074 88.5919 62.4832 88.1349C60.1578 87.1896 58.2786 88.3973 57.6151 90.0158C57.2829 90.8261 57.273 91.7033 57.638 92.4534C57.9976 93.1923 58.773 93.9131 60.2176 94.3159C60.9162 94.5106 61.8707 94.2685 62.9509 93.4579C63.8996 92.746 64.8458 91.6635 65.6278 90.3421Z" fill="#D7D0CD"/>
<path fill-rule="evenodd" clip-rule="evenodd" d="M127.861 126.859C126.562 125.935 125.596 124.467 125.989 122.631C126.424 120.602 127.985 119.17 129.646 118.4C129.609 117.116 129.99 115.805 130.951 114.925C131.997 113.967 133.645 113.595 135.933 114.195C136.159 114.254 136.304 114.482 136.256 114.702C136.208 114.923 135.984 115.054 135.757 114.994C133.662 114.444 132.33 114.822 131.54 115.546C130.869 116.161 130.529 117.08 130.488 118.068C131.238 117.822 131.994 117.703 132.674 117.728C133.52 117.759 134.335 118.018 134.815 118.637C135.437 119.442 135.649 120.239 135.522 120.941C135.397 121.637 134.949 122.177 134.374 122.498C133.222 123.139 131.481 122.933 130.49 121.317C130.123 120.717 129.867 120.02 129.739 119.3C128.351 120.023 127.156 121.238 126.812 122.843C126.509 124.259 127.222 125.409 128.328 126.196C129.453 126.996 130.903 127.354 131.877 127.188C132.103 127.15 132.328 127.302 132.379 127.527C132.431 127.752 132.289 127.966 132.062 128.005C130.825 128.215 129.142 127.769 127.861 126.859ZM130.527 118.948C130.62 119.662 130.856 120.351 131.203 120.917C131.921 122.088 133.127 122.219 133.931 121.771C134.334 121.547 134.617 121.187 134.695 120.754C134.772 120.327 134.661 119.769 134.157 119.117C133.913 118.802 133.418 118.582 132.688 118.556C132.047 118.532 131.289 118.663 130.527 118.948Z" fill="#D7D0CD"/>
<path d="M69.14 184.284C70.6871 173.644 74.7242 169.736 76.9285 156.657C79.1327 143.579 99.4121 136.672 99.4121 136.672C112.687 137.26 141.867 146.488 146.569 155.188C148.655 163.711 148.655 189.574 148.655 198.098C146.304 205.445 109.258 200.008 104.115 198.098C98.9712 196.187 72.6669 194.718 71.1974 193.983C69.7278 193.248 67.7912 193.56 69.14 184.284Z" fill="#5A7EA7"/>
<path d="M81.5447 122.181C70.0825 119.242 60.8246 125.12 55.9751 130.263C51.1257 135.406 47.4519 144.076 45.8354 152.159C44.2188 160.242 46.8644 173.761 75.3727 165.825C105.792 155.098 113.58 154.216 125.19 153.188C134.477 152.365 143.46 154.412 146.791 155.098C146.742 154.51 144.469 150.954 135.77 141.431C124.895 129.528 110.2 128.793 105.792 128.353C101.383 127.912 93.0069 125.12 81.5447 122.181Z" fill="#8CA5C3"/>
<path fill-rule="evenodd" clip-rule="evenodd" d="M122.713 40.8599C115.774 41.3179 108.397 47.8173 107.771 58.8741C107.726 59.6844 107.032 60.3041 106.221 60.2582C105.411 60.2124 104.791 59.5183 104.837 58.708C105.534 46.3993 113.881 38.4975 122.519 37.9272C126.856 37.6409 131.18 39.2281 134.439 42.9436C137.678 46.6373 139.766 52.315 139.956 60.0784C139.976 60.8898 139.334 61.5635 138.523 61.5833C137.711 61.6031 137.037 60.9614 137.018 60.1501C136.84 52.8508 134.886 47.911 132.229 44.8815C129.592 41.8738 126.165 40.632 122.713 40.8599Z" fill="#455E85"/>
<ellipse cx="37.8711" cy="86.3533" rx="3.40546" ry="3.06245" transform="rotate(-61.2659 37.8711 86.3533)" fill="#D7D0CD"/>
<ellipse cx="33.4336" cy="82.231" rx="4.58391" ry="3.78858" transform="rotate(175.227 33.4336 82.231)" fill="#D7D0CD"/>
<ellipse cx="3.2742" cy="3.04173" rx="3.2742" ry="3.04173" transform="matrix(-0.968148 0.250378 0.282608 0.959236 46.424 77.6758)" fill="#D7D0CD"/>
<ellipse cx="4.43999" cy="3.73655" rx="4.43999" ry="3.73655" transform="matrix(0.288883 -0.957364 -0.944063 -0.329764 43.3353 81.6562)" fill="#D7D0CD"/>
<ellipse cx="39.8524" cy="82.6905" rx="3.1361" ry="5.01775" transform="rotate(-38.3697 39.8524 82.6905)" fill="#C59D8F"/>
<ellipse cx="145.188" cy="49.3165" rx="2.10946" ry="1.89699" transform="rotate(14.7355 145.188 49.3165)" fill="#D7D0CD"/>
<ellipse cx="146.998" cy="46.0291" rx="2.83944" ry="2.34678" transform="rotate(-108.772 146.998 46.0291)" fill="#D7D0CD"/>
<ellipse cx="2.02816" cy="1.88416" rx="2.02816" ry="1.88416" transform="matrix(-0.477136 -0.87883 -0.862385 0.506253 151.687 53.1562)" fill="#D7D0CD"/>
<ellipse cx="2.75029" cy="2.31456" rx="2.75029" ry="2.31456" transform="matrix(0.998813 0.0487185 0.0916034 -0.995796 148.83 51.8945)" fill="#D7D0CD"/>
<ellipse cx="147.685" cy="49.9562" rx="1.94261" ry="3.10818" transform="rotate(37.6317 147.685 49.9562)" fill="#C59D8F"/>
<ellipse cx="143.623" cy="113.476" rx="1.48319" ry="1.3338" transform="rotate(-37.0488 143.623 113.476)" fill="#D7D0CD"/>
<ellipse cx="142.594" cy="111.045" rx="1.99645" ry="1.65005" transform="rotate(-160.556 142.594 111.045)" fill="#D7D0CD"/>
<ellipse cx="1.42603" cy="1.32478" rx="1.42603" ry="1.32478" transform="matrix(-0.985653 -0.168786 -0.135737 0.990745 148.57 111.555)" fill="#D7D0CD"/>
<ellipse cx="1.93377" cy="1.62739" rx="1.93377" ry="1.62739" transform="matrix(0.656167 -0.754615 -0.725715 -0.687995 146.631 112.586)" fill="#D7D0CD"/>
<ellipse cx="145.063" cy="112.371" rx="1.36588" ry="2.1854" transform="rotate(-14.1526 145.063 112.371)" fill="#C59D8F"/>
</svg>
