<svg width="21" height="18" viewBox="0 0 21 18" fill="none" xmlns="http://www.w3.org/2000/svg">
<path d="M20.664 6.72957L20.184 5.06957L19.074 1.89957C18.8885 1.35415 18.5393 0.879232 18.074 0.539567C17.6028 0.19872 17.0355 0.0166037 16.454 0.0195668H4.98398C4.40161 0.0184319 3.83338 0.198912 3.3584 0.535879C2.88342 0.872847 2.52533 1.34953 2.33398 1.89957L1.20398 5.10957L0.743981 6.72957C0.734754 6.79926 0.734754 6.86987 0.743981 6.93957C0.747357 7.63838 0.940871 8.32309 1.30377 8.9203C1.66668 9.5175 2.18528 10.0047 2.80398 10.3296V15.1596C2.80131 15.5306 2.87243 15.8985 3.0132 16.2419C3.15397 16.5852 3.36159 16.8972 3.62398 17.1596C4.1565 17.6858 4.87529 17.9805 5.62398 17.9796H15.904C16.2734 17.9809 16.6394 17.9091 16.9809 17.7684C17.3224 17.6276 17.6327 17.4207 17.8939 17.1595C18.1551 16.8983 18.362 16.588 18.5028 16.2465C18.6435 15.9049 18.7153 15.539 18.714 15.1696V10.3396C19.253 10.0615 19.7163 9.65655 20.064 9.15957C20.5218 8.51379 20.7665 7.74116 20.764 6.94957C20.7366 6.87366 20.7032 6.80009 20.664 6.72957ZM13.774 15.1296H7.60398C7.33876 15.1296 7.08441 15.0242 6.89687 14.8367C6.70934 14.6491 6.60398 14.3948 6.60398 14.1296C6.60398 13.8643 6.70934 13.61 6.89687 13.4225C7.08441 13.2349 7.33876 13.1296 7.60398 13.1296H13.774C14.0392 13.1296 14.2936 13.2349 14.4811 13.4225C14.6686 13.61 14.774 13.8643 14.774 14.1296C14.774 14.3948 14.6686 14.6491 14.4811 14.8367C14.2936 15.0242 14.0392 15.1296 13.774 15.1296ZM18.774 8.27957C18.492 8.67857 18.094 8.97957 17.634 9.13957C17.2876 9.257 16.9182 9.29013 16.5565 9.23621C16.1947 9.1823 15.8511 9.04289 15.554 8.82957C15.255 8.61854 15.0097 8.34033 14.8378 8.0173C14.6658 7.69427 14.5721 7.33542 14.564 6.96957C14.564 6.77066 14.485 6.57989 14.3443 6.43924C14.2037 6.29858 14.0129 6.21957 13.814 6.21957C13.6151 6.21957 13.4243 6.29858 13.2837 6.43924C13.143 6.57989 13.064 6.77066 13.064 6.96957V7.01957C13.0565 7.27206 13.0093 7.52181 12.924 7.75957C12.7561 8.21069 12.4565 8.60092 12.064 8.87957C11.6769 9.15922 11.2115 9.30969 10.734 9.30957C10.2492 9.31052 9.77634 9.15961 9.38175 8.87801C8.98716 8.59642 8.69069 8.1983 8.53398 7.73957C8.44211 7.50712 8.39462 7.25951 8.39398 7.00957C8.39398 6.81066 8.31496 6.61989 8.17431 6.47924C8.03366 6.33858 7.84289 6.25957 7.64398 6.25957C7.44507 6.25957 7.2543 6.33858 7.11365 6.47924C6.973 6.61989 6.89398 6.81066 6.89398 7.00957C6.88588 7.37681 6.79216 7.73709 6.62029 8.06173C6.44842 8.38638 6.20315 8.66642 5.90398 8.87957C5.50953 9.15956 5.03771 9.30984 4.55398 9.30957C4.29172 9.30202 4.03211 9.25482 3.78398 9.16957C3.32675 9.01314 2.93105 8.71549 2.65398 8.31957C2.39835 7.95487 2.25259 7.52455 2.23398 7.07957L2.64398 5.59957L3.75398 2.43957C3.84344 2.18212 4.01098 1.95899 4.23324 1.80125C4.45551 1.64351 4.72143 1.55903 4.99398 1.55957H16.464C16.734 1.56357 16.999 1.64757 17.224 1.79957C17.443 1.95957 17.607 2.18257 17.694 2.43957L18.794 5.55957L19.224 7.07957C19.1822 7.51555 19.0194 7.93118 18.754 8.27957H18.774Z" fill="#929292"/>
</svg>
