<svg width="24" height="24" viewBox="0 0 24 24" fill="none" xmlns="http://www.w3.org/2000/svg">
<path d="M20.4007 3.60017V9.20015C20.4007 18.8001 11.6008 21.2001 11.6008 21.2001C11.6008 21.2001 2.80078 18.8001 2.80078 9.20015V3.60017C2.80078 3.388 2.88507 3.18451 3.0351 3.03448C3.18512 2.88446 3.38861 2.80017 3.60078 2.80017H19.6007C19.8129 2.80017 20.0164 2.88446 20.1664 3.03448C20.3165 3.18451 20.4007 3.388 20.4007 3.60017Z" fill="#B4B4B4"/>
<path d="M19.6 2H3.6C3.17565 2 2.76869 2.16857 2.46863 2.46863C2.16857 2.76869 2 3.17565 2 3.6V9.19998C2 14.472 4.55199 17.667 6.69299 19.419C8.99898 21.3049 11.293 21.9459 11.393 21.9719C11.5305 22.0094 11.6755 22.0094 11.813 21.9719C11.913 21.9459 14.204 21.3049 16.513 19.419C18.648 17.667 21.1999 14.472 21.1999 9.19998V3.6C21.1999 3.17565 21.0314 2.76869 20.7313 2.46863C20.4313 2.16857 20.0243 2 19.6 2ZM19.6 9.19998C19.6 12.907 18.234 15.916 15.54 18.142C14.3672 19.1077 13.0335 19.8592 11.6 20.3619C10.1852 19.8678 8.86799 19.1297 7.70798 18.181C4.98199 15.951 3.6 12.93 3.6 9.19998V3.6H19.6V9.19998Z" fill="#CCCCCC"/>
<path d="M11.6012 3.66669V20.3334C13.6845 19.9167 16.6012 17.4167 17.4345 16.1667C19.1012 14.5 19.5859 11.0278 19.6199 9.50002V3.66669H11.6012Z" fill="#929292"/>
</svg>
