<svg width="14" height="14" viewBox="0 0 14 14" fill="none" xmlns="http://www.w3.org/2000/svg">
<g clip-path="url(#clip0_2154_15654)">
<path d="M5.83398 6.99976C5.83398 7.15447 5.77253 7.30284 5.66313 7.41224C5.55373 7.52163 5.40536 7.58309 5.25065 7.58309H2.37423C2.51548 8.71049 3.06353 9.74752 3.91543 10.4993C4.76733 11.2512 5.86444 11.6661 7.00065 11.6661C8.13686 11.6661 9.23397 11.2512 10.0859 10.4993C10.9378 9.74752 11.4858 8.71049 11.6271 7.58309H8.75065C8.59594 7.58309 8.44757 7.52163 8.33817 7.41224C8.22878 7.30284 8.16732 7.15447 8.16732 6.99976C8.16732 6.84505 8.22878 6.69668 8.33817 6.58728C8.44757 6.47788 8.59594 6.41643 8.75065 6.41643H11.6673V5.24976H8.75065C8.59594 5.24976 8.44757 5.1883 8.33817 5.0789C8.22878 4.96951 8.16732 4.82113 8.16732 4.66643C8.16732 4.51172 8.22878 4.36334 8.33817 4.25395C8.44757 4.14455 8.59594 4.08309 8.75065 4.08309H11.6271C11.4858 2.95569 10.9378 1.91867 10.0859 1.16684C9.23397 0.415009 8.13686 0.00012207 7.00065 0.00012207C5.86444 0.00012207 4.76733 0.415009 3.91543 1.16684C3.06353 1.91867 2.51548 2.95569 2.37423 4.08309H5.25065C5.40536 4.08309 5.55373 4.14455 5.66313 4.25395C5.77253 4.36334 5.83398 4.51172 5.83398 4.66643C5.83398 4.82113 5.77253 4.96951 5.66313 5.0789C5.55373 5.1883 5.40536 5.24976 5.25065 5.24976H2.33398V6.41643H5.25065C5.40536 6.41643 5.55373 6.47788 5.66313 6.58728C5.77253 6.69668 5.83398 6.84505 5.83398 6.99976Z" fill="white"/>
<path d="M13.4167 7C13.262 7 13.1136 7.06146 13.0042 7.17085C12.8948 7.28025 12.8333 7.42862 12.8333 7.58333C12.8318 8.97525 12.2782 10.3097 11.2939 11.2939C10.3097 12.2782 8.97525 12.8318 7.58333 12.8333H6.41667C5.0248 12.8316 3.69043 12.278 2.70623 11.2938C1.72203 10.3096 1.16836 8.9752 1.16667 7.58333C1.16667 7.42862 1.10521 7.28025 0.995812 7.17085C0.886416 7.06146 0.738043 7 0.583333 7C0.428624 7 0.280251 7.06146 0.170854 7.17085C0.0614582 7.28025 0 7.42862 0 7.58333C0.00200694 9.28452 0.678691 10.9155 1.88161 12.1184C3.08454 13.3213 4.71548 13.998 6.41667 14H7.58333C9.28452 13.998 10.9155 13.3213 12.1184 12.1184C13.3213 10.9155 13.998 9.28452 14 7.58333C14 7.42862 13.9385 7.28025 13.8291 7.17085C13.7197 7.06146 13.5714 7 13.4167 7Z" fill="white"/>
</g>
<defs>
<clipPath id="clip0_2154_15654">
<rect width="14" height="14" fill="white"/>
</clipPath>
</defs>
</svg>
