<svg width="28" height="29" viewBox="0 0 28 29" fill="none" xmlns="http://www.w3.org/2000/svg">
<g clip-path="url(#clip0_2297_5861)">
<path d="M11.666 14.5925C11.666 14.902 11.5431 15.1987 11.3243 15.4175C11.1055 15.6363 10.8088 15.7592 10.4993 15.7592H4.74652C5.029 18.014 6.12511 20.0881 7.82891 21.5917C9.5327 23.0954 11.7269 23.9251 13.9993 23.9251C16.2718 23.9251 18.466 23.0954 20.1698 21.5917C21.8736 20.0881 22.9697 18.014 23.2522 15.7592H17.4993C17.1899 15.7592 16.8932 15.6363 16.6744 15.4175C16.4556 15.1987 16.3327 14.902 16.3327 14.5925C16.3327 14.2831 16.4556 13.9864 16.6744 13.7676C16.8932 13.5488 17.1899 13.4259 17.4993 13.4259H23.3327V11.0925H17.4993C17.1899 11.0925 16.8932 10.9696 16.6744 10.7508C16.4556 10.532 16.3327 10.2353 16.3327 9.92587C16.3327 9.61645 16.4556 9.3197 16.6744 9.10091C16.8932 8.88212 17.1899 8.7592 17.4993 8.7592H23.2522C22.9697 6.5044 21.8736 4.43035 20.1698 2.92669C18.466 1.42303 16.2718 0.593262 13.9993 0.593262C11.7269 0.593262 9.5327 1.42303 7.82891 2.92669C6.12511 4.43035 5.029 6.5044 4.74652 8.7592H10.4993C10.8088 8.7592 11.1055 8.88212 11.3243 9.10091C11.5431 9.3197 11.666 9.61645 11.666 9.92587C11.666 10.2353 11.5431 10.532 11.3243 10.7508C11.1055 10.9696 10.8088 11.0925 10.4993 11.0925H4.66602V13.4259H10.4993C10.8088 13.4259 11.1055 13.5488 11.3243 13.7676C11.5431 13.9864 11.666 14.2831 11.666 14.5925Z" fill="#FFFFFF"/>
<path d="M26.8333 14.5928C26.5239 14.5928 26.2272 14.7157 26.0084 14.9345C25.7896 15.1533 25.6667 15.45 25.6667 15.7594C25.6636 18.5433 24.5563 21.2122 22.5879 23.1807C20.6194 25.1491 17.9505 26.2564 15.1667 26.2594H12.8333C10.0496 26.256 7.38086 25.1487 5.41246 23.1803C3.44407 21.2119 2.33673 18.5432 2.33333 15.7594C2.33333 15.45 2.21042 15.1533 1.99162 14.9345C1.77283 14.7157 1.47609 14.5928 1.16667 14.5928C0.857247 14.5928 0.560501 14.7157 0.341709 14.9345C0.122916 15.1533 0 15.45 0 15.7594C0.00401388 19.1618 1.35738 22.4237 3.76323 24.8295C6.16908 27.2354 9.43095 28.5888 12.8333 28.5928H15.1667C18.569 28.5888 21.8309 27.2354 24.2368 24.8295C26.6426 22.4237 27.996 19.1618 28 15.7594C28 15.45 27.8771 15.1533 27.6583 14.9345C27.4395 14.7157 27.1428 14.5928 26.8333 14.5928Z" fill="#FFFFFF"/>
</g>
<defs>
<clipPath id="clip0_2297_5861">
<rect width="28" height="28" fill="white" transform="translate(0 0.592773)"/>
</clipPath>
</defs>
</svg>
